<?xml version="1.0" encoding="utf-8"?>
<!-- Generator: Adobe Illustrator 20.0.0, SVG Export Plug-In . SVG Version: 6.00 Build 0)  -->
<svg version="1.1" id="Layer_1" xmlns="http://www.w3.org/2000/svg" xmlns:xlink="http://www.w3.org/1999/xlink" x="0px" y="0px"
	 viewBox="0 0 400.3 216" style="enable-background:new 0 0 400.3 216;" xml:space="preserve">
<style type="text/css">
	.st0{fill:none;stroke:#323739;stroke-width:1.5;stroke-miterlimit:10;}
	.st1{fill:#323739;}
	.st2{fill:#3EB655;}
	.st3{fill:none;stroke:#323739;stroke-width:1.1376;stroke-miterlimit:10;}
	.st4{fill:#656F74;}
	.st5{fill:#FFFFFF;}
	.st6{fill:none;stroke:#323739;stroke-width:3;stroke-linecap:round;stroke-miterlimit:10;stroke-dasharray:0,8;}
	.st7{fill:#FFFFFF;stroke:#FFFFFF;stroke-width:4;stroke-miterlimit:10;}
</style>
<title>Graphic2</title>
<line class="st0" x1="314.6" y1="62.3" x2="386.6" y2="62.3"/>
<circle class="st0" cx="350.6" cy="156.7" r="3.9"/>
<circle class="st1" cx="336.8" cy="54.6" r="1.4"/>
<path class="st1" d="M343.9,53.6h20.5c0.7,0,1.4,0.6,1.4,1.4l0,0c0,0.7-0.6,1.4-1.4,1.4h-20.5c-0.7,0-1.4-0.6-1.4-1.4l0,0
	C342.5,54.2,343.1,53.6,343.9,53.6z"/>
<line class="st0" x1="314.6" y1="144.7" x2="386.6" y2="144.7"/>
<path class="st0" d="M319.6,47.3h62c2.8,0,5,2.2,5,5v111c0,2.8-2.2,5-5,5h-62c-2.8,0-5-2.2-5-5v-111
	C314.6,49.6,316.8,47.3,319.6,47.3z"/>
<path class="st2" d="M360.4,100.9c-2.9-2-6.3-3-9.8-3l0,0c-3.5,0-6.9,1-9.8,3c-0.5-1.5-0.8-3.1-0.9-4.7c3.3-1.8,7-2.7,10.7-2.7l0,0
	c3.7,0,7.4,0.9,10.7,2.7C361.2,97.8,360.9,99.4,360.4,100.9 M357.1,107.8c-1.8-1.5-4.1-2.3-6.5-2.3l0,0c-2.4,0-4.7,0.8-6.5,2.3
	c-0.8-1.3-1.6-2.6-2.2-4c2.5-1.9,5.6-2.8,8.7-2.8l0,0c3.1,0,6.2,1,8.7,2.8C358.7,105.2,357.9,106.6,357.1,107.8 M350.6,114.1
	L350.6,114.1c-1.8-0.9-3.4-2.2-4.7-3.8c1.3-1.1,3-1.8,4.7-1.7l0,0c1.7,0,3.4,0.6,4.7,1.7C354,111.9,352.4,113.2,350.6,114.1
	 M364.2,94.2c-8.4-5.1-18.9-5.1-27.2,0c-0.1,1.2-0.1,6.7,3.8,13.5c4.1,7.3,8.7,9.1,9.9,9.3l0,0c1.1-0.3,5.7-2,9.9-9.3
	C364.3,100.9,364.4,95.5,364.2,94.2"/>
<rect x="82.6" y="41" class="st0" width="70.8" height="51.1"/>
<rect x="92.5" y="55.3" class="st3" width="22.6" height="22.6"/>
<rect x="120.5" y="55.3" class="st3" width="22.6" height="9.8"/>
<rect x="120.5" y="68.7" class="st3" width="9.3" height="9.3"/>
<rect x="133.3" y="68.7" class="st3" width="9.3" height="9.3"/>
<path class="st4" d="M19.6,170.6v-12.9c0-0.8,0.1-1.5,0.3-2.4c0.1-1,0.8-2.4,4.2-5.6c2.9-2.5,6.2-4.6,9.8-6.2l6-3.1
	c3.4-1.8,7-3.4,10.7-4.6c2.4-0.8,4.8-1.4,7.3-2c-0.7-1-1.3-2.1-1.8-3.2c-0.6-1.4-1-2.5-1.4-3.4c-0.4-1-1-2.5-2-4.9
	c-0.7-1.8-1.1-3.1-1.5-4.1c-0.7-0.1-1.3-0.3-2-0.6h-0.1l-0.1-0.1c-2.4-1.7-3.5-5.2-3.5-11.1c0-1.3,0.1-2.5,0.6-3.7
	c0.3-0.7,0.7-1.4,1.4-1.8c0-11.8,0.3-12.6,0.3-13.1c1.5-5.5,4.2-12.6,9.3-12.6c0.1-0.3,0.4-0.7,0.4-1.1c0.6-2.2,2.1-4.1,4.4-4.9H62
	h0.1c1.3-0.3,2.7-0.4,4.1-0.4c0.6,0,1.3,0,1.8,0.1c1.5,0.1,3.4,0.6,5.3,0.8c2.4,0.4,2.8,0.6,2.9,0.6l0,0c4.5,0,9,2.1,13.1,6.5
	c1,1.1,2.4,3.4,4.5,11.1l0.1,0.3V101c1.1,0.6,2,2.2,2,5.5c0,5.9-1.1,9.4-3.5,11.1l-0.1,0.1h-0.1c-0.6,0.3-1,0.4-1.5,0.4
	c-2,5.5-4.4,10.7-7.3,15.6c2,0.4,3.9,0.8,5.9,1.5c2.5,0.7,5.1,1.7,7.4,2.7c1.7,0.8,3.9,1.8,6.5,3.1l5.2,2.7c3.5,1.5,6.7,3.5,9.7,6
	c2.7,2.4,4.1,4.4,4.4,6l0.3,2v13.1L19.6,170.6z"/>
<path class="st5" d="M66.2,70.9c0.6,0,1.1,0,1.7,0.1c1.5,0.1,3.2,0.4,5.2,0.8c2,0.4,2.9,0.6,3.2,0.6c4.1,0,8,2,11.7,5.8
	c1.1,1.4,2.5,4.8,4.1,10.1v14.3h0.6c1,0,1.5,1.3,1.5,3.8c0,5.1-0.8,8.1-2.7,9.3c-0.7,0.3-1.4,0.3-2,0.3l-0.3,0.6
	c-4.1,10.7-7.2,16.9-9.6,18.5c3.1,0.4,6.3,1.1,9.3,2c2.5,0.7,4.9,1.5,7.3,2.7c1.7,0.8,3.9,1.8,6.5,3.1l4.9,2.5
	c3.4,1.4,6.5,3.2,9.1,5.6c2.2,2.1,3.4,3.7,3.7,4.8l0.3,1.7v10.8h-99v-10.5c0-0.7,0.1-1.3,0.3-1.8c0.1-0.8,1.4-2.4,3.7-4.5
	c2.7-2.4,5.8-4.4,9.1-5.8l6-3.2c3.4-1.8,6.7-3.2,10.4-4.5c3.5-1.1,7.2-2,11-2.5c-0.8-0.6-1.5-1.4-2.1-2.2c-0.7-1-1.4-2.1-1.8-3.4
	c-0.6-1.4-1-2.5-1.4-3.4c-0.4-0.8-1-2.5-1.8-4.8c-0.8-2.4-1.5-3.9-1.8-4.9l-0.3-0.6c-0.3,0-0.6,0.1-0.7,0.1c-0.6,0-1.1-0.1-1.5-0.4
	c-1.8-1.1-2.7-4.2-2.7-9.3c0-1,0.1-2,0.4-2.8c0.3-0.7,0.7-1,1-1h0.8l-0.3-0.3v-0.6c0-8.1,0.1-12.6,0.3-13.3
	c2.1-7.3,4.5-11.1,7.3-11.1c1.1,0,2-0.8,2.5-2.7c0.4-1.5,1.5-2.9,3.1-3.5C63.8,71,65.1,70.9,66.2,70.9 M66.2,66.7
	c-1.5,0-2.9,0.1-4.5,0.4h-0.3l-0.3,0.1c-2.8,1.1-4.8,3.4-5.5,6.2c-5.5,1.1-8.1,8.4-9.8,13.9l0,0l0,0c-0.1,0.7-0.4,1.5-0.4,12.6
	c-0.6,0.6-1,1.3-1.3,2c-0.6,1.4-0.8,2.9-0.7,4.5c0,4.2,0.4,10.1,4.5,12.8l0.3,0.1l0.3,0.1c0.4,0.3,0.8,0.4,1.3,0.6l1.1,3.1
	c1,2.4,1.5,4.1,2,5.1c0.4,1,0.8,2,1.4,3.2c0.1,0.3,0.3,0.7,0.4,1c-1.7,0.4-3.2,0.8-4.8,1.4c-3.8,1.3-7.4,2.9-11,4.8l-5.9,3.1
	c-3.8,1.5-7.2,3.8-10.3,6.5c-3.1,2.9-4.4,4.8-4.8,6.6c-0.3,1-0.4,1.8-0.4,2.8v15h107.3v-15.3V157l-0.3-1.7c-0.4-2.2-1.8-4.5-4.9-7.2
	c-3.1-2.7-6.5-4.8-10.3-6.3l-1.5-0.7l-3.4-1.7c-2.5-1.3-4.8-2.4-6.6-3.1c-2.5-1.1-5.1-2-7.7-2.8c-1.1-0.3-2.2-0.7-3.2-1
	c2.1-4.1,3.9-8.1,5.6-12.5c0.3-0.1,0.7-0.3,1-0.4l0.3-0.1l0.3-0.1c4.1-2.7,4.5-8.6,4.5-12.8c0-1.3-0.1-4.6-2-6.6V87.9l-0.1-0.6
	c-2.2-8-3.8-10.5-4.9-11.8v-0.1l-0.1-0.1c-4.5-4.6-9.3-7-14.5-7.2c-0.3,0-1-0.1-2.7-0.6c-2.1-0.4-3.9-0.7-5.6-1
	C67.7,66.8,67,66.7,66.2,66.7z"/>
<polyline class="st6" points="150.2,113.8 156.3,113.8 294.1,113.8 "/>
<polygon class="st1" points="286.6,123 285.1,121.4 293.2,113.8 285.1,106.3 286.6,104.6 296.5,113.8 "/>
<path class="st7" d="M244,98.7c-13.3-8.1-30-8.1-43.4,0c-0.2,2-0.2,10.6,6,21.5c6.6,11.6,13.9,14.4,15.7,14.9l0,0
	c1.8-0.4,9.1-3.2,15.7-14.9C244.1,109.3,244.2,100.7,244,98.7"/>
<path class="st2" d="M237.9,109.3c-4.6-3.1-10-4.8-15.6-4.8l0,0c-5.6,0-11,1.7-15.6,4.8c-0.8-2.4-1.3-5-1.5-7.5
	c5.3-2.8,11.1-4.3,17.1-4.2l0,0c6,0,11.8,1.4,17.1,4.2C239.2,104.3,238.7,106.9,237.9,109.3 M232.6,120.3c-2.9-2.4-6.6-3.7-10.4-3.7
	l0,0c-3.8,0-7.4,1.3-10.4,3.7c-1.3-2.1-2.5-4.2-3.5-6.4c4-3,8.9-4.5,13.9-4.5l0,0c5-0.1,9.9,1.5,13.9,4.5
	C235.1,116.1,234,118.3,232.6,120.3 M222.3,130.3L222.3,130.3c-2.5-1-5.3-3.5-7.5-6.1c2-1.8,4.7-2.8,7.4-2.7l0,0
	c2.7-0.1,5.4,0.9,7.4,2.7C227.5,126.8,224.7,129.3,222.3,130.3 M243.9,98.7c-13.3-8.1-30-8.1-43.3,0c-0.2,2-0.2,10.6,6,21.5
	c6.6,11.6,13.9,14.4,15.7,14.9l0,0c1.8-0.4,9.1-3.2,15.7-14.9C244.1,109.3,244.2,100.7,243.9,98.7"/>
</svg>
