<svg id="Layer_1" data-name="Layer 1" xmlns="http://www.w3.org/2000/svg" viewBox="0 0 400 289"><defs><style>.cls-1{fill:#87959b;}.cls-1,.cls-2,.cls-3,.cls-6{stroke:#fff;}.cls-1,.cls-10,.cls-11,.cls-3,.cls-6,.cls-8{stroke-miterlimit:10;}.cls-1,.cls-3,.cls-6{stroke-width:2.07px;}.cls-1,.cls-3,.cls-5{fill-rule:evenodd;}.cls-2{fill:#b6c0c4;stroke-linejoin:round;stroke-width:1.24px;}.cls-2,.cls-8{stroke-linecap:round;}.cls-3{fill:#dae0e2;}.cls-4{font-size:16.55px;font-family:AvenirNext-Bold, Avenir Next;font-weight:700;}.cls-4,.cls-7{fill:#323739;}.cls-10,.cls-5{fill:#fff;}.cls-11,.cls-6,.cls-8{fill:none;}.cls-10,.cls-11,.cls-8{stroke:#323739;stroke-width:0.75px;}.cls-9{fill:#39b54a;}</style></defs><title>Graphic1</title><path class="cls-1" d="M267.24,144.49a60.64,60.64,0,0,1-9.33,32.24l58.41,32.72a126.7,126.7,0,0,0,17.67-65C334,72.9,274.12,15,200,15V79.53c37.3,0,67.24,28.92,67.24,65"/><path class="cls-2" d="M257.93,176.71a67.64,67.64,0,0,1-115.87,0L83.64,209.44C106.72,247.86,150.41,274,200,274s93.28-26.09,116.36-64.51Z"/><path class="cls-3" d="M132.76,144.49c0-36,29.94-65,67.24-65V15C125.88,15,66,72.9,66,144.49a126.7,126.7,0,0,0,17.67,65l58.41-32.72a60.64,60.64,0,0,1-9.33-32.24"/><text class="cls-4" transform="translate(88.6 120.81)">OS </text><text class="cls-4" transform="translate(282.07 120.81)">Apps </text><text class="cls-4" transform="translate(165.13 248.22)">Network </text><path class="cls-5" d="M122.86,143.25A77.1,77.1,0,1,1,200,220.33a77.09,77.09,0,0,1-77.1-77.09"/><rect class="cls-6" x="174.92" y="183.44" width="24.22" height="28.18"/><rect class="cls-6" x="202.87" y="183.52" width="22.37" height="26.27"/><rect class="cls-6" x="173.9" y="71.67" width="52.2" height="107.06"/><path class="cls-7" d="M215.7,196.65a3.77,3.77,0,0,1,1.8-3.16,3.86,3.86,0,0,0-3-1.64c-1.28-.13-2.52.77-3.17.77s-1.67-.75-2.75-.73a4.05,4.05,0,0,0-3.41,2.08c-1.47,2.55-.37,6.3,1,8.37.71,1,1.53,2.14,2.61,2.1s1.45-.67,2.73-.67,1.64.67,2.74.65,1.85-1,2.53-2a8.36,8.36,0,0,0,1.16-2.36A3.64,3.64,0,0,1,215.7,196.65Z"/><path class="cls-7" d="M213.62,190.49a3.71,3.71,0,0,0,.85-2.66,3.78,3.78,0,0,0-2.45,1.27,3.53,3.53,0,0,0-.87,2.56A3.12,3.12,0,0,0,213.62,190.49Z"/><path class="cls-7" d="M177.63,191.5a1.22,1.22,0,0,0-1.22,1.18l0,5a1.25,1.25,0,0,0,2.49,0v-5a1.25,1.25,0,0,0-1.26-1.18m9.48-4.45.83-1.51a.16.16,0,1,0-.29-.16l-.83,1.53a5.77,5.77,0,0,0-4.64,0l-.84-1.52a.16.16,0,1,0-.29.16l.83,1.51a4.84,4.84,0,0,0-2.72,4.27h10.67a4.84,4.84,0,0,0-2.72-4.27m-5,2.33a.45.45,0,1,1,.45-.45.45.45,0,0,1-.45.45m4.86,0a.45.45,0,1,1,.45-.45.45.45,0,0,1-.45.45m-7.72,2.35v7.57a1.17,1.17,0,0,0,1.26,1.15h.86v2.74a1.24,1.24,0,0,0,1.18,1.24,1.27,1.27,0,0,0,1.19-1.27v-2.71h1.6v2.74a1.24,1.24,0,0,0,1.18,1.24,1.16,1.16,0,0,0,1.19-1.16v-2.61h.86a1.26,1.26,0,0,0,1.26-1.26v-7.69Zm13.42,1a1.18,1.18,0,1,0-2.37,0v5a1.18,1.18,0,1,0,2.37,0Z"/><g id="_Group_" data-name="&lt;Group&gt;"><rect id="_Rectangle_" data-name="&lt;Rectangle&gt;" class="cls-8" x="162.9" y="85.86" width="50.96" height="86.98" rx="2.07" ry="2.07"/><line id="_Path_" data-name="&lt;Path&gt;" class="cls-8" x1="163.49" y1="100.08" x2="213.27" y2="100.08"/><line id="_Path_2" data-name="&lt;Path&gt;" class="cls-8" x1="163.49" y1="163.3" x2="213.27" y2="163.3"/><line id="_Path_3" data-name="&lt;Path&gt;" class="cls-8" x1="184.04" y1="93.76" x2="191.94" y2="93.76"/></g><path class="cls-9" d="M194.74,125.08a11.38,11.38,0,0,0-6.35-2h0a11.38,11.38,0,0,0-6.36,1.95,12.92,12.92,0,0,1-.6-3.07,14.71,14.71,0,0,1,7-1.72h0a14.71,14.71,0,0,1,7,1.72,12.94,12.94,0,0,1-.6,3.07m-2.14,4.47a6.49,6.49,0,0,0-4.21-1.5h0a6.49,6.49,0,0,0-4.21,1.5,20.41,20.41,0,0,1-1.43-2.62,9.24,9.24,0,0,1,5.64-1.82h0a9.24,9.24,0,0,1,5.64,1.82,20.45,20.45,0,0,1-1.43,2.61m-4.22,4.08h0a8.8,8.8,0,0,1-3-2.47,4.4,4.4,0,0,1,3-1.1h0a4.38,4.38,0,0,1,3,1.1,8.79,8.79,0,0,1-3,2.47m8.82-12.89a16.93,16.93,0,0,0-17.64,0c-.1.81-.08,4.32,2.44,8.76,2.68,4.72,5.66,5.88,6.38,6h0c.73-.17,3.7-1.32,6.38-6,2.52-4.44,2.54-7.95,2.44-8.76"/><path class="cls-10" d="M236.18,181.8H199.56a5.3,5.3,0,0,1-5.28-5.28V100.1a5.3,5.3,0,0,1,5.28-5.28h36.62a5.3,5.3,0,0,1,5.28,5.28v76.42a5.3,5.3,0,0,1-5.28,5.28"/><rect class="cls-11" x="194.27" y="94.81" width="47.19" height="86.98" rx="5.28" ry="5.28"/><line class="cls-11" x1="213.85" y1="100.03" x2="221.89" y2="100.03"/><path class="cls-10" d="M235.35,168.49h-35a1,1,0,0,1-1-1V105.86a1,1,0,0,1,1-1h35a1,1,0,0,1,1,1v61.68a1,1,0,0,1-1,1"/><rect class="cls-11" x="199.44" y="104.91" width="36.86" height="63.58" rx="0.95" ry="0.95"/><path class="cls-10" d="M219.75,176.66a2.67,2.67,0,1,1,0-3.77,2.67,2.67,0,0,1,0,3.77"/><circle class="cls-11" cx="217.87" cy="174.78" r="2.67" transform="translate(-59.77 205.32) rotate(-45.02)"/><path class="cls-9" d="M224.23,134a11.38,11.38,0,0,0-6.35-2h0A11.38,11.38,0,0,0,211.5,134a12.92,12.92,0,0,1-.6-3.07,14.71,14.71,0,0,1,7-1.72h0a14.71,14.71,0,0,1,7,1.72,12.94,12.94,0,0,1-.6,3.07m-2.14,4.47a6.49,6.49,0,0,0-4.21-1.5h0a6.49,6.49,0,0,0-4.21,1.5,20.41,20.41,0,0,1-1.43-2.62,9.24,9.24,0,0,1,5.64-1.82h0a9.24,9.24,0,0,1,5.64,1.82,20.45,20.45,0,0,1-1.43,2.61m-4.22,4.08h0a8.8,8.8,0,0,1-3-2.47,4.4,4.4,0,0,1,3-1.1h0a4.38,4.38,0,0,1,3,1.1,8.79,8.79,0,0,1-3,2.47m8.82-12.89a16.93,16.93,0,0,0-17.64,0c-.1.81-.08,4.32,2.44,8.76,2.68,4.72,5.66,5.88,6.38,6h0c.73-.17,3.7-1.32,6.38-6,2.52-4.44,2.54-7.95,2.44-8.76"/></svg>