<?xml version="1.0" encoding="utf-8"?>
<!-- Generator: Adobe Illustrator 20.0.0, SVG Export Plug-In . SVG Version: 6.00 Build 0)  -->
<svg version="1.1" id="Layer_1" xmlns="http://www.w3.org/2000/svg" xmlns:xlink="http://www.w3.org/1999/xlink" x="0px" y="0px"
	 viewBox="0 0 400 234" style="enable-background:new 0 0 400 234;" xml:space="preserve">
<style type="text/css">
	.st0{fill:none;stroke:#EE655B;stroke-width:2;}
	.st1{fill:#FFFFFF;}
	.st2{fill:#656F74;}
	.st3{fill:#EE655B;}
	.st4{fill:#1C74B8;}
	.st5{fill:none;stroke:#656F74;stroke-width:1.5;}
</style>
<title>Graphic3b</title>
<polyline class="st0" points="253.7,107.9 345,107.9 345,144.3 "/>
<circle class="st1" cx="294" cy="107.9" r="15.4"/>
<path class="st2" d="M79.1,205.3c2.4,1,4.6,2.3,6.5,4c1.6,1.5,2.4,2.6,2.6,3.4l0.2,1.2v7.7H18V214c0-0.5,0.1-0.9,0.2-1.4
	c0.1-0.6,1-1.7,2.6-3.2c1.9-1.7,4.1-3.1,6.5-4.1l4.3-2.3c2.4-1.3,4.8-2.3,7.3-3.2c2.5-0.8,5.2-1.4,7.8-1.8c-0.6-0.4-1.1-1-1.5-1.6
	c-0.5-0.7-1-1.5-1.3-2.4c-0.4-1-0.7-1.8-1-2.4c-0.3-0.6-0.7-1.8-1.3-3.4c-0.6-1.7-1.1-2.8-1.3-3.5l-0.2-0.4
	c-0.6,0.1-1.2,0.1-1.7-0.2c-1.2-0.8-1.9-3-1.9-6.6c0-0.7,0.1-1.4,0.3-2c0.2-0.5,0.5-0.7,0.7-0.7h0.6l-0.2-0.2v-0.4
	c0-5.8,0.1-9,0.2-9.5c1.5-5.2,3.2-7.9,5.2-7.9c0.8,0,1.4-0.6,1.8-1.9c0.3-1.1,1.1-2.1,2.2-2.5c1.2-0.3,2.5-0.3,3.7-0.2
	c1.1,0.1,2.3,0.3,3.7,0.6s2.1,0.4,2.3,0.4c2.9,0,5.7,1.4,8.3,4.1c0.8,1,1.8,3.4,2.9,7.2v10.1h0.2c0.8-0.1,1.2,0.8,1.2,2.7
	c0,3.6-0.6,5.8-1.9,6.6c-0.5,0.2-1,0.2-1.4,0.2l-0.2,0.4c-2.9,7.6-5.2,12-6.8,13.3c2.2,0.3,4.5,0.8,6.6,1.4c1.7,0.5,3.4,1.2,5.1,1.9
	c1.2,0.6,2.8,1.3,4.6,2.2L79.1,205.3z"/>
<path class="st2" d="M225.9,205.3c2.4,1,4.6,2.3,6.5,4c1.6,1.5,2.5,2.6,2.6,3.4l0.2,1.2v7.7h-70.4V214c0-0.5,0.1-0.9,0.2-1.4
	c0.1-0.6,1-1.7,2.6-3.2c1.9-1.7,4.1-3.1,6.5-4.1l4.4-2.3c2.4-1.3,4.8-2.3,7.4-3.2c2.5-0.8,5.1-1.4,7.8-1.8c-0.6-0.4-1.1-1-1.6-1.6
	c-0.5-0.7-1-1.5-1.4-2.4c-0.4-1-0.7-1.8-1-2.4c-0.3-0.6-0.7-1.8-1.4-3.4c-0.6-1.7-1.1-2.8-1.4-3.5l-0.2-0.4
	c-0.6,0.1-1.2,0.1-1.7-0.2c-1.2-0.8-1.9-3-1.9-6.6c0-0.7,0.1-1.4,0.3-2c0.2-0.5,0.4-0.7,0.7-0.7h0.6l-0.2-0.2v-0.4
	c0-5.8,0.1-9,0.2-9.5c1.5-5.2,3.2-7.9,5.2-7.9c0.8,0,1.4-0.6,1.8-1.9c0.3-1.1,1.1-2.1,2.2-2.5c1.2-0.3,2.5-0.3,3.7-0.2
	c1.1,0.1,2.4,0.3,3.7,0.6c1.4,0.3,2.1,0.4,2.3,0.4c2.9,0,5.7,1.4,8.3,4.1c0.8,1,1.8,3.4,2.9,7.2v10.1h0.2c0.8-0.1,1.2,0.8,1.2,2.7
	c0,3.6-0.6,5.8-1.9,6.6c-0.5,0.2-1,0.2-1.4,0.2l-0.2,0.4c-2.9,7.6-5.2,12-6.9,13.3c2.2,0.3,4.5,0.8,6.6,1.4c1.8,0.5,3.5,1.1,5.2,1.9
	c1.2,0.6,2.8,1.3,4.6,2.2L225.9,205.3z"/>
<path class="st3" d="M372.7,205.3c2.4,1,4.6,2.3,6.5,4c1.6,1.5,2.5,2.6,2.6,3.4l0.2,1.3v7.7h-70.5V214c0-0.5,0.1-0.9,0.2-1.4
	c0.1-0.6,1-1.7,2.6-3.2c1.9-1.7,4.1-3.1,6.5-4.1l4.4-2.3c2.4-1.3,4.8-2.3,7.4-3.2c2.5-0.8,5.1-1.4,7.8-1.8c-0.6-0.4-1.1-1-1.5-1.6
	c-0.5-0.7-1-1.5-1.4-2.4c-0.4-1-0.7-1.8-1-2.4c-0.3-0.6-0.7-1.8-1.4-3.4c-0.6-1.7-1.1-2.8-1.4-3.5l-0.2-0.4
	c-0.6,0.1-1.2,0.1-1.7-0.2c-1.2-0.8-1.9-3-1.9-6.6c0-0.7,0.1-1.4,0.3-2c0.2-0.5,0.4-0.7,0.7-0.7h0.6l-0.2-0.2v-0.4
	c0-5.8,0.1-9,0.2-9.5c1.5-5.2,3.2-7.9,5.2-7.9c0.8,0,1.4-0.6,1.8-1.9c0.3-1.1,1.1-2.1,2.2-2.5c1.2-0.3,2.5-0.3,3.7-0.2
	c1.1,0.1,2.4,0.3,3.7,0.6c1.4,0.3,2.1,0.4,2.3,0.4c2.9,0,5.7,1.4,8.3,4.1c0.8,1,1.8,3.4,2.9,7.2v10.1h0.2c0.8-0.1,1.2,0.8,1.2,2.7
	c0,3.6-0.6,5.8-1.9,6.6c-0.5,0.2-1,0.2-1.5,0.2l-0.2,0.4c-2.9,7.6-5.2,12-6.8,13.3c2.2,0.3,4.5,0.8,6.6,1.4c1.8,0.5,3.5,1.1,5.2,1.9
	c1.2,0.6,2.8,1.3,4.6,2.2L372.7,205.3z"/>
<path class="st4" d="M267.9,57.6h-3.2c-3.1-7.9-9.5-15.8-17.4-19V37c0-6.3-6.3-12.6-12.6-12.6c-2.9,0.1-5.7,1.2-7.9,3.2v19
	c2.2,2,5,3.1,7.9,3.2c4.2,0.1,8.2-1.6,11.1-4.7c6.2,3,11.2,8,14.2,14.2c-3.1,2.8-4.9,6.9-4.7,11.1c0,3.2,1.6,6.3,4.7,9.5
	c-3.1,6.3-7.9,12.6-14.2,15.8c-2.8-3.1-6.8-4.9-11.1-4.7c-3.2,0-6.3,0-7.9,1.6v20.5c2.2,2,5,3.1,7.9,3.2c6.3,0,12.6-6.3,12.6-12.6
	v-1.6c7.9-4.7,14.2-11.1,17.4-18.9h3.2c6.3,0,12.6-6.3,12.6-12.6c0.1-6.9-5.4-12.5-12.3-12.6C268.1,57.6,268,57.6,267.9,57.6"/>
<path class="st4" d="M188.9,93.9c-6.3,4.7-14.2,3.2-20.5,0v-11c3.1,3.2,9.5,7.9,14.2,4.7c3.1-6.3-3.2-11.1-7.9-14.2
	c-9.5-4.7-9.5-20.5,0-26.8c4.7-3.2,11.1-1.6,17.4-1.6v11c-4.7-1.6-11.1-4.7-15.8,0c-1.6,7.9,6.3,9.5,11.1,14.2
	C195.2,74.9,195.2,89.2,188.9,93.9 M146.3,21.2v97.9l74.2,12.6V7L146.3,21.2z"/>
<polyline class="st5" points="140.7,107.9 49.3,107.9 49.3,144.3 "/>
<line class="st5" x1="200" y1="131.8" x2="200" y2="144.4"/>
<path class="st3" d="M284.1,98.8c2.7-3,6.6-4.6,10.6-4.4c3.2,0.1,6.2,1.4,8.5,3.5c3,2.7,4.6,6.6,4.4,10.6c-0.1,3.2-1.4,6.2-3.6,8.5
	c-2.7,3-6.6,4.6-10.6,4.4c-3.2-0.1-6.2-1.4-8.5-3.5c-3-2.7-4.6-6.6-4.4-10.6C280.6,104.1,281.9,101.1,284.1,98.8z M298.2,109.5
	l-0.4-0.4c-0.7-0.7-0.7-1.8,0-2.5l0.4-0.4c0.7-0.7,0.7-1.8,0-2.5l0,0c-0.7-0.7-1.8-0.7-2.5,0l-0.4,0.4c-0.7,0.7-1.8,0.7-2.5,0
	l-0.4-0.4c-0.7-0.7-1.8-0.7-2.5,0l0,0c-0.7,0.7-0.7,1.8,0,2.5l0.4,0.3c0.7,0.7,0.7,1.8,0,2.5l0,0l-0.4,0.3c-0.7,0.7-0.7,1.8,0,2.5
	l0,0l0,0c0.7,0.7,1.8,0.7,2.5,0l0.4-0.4c0.7-0.7,1.8-0.7,2.5,0l0.4,0.4c0.7,0.7,1.8,0.7,2.5,0l0,0
	C298.9,111.3,298.9,110.2,298.2,109.5z"/>
</svg>
