<?xml version="1.0" encoding="utf-8"?>
<!-- Generator: Adobe Illustrator 20.1.0, SVG Export Plug-In . SVG Version: 6.00 Build 0)  -->
<svg version="1.1" id="Layer_1" xmlns="http://www.w3.org/2000/svg" xmlns:xlink="http://www.w3.org/1999/xlink" x="0px" y="0px"
	 viewBox="0 0 844 493" style="enable-background:new 0 0 844 493;" xml:space="preserve">
<style type="text/css">
	.st0{fill:#77797C;}
	.st1{fill:#F26724;}
	.st2{fill:#8FC640;}
	.st3{fill:#2BACE2;}
	.st4{fill:#FFC316;}
	.st5{clip-path:url(#SVGID_2_);}
	.st6{clip-path:url(#SVGID_2_);fill:#3CB44B;}
</style>
<path class="st0" d="M365.2,351.6v78h-13.5v-61.2h-0.2l-24.2,61.2h-9l-24.7-61.2h-0.2v61.2h-12.5v-78h19.5l22.4,57.8h0.4l23.6-57.8
	H365.2z M376.6,357.6c0-2.2,0.7-4,2.3-5.4s3.4-2.2,5.6-2.2c2.3,0,4.3,0.7,5.8,2.3c1.4,1.4,2.3,3.2,2.3,5.4s-0.7,4-2.3,5.4
	c-1.6,1.4-3.4,2.2-5.8,2.2s-4.2-0.7-5.6-2.2C377.3,361.4,376.6,359.6,376.6,357.6z M391.2,373.7v56H378v-56
	C378,373.7,391.2,373.7,391.2,373.7z M431.1,420.1c2,0,4.2-0.5,6.5-1.4c2.3-0.9,4.5-2.2,6.5-3.6v12.3c-2.2,1.3-4.5,2.2-7.2,2.7
	c-2.7,0.5-5.6,0.9-8.8,0.9c-8.3,0-15-2.5-20-7.8c-5.2-5.2-7.8-11.9-7.8-19.9c0-9,2.7-16.4,7.9-22.2s12.6-8.7,22.4-8.7
	c2.5,0,4.9,0.4,7.4,0.9c2.5,0.7,4.5,1.4,6,2.2v12.6c-2-1.4-4.2-2.7-6.1-3.4c-2.2-0.9-4.3-1.3-6.5-1.3c-5.2,0-9.4,1.6-12.6,5.1
	c-3.2,3.4-4.9,7.9-4.9,13.7c0,5.6,1.4,10.1,4.5,13.2C421.7,418.4,425.9,420.1,431.1,420.1z M481.5,372.8c1.1,0,2,0,2.9,0.2
	c0.9,0.2,1.6,0.4,2.2,0.5v13.4c-0.7-0.5-1.6-0.9-3.1-1.4c-1.3-0.5-2.9-0.7-4.9-0.7c-3.2,0-6,1.4-8.1,4.2c-2.2,2.7-3.4,6.9-3.4,12.6
	v28.2h-13.2v-56H467v8.8h0.2c1.3-3.1,3.1-5.4,5.4-7.2C475.1,373.7,478,372.8,481.5,372.8z M487.2,402.6c0-9.2,2.5-16.6,7.8-22
	s12.5-8.1,21.8-8.1c8.7,0,15.5,2.5,20.4,7.8c4.9,5.2,7.4,12.3,7.4,21.1c0,9-2.5,16.2-7.8,21.7c-5.2,5.4-12.3,8.1-21.3,8.1
	c-8.7,0-15.5-2.5-20.6-7.6C489.8,418.3,487.2,411.2,487.2,402.6z M501,402c0,5.8,1.3,10.3,4,13.4c2.7,3.1,6.5,4.7,11.4,4.7
	c4.9,0,8.5-1.6,11-4.7c2.5-3.1,3.8-7.6,3.8-13.7c0-6-1.3-10.5-4-13.5c-2.5-3.1-6.1-4.5-10.8-4.5c-4.9,0-8.5,1.6-11.2,4.9
	C502.2,391.5,501,396.1,501,402z M564.1,388.5c0,1.8,0.5,3.4,1.8,4.5c1.3,1.1,3.8,2.3,7.9,4c5.2,2.2,9,4.5,11,7
	c2.2,2.7,3.2,5.8,3.2,9.6c0,5.2-2,9.6-6.1,12.6c-4,3.2-9.6,4.9-16.4,4.9c-2.3,0-4.9-0.4-7.8-0.9c-2.9-0.5-5.2-1.3-7.2-2.2v-13
	c2.3,1.6,5.1,3.1,7.8,4c2.7,0.9,5.2,1.4,7.6,1.4c2.9,0,5.2-0.4,6.5-1.3c1.4-0.9,2.2-2.2,2.2-4.2c0-1.8-0.7-3.4-2.2-4.5
	c-1.4-1.3-4.3-2.7-8.3-4.3c-4.9-2-8.3-4.3-10.3-6.9c-2-2.5-3.1-5.8-3.1-9.7c0-5.1,2-9.2,6-12.5c4-3.2,9.2-4.9,15.5-4.9
	c2,0,4.2,0.2,6.5,0.7c2.3,0.4,4.5,1.1,6.1,1.6V387c-1.8-1.1-3.8-2.2-6.1-3.1s-4.7-1.3-6.9-1.3c-2.5,0-4.5,0.5-5.8,1.4
	C564.9,385.4,564.1,386.7,564.1,388.5z M593.7,402.6c0-9.2,2.5-16.6,7.8-22c5.2-5.4,12.5-8.1,21.8-8.1c8.7,0,15.5,2.5,20.4,7.8
	c4.9,5.2,7.4,12.3,7.4,21.1c0,9-2.5,16.2-7.8,21.7c-5.2,5.4-12.3,8.1-21.3,8.1c-8.7,0-15.5-2.5-20.6-7.6
	C596.5,418.3,593.7,411.2,593.7,402.6z M607.5,402c0,5.8,1.3,10.3,4,13.4c2.7,3.1,6.5,4.7,11.4,4.7c4.9,0,8.5-1.6,11-4.7
	c2.5-3.1,3.8-7.6,3.8-13.7c0-6-1.3-10.5-4-13.5c-2.5-3.1-6.1-4.5-10.8-4.5c-4.9,0-8.5,1.6-11.2,4.9
	C608.9,391.5,607.5,396.1,607.5,402z M694.8,384.5h-19.7v45.1h-13.4v-45.1h-9.4v-10.8h9.4v-7.8c0-6,2-10.7,5.8-14.4
	c3.8-3.8,8.7-5.6,14.6-5.6c1.6,0,3.1,0,4.3,0.2c1.3,0.2,2.3,0.4,3.2,0.7v11.4c-0.4-0.2-1.3-0.5-2.3-0.9s-2.3-0.5-3.8-0.5
	c-2.7,0-4.9,0.9-6.3,2.5c-1.4,1.8-2.2,4.3-2.2,7.6v6.7h19.7v-12.6l13.2-4v16.6h13.4v10.8H708v26.2c0,3.4,0.5,6,1.8,7.2
	c1.3,1.4,3.2,2.2,6,2.2c0.7,0,1.6-0.2,2.7-0.5c1.1-0.4,2-0.7,2.9-1.3v10.8c-0.9,0.5-2.2,0.9-4.2,1.3c-2,0.4-3.8,0.5-5.8,0.5
	c-5.6,0-9.7-1.4-12.5-4.5c-2.7-2.9-4.2-7.4-4.2-13.4V384.5z"/>
<g>
	<rect x="111.9" y="325.7" class="st1" width="61.7" height="61.7"/>
	<rect x="180.2" y="325.7" class="st2" width="61.7" height="61.7"/>
	<rect x="111.9" y="393.9" class="st3" width="61.7" height="61.7"/>
	<rect x="180.2" y="393.9" class="st4" width="61.7" height="61.7"/>
</g>
<g>
	<polygon points="266.1,53.1 278.7,53.1 278.7,132 314.7,132 314.7,144 266.1,144 266.1,53.1 	"/>
	<path d="M584.4,134.7c-13,0-23.5-10.8-23.5-24.2c0-13.4,10.5-24.2,23.5-24.2c13,0,23.5,10.9,23.5,24.2
		C607.9,123.8,597.4,134.7,584.4,134.7L584.4,134.7z M584.4,75c-19.8,0-35.9,15.9-35.9,35.5s16.1,35.5,35.9,35.5
		c19.8,0,35.9-15.9,35.9-35.5S604.2,75,584.4,75L584.4,75z"/>
	<path d="M438.3,134.7c-13,0-23.5-10.8-23.5-24.2c0-13.4,10.5-24.2,23.5-24.2c13,0,23.5,10.9,23.5,24.2
		C461.9,123.8,451.3,134.7,438.3,134.7L438.3,134.7z M438.3,75c-19.8,0-35.9,15.9-35.9,35.5s16.1,35.5,35.9,35.5
		c19.8,0,35.9-15.9,35.9-35.5S458.2,75,438.3,75L438.3,75z"/>
	<path d="M357.5,134.7c-13,0-23.5-10.8-23.5-24.2c0-13.4,10.5-24.2,23.5-24.2c13,0,23.5,10.9,23.5,24.2
		C381,123.8,370.5,134.7,357.5,134.7L357.5,134.7z M357.5,75c-19.8,0-35.9,15.9-35.9,35.5s16.1,35.5,35.9,35.5
		c19.8,0,35.9-15.9,35.9-35.5S377.3,75,357.5,75L357.5,75z"/>
	<path d="M681.4,76.6v39.3c0,10.4-7.4,18.3-17.5,18.3c-10.1,0-17.4-7.9-17.5-18.3V76.6h-12.9v39.3c0,16.5,11.8,30,30.4,30
		c17.9,0,30.3-13.4,30.4-30V76.6H681.4L681.4,76.6z"/>
	<path d="M740.2,87.9V76.6h-17.5V57.5h-12.9v56.7c0,16.5,11.8,30,30.4,30v-12.5c-10.1,0-17.4-7.1-17.5-17.5V87.9H740.2L740.2,87.9z"
		/>
	<polygon points="501.5,144 501.5,53.1 489,53.1 489,144 501.5,144 	"/>
	<g>
		<defs>
			<rect id="SVGID_1_" x="104.1" y="35.7" width="636.2" height="121.6"/>
		</defs>
		<clipPath id="SVGID_2_">
			<use xlink:href="#SVGID_1_"  style="overflow:visible;"/>
		</clipPath>
		<polygon class="st5" points="547.3,76.5 532.3,76.5 501.5,110.2 532.3,143.9 547.3,143.9 516.5,110.2 547.3,76.5 		"/>
		<path class="st6" d="M211.1,83.6c-14.7-9.5-29.2-13.8-44.7-13.8c0,0,0,0,0,0c0,0,0,0,0,0c-15.5,0-30,4.2-44.7,13.7
			c-1.8-5.7-3.9-14.2-4.2-21.6c14.9-8.1,32.4-12.1,48.9-12.1c0,0,0,0,0,0c0,0,0,0,0,0c16.6,0,34.1,4,49,12.1
			C215,69.4,212.9,77.9,211.1,83.6L211.1,83.6z M196,115c-9-7.4-19.3-10.6-29.6-10.6c0,0,0,0,0,0c0,0,0,0,0,0
			c-10.3,0-20.6,3.1-29.6,10.6c-2.4-3.4-7.4-12.3-10.1-18.4c12-8.9,25.5-12.8,39.7-12.8c0,0,0,0,0,0c0,0,0,0,0,0
			c14.2,0,27.7,3.9,39.7,12.8C203.4,102.8,198.4,111.6,196,115L196,115z M166.3,143.7C166.3,143.7,166.3,143.7,166.3,143.7
			C166.3,143.7,166.3,143.7,166.3,143.7c-7.2-2.9-15.2-10-21.4-17.4c6.2-5.6,13.8-7.8,21.3-7.8c0,0,0,0,0,0c0,0,0,0,0,0
			c7.5,0,15.1,2.2,21.3,7.8C181.4,133.8,173.5,140.8,166.3,143.7L166.3,143.7z M228.4,53.1c-4.9-3.5-29.1-17.4-62-17.4
			c-33,0-57.2,14-62,17.4c-0.7,5.7-0.6,30.4,17.2,61.6c18.9,33.2,39.8,41.3,44.9,42.5c0,0,0,0,0,0h0c5.1-1.2,26-9.3,44.9-42.5
			C228.9,83.5,229.1,58.8,228.4,53.1L228.4,53.1z"/>
	</g>
</g>
</svg>
