<?xml version="1.0" encoding="utf-8"?>
<!-- Generator: Adobe Illustrator 20.0.0, SVG Export Plug-In . SVG Version: 6.00 Build 0)  -->
<svg version="1.1" id="Layer_1" xmlns="http://www.w3.org/2000/svg" xmlns:xlink="http://www.w3.org/1999/xlink" x="0px" y="0px"
	 viewBox="0 0 844 844" style="enable-background:new 0 0 844 844;" xml:space="preserve">
<style type="text/css">
	.st0{fill:#FFFFFF;stroke:#000000;stroke-width:1.5;stroke-miterlimit:10;}
	.st1{fill:#EEF2F4;}
	.st2{fill:none;stroke:#F06470;stroke-width:2;}
	.st3{fill:#F06470;}
	.st4{fill:none;stroke:#00C653;stroke-width:2;stroke-dasharray:10,5;}
	.st5{fill:#00C653;}
	.st6{fill:#231F20;}
	.st7{font-family:'AvenirNext-Regular';}
	.st8{font-size:18px;}
	.st9{font-family:'AvenirNext-Bold';}
	.st10{font-size:16.64px;}
	.st11{fill:#464E52;}
	.st12{fill:#FFFFFF;}
	.st13{font-size:23.77px;}
	.st14{font-size:12px;}
	.st15{fill:#44B549;}
	.st16{font-size:14.26px;}
	.st17{fill:none;stroke:#000000;stroke-width:1.5;stroke-miterlimit:10;}
	.st18{font-size:20px;}
	.st19{fill:#B6C0C4;}
	.st20{fill:none;stroke:#F06470;stroke-width:1.5;}
	.st21{font-size:18.97px;}
	.st22{fill:none;stroke:#000000;stroke-width:0.75;stroke-miterlimit:10;}
	.st23{fill:none;stroke:#030303;stroke-miterlimit:10;}
	.st24{fill:#010101;}
	.st25{fill:#656F74;}
	.st26{fill:none;stroke:#FFFFFF;stroke-width:0.75;stroke-miterlimit:10;}
	.st27{fill:none;stroke:#FFFFFF;stroke-miterlimit:10;}
	.st28{fill:#DAE0E2;}
	.st29{fill:none;stroke:#030303;stroke-width:1.5;stroke-miterlimit:10;}
	.st30{fill:#2A5699;}
	.st31{fill:#207245;}
	.st32{fill:#D24625;}
	.st33{fill:#0071C5;}
</style>
<title>Artboard 1</title>
<path class="st0" d="M671,180l-2.1,19.7l-8.3,6.2c-0.3,0.2-0.5,0.6-0.5,1c0,1.8,1.4,3.3,3.2,3.3c0.1,0,0.3,0,0.4,0h57.3
	c1,0.1,1.9-0.3,2.6-1c0.6-0.6,1-1.5,1-2.4c-0.1-0.4-0.2-0.7-0.5-1l-8.3-6.2l-2-19.7"/>
<path class="st0" d="M599.7,51.1h185c3.3,0,6,2.7,6,6v119c0,3.3-2.7,6-6,6h-185c-3.3,0-6-2.7-6-6v-119
	C593.7,53.8,596.4,51.1,599.7,51.1z"/>
<rect x="602.7" y="61.5" class="st1" width="178.3" height="110.2"/>
<line class="st2" x1="316.8" y1="176" x2="267.5" y2="176"/>
<polygon class="st3" points="310.2,167.8 308.8,169.3 316.1,176 308.8,182.7 310.2,184.2 319,176 "/>
<line class="st2" x1="568.3" y1="176" x2="519" y2="176"/>
<polygon class="st3" points="561.7,167.8 560.3,169.3 567.5,176 560.3,182.7 561.7,184.2 570.5,176 "/>
<line class="st2" x1="541.2" y1="661" x2="572.1" y2="661"/>
<polygon class="st3" points="547.8,669.2 549.2,667.8 541.9,661.1 549.2,654.3 547.8,652.9 539,661.1 "/>
<line class="st2" x1="271.4" y1="661" x2="311" y2="661"/>
<polygon class="st3" points="278,669.2 279.4,667.8 272.2,661.1 279.4,654.3 278,652.9 269.2,661.1 "/>
<line class="st2" x1="108.6" y1="474.5" x2="108.6" y2="538.3"/>
<polygon class="st3" points="100.4,481.1 101.9,482.5 108.6,475.2 115.3,482.5 116.8,481.1 108.6,472.3 "/>
<line class="st2" x1="108.6" y1="299.5" x2="108.6" y2="347.1"/>
<polygon class="st3" points="100.4,306.2 101.9,307.5 108.6,300.3 115.3,307.5 116.8,306.2 108.6,297.4 "/>
<line class="st2" x1="762" y1="345" x2="762" y2="303.4"/>
<polygon class="st3" points="770.2,338.3 768.7,337 762,344.2 755.3,337 753.8,338.3 762,347.1 "/>
<line class="st2" x1="762" y1="536.1" x2="762" y2="467.3"/>
<polygon class="st3" points="770.2,529.5 768.7,528.1 762,535.3 755.3,528.1 753.8,529.5 762,538.3 "/>
<line class="st4" x1="618.1" y1="344" x2="618.1" y2="301.8"/>
<polygon class="st5" points="626.3,308.5 624.8,309.8 618.1,302.6 611.4,309.8 610,308.5 618.1,299.7 "/>
<line class="st4" x1="618.1" y1="467" x2="618.1" y2="536.1"/>
<polygon class="st5" points="610,529.5 611.4,528.1 618.1,535.3 624.8,528.1 626.3,529.5 618.1,538.3 "/>
<text transform="matrix(1 0 0 1 117.12 241.92)" class="st6 st7 st8">Lookout</text>
<text transform="matrix(1 0 0 1 90.73 263.52)" class="st6 st7 st8">Security Cloud</text>
<text transform="matrix(1 0 0 1 338 181.31)" class="st3 st9 st10">Lookout Admin Alert</text>
<text transform="matrix(1 0 0 1 72.89 432.31)" class="st3 st9 st10">Untrusted</text>
<text transform="matrix(1 0 0 1 63.66 452.27)" class="st3 st9 st10">Device Alert</text>
<text transform="matrix(1 0 0 1 60.89 758.92)" class="st6 st7 st8">L</text>
<text transform="matrix(1 0 0 1 69.76 758.92)" class="st6 st7 st8">oo</text>
<text transform="matrix(1 0 0 1 91.76 758.92)" class="st6 st7 st8">k</text>
<text transform="matrix(1 0 0 1 100.6 758.92)" class="st6 st7 st8">out Endpoint</text>
<text transform="matrix(1 0 0 1 207.93 758.92)" class="st6 st7 st8"> </text>
<text transform="matrix(1 0 0 1 212.12 758.92)" class="st6 st7 st8">App</text>
<text transform="matrix(1 0 0 1 659.26 241.92)" class="st6 st7 st8">Lookout</text>
<text transform="matrix(1 0 0 1 629.19 263.52)" class="st6 st7 st8">Admin Console</text>
<path class="st11" d="M108.9,405.8c10.9,0,19.7-8.8,19.7-19.7s-8.8-19.7-19.7-19.7s-19.7,8.8-19.7,19.7l0,0
	C89.2,397,98,405.8,108.9,405.8"/>
<text transform="matrix(1 0 0 1 101.63 393.81)" class="st12 st9 st13">1</text>
<path class="st11" d="M689,405.8c10.9,0,19.7-8.8,19.7-19.7s-8.8-19.7-19.7-19.7c-10.9,0-19.7,8.8-19.7,19.7l0,0
	C669.4,397,678.2,405.8,689,405.8"/>
<text transform="matrix(1 0 0 1 681.81 393.81)" class="st12 st9 st13">3</text>
<path class="st11" d="M419.4,153c10.9,0,19.7-8.8,19.7-19.7c0-10.9-8.8-19.7-19.7-19.7c-10.9,0-19.7,8.8-19.7,19.7v0
	C399.8,144.2,408.6,153,419.4,153"/>
<text transform="matrix(1 0 0 1 412.18 141.01)" class="st12 st9 st13">2</text>
<path class="st11" d="M420.4,621.2c10.9,0,19.7-8.8,19.7-19.7c0-10.9-8.8-19.7-19.7-19.7c-10.9,0-19.7,8.8-19.7,19.7l0,0
	C400.8,612.4,409.6,621.2,420.4,621.2"/>
<text transform="matrix(1 0 0 1 412.18 609.18)" class="st12 st9 st13">4</text>
<text transform="matrix(1 0 0 1 349.28 704.6953)" class="st3 st9 st10">Conditional Access</text>
<text transform="matrix(1 0 0 1 372.71 733.3448)" class="st6 st7 st14">Stop Email Access</text>
<text transform="matrix(1 0 0 1 365.97 751.7449)" class="st6 st7 st14">Lock Managed Apps</text>
<text transform="matrix(1 0 0 1 604.83 422.92)" class="st6 st9 st10">API</text>
<text transform="matrix(1 0 0 1 575.5 442.88)" class="st6 st9 st10">Integration</text>
<text transform="matrix(1 0 0 1 712 422.92)" class="st3 st9 st10">Ale</text>
<text transform="matrix(1 0 0 1 737.75 422.92)" class="st3 st9 st10">r</text>
<text transform="matrix(1 0 0 1 743.63 422.92)" class="st3 st9 st10">t passed</text>
<text transform="matrix(1 0 0 1 725.54 442.88)" class="st3 st9 st10">to Intune</text>
<path class="st0" d="M227.7,133.4c-1.9,0-3.9,0.3-5.7,0.8c0-0.2,0-0.3,0-0.5c0-17-15.3-30.8-34.1-30.8c-5.7,0-11.3,1.3-16.4,3.8
	c-6.2-17.1-24.2-29.4-45.5-29.4c-26.3,0-47.7,18.9-47.9,42.3c-16.4-2.1-31.5,9.5-33.5,26s9.5,31.5,26,33.5c1,0.1,2,0.2,3,0.2
	l154.2-0.2c12.6,0,22.9-10.2,22.9-22.9C250.6,143.7,240.3,133.4,227.7,133.4L227.7,133.4z"/>
<path class="st15" d="M159.3,137.3c-5.1-3.5-11.2-5.3-17.3-5.3l0,0c-6.2,0-12.2,1.9-17.4,5.3c-0.9-2.7-1.4-5.5-1.6-8.4
	c5.8-3.1,12.4-4.7,19-4.7l0,0c6.6,0,13.2,1.6,19,4.7C160.8,131.8,160.2,134.6,159.3,137.3 M153.5,149.5c-3.2-2.7-7.3-4.1-11.5-4.1
	l0,0c-4.2,0-8.3,1.4-11.5,4.1c-1.5-2.3-2.8-4.7-3.9-7.1c4.4-3.3,9.9-5.1,15.4-5l0,0c5.5-0.1,11,1.7,15.4,5
	C156.3,144.9,155,147.2,153.5,149.5 M142,160.7L142,160.7c-2.8-1.1-5.9-3.9-8.3-6.8c2.3-2,5.2-3.1,8.3-3l0,0c3-0.1,6,1,8.2,3
	C147.8,156.8,144.8,159.5,142,160.7 M166.1,125.5c-14.8-9-33.4-9-48.2,0c-0.3,2.2-0.2,11.8,6.7,23.9c7.3,12.9,15.4,16,17.4,16.5l0,0
	c2-0.5,10.1-3.6,17.4-16.5C166.2,137.3,166.3,127.7,166.1,125.5"/>
<path class="st12" d="M783,80.1c-0.1-0.7-0.7-1.2-1.4-1.2"/>
<rect x="603.1" y="142" class="st3" width="178.3" height="29.7"/>
<text transform="matrix(1 0 0 1 646.44 159.99)" class="st12 st9 st16">Risk Detected</text>
<text transform="matrix(1 0 0 1 630.63 758.92)" class="st6 st7 st8">Intune Console</text>
<rect x="603.1" y="61.5" class="st17" width="178.3" height="110.2"/>
<polygon class="st3" points="108.4,588 94.4,616 122.4,616 "/>
<text transform="matrix(1 0 0 1 105.15 612.69)" class="st12 st7 st18">!</text>
<path class="st19" d="M86.8,623h5.9c1.1,0,2,0.9,2,2v6.1c0,1.1-0.9,2-2,2h-5.9c-1.1,0-2-0.9-2-2V625C84.8,623.9,85.7,623,86.8,623z"
	/>
<path class="st19" d="M99.5,623h5.9c1.1,0,2,0.9,2,2v6.1c0,1.1-0.9,2-2,2h-5.9c-1.1,0-2-0.9-2-2V625C97.5,623.9,98.4,623,99.5,623z"
	/>
<path class="st19" d="M111.8,623h5.9c1.1,0,2,0.9,2,2v6.1c0,1.1-0.9,2-2,2h-5.9c-1.1,0-2-0.9-2-2V625
	C109.8,623.9,110.7,623,111.8,623z"/>
<path class="st19" d="M124.1,623h5.9c1.1,0,2,0.9,2,2v6.1c0,1.1-0.9,2-2,2h-5.9c-1.1,0-2-0.9-2-2V625C122.1,623.9,123,623,124.1,623
	z"/>
<path class="st19" d="M86.8,636.9h5.9c1.1,0,2,0.9,2,2v6.1c0,1.1-0.9,2-2,2h-5.9c-1.1,0-2-0.9-2-2v-6.1
	C84.8,637.8,85.7,636.9,86.8,636.9z"/>
<path class="st19" d="M99.5,636.9h5.9c1.1,0,2,0.9,2,2v6.1c0,1.1-0.9,2-2,2h-5.9c-1.1,0-2-0.9-2-2v-6.1
	C97.5,637.8,98.4,636.9,99.5,636.9z"/>
<path class="st19" d="M111.8,636.9h5.9c1.1,0,2,0.9,2,2v6.1c0,1.1-0.9,2-2,2h-5.9c-1.1,0-2-0.9-2-2v-6.1
	C109.8,637.8,110.7,636.9,111.8,636.9z"/>
<path class="st19" d="M124.1,636.9h5.9c1.1,0,2,0.9,2,2v6.1c0,1.1-0.9,2-2,2h-5.9c-1.1,0-2-0.9-2-2v-6.1
	C122.1,637.8,123,636.9,124.1,636.9z"/>
<path class="st3" d="M208.4,634.4h5.9c1.1,0,2,0.9,2,2v6.1c0,1.1-0.9,2-2,2h-5.9c-1.1,0-2-0.9-2-2v-6.1
	C206.4,635.3,207.2,634.4,208.4,634.4z"/>
<path class="st3" d="M220.7,634.4h5.9c1.1,0,2,0.9,2,2v6.1c0,1.1-0.9,2-2,2h-5.9c-1.1,0-2-0.9-2-2v-6.1
	C218.7,635.3,219.6,634.4,220.7,634.4z"/>
<path class="st3" d="M208.4,648.3h5.9c1.1,0,2,0.9,2,2v6.1c0,1.1-0.9,2-2,2h-5.9c-1.1,0-2-0.9-2-2v-6.1
	C206.4,649.2,207.2,648.3,208.4,648.3z"/>
<path class="st3" d="M220.7,648.3h5.9c1.1,0,2,0.9,2,2v6.1c0,1.1-0.9,2-2,2h-5.9c-1.1,0-2-0.9-2-2v-6.1
	C218.7,649.2,219.6,648.3,220.7,648.3z"/>
<path class="st19" d="M183.4,668.5h5.9c1.1,0,2,0.9,2,2v6.1c0,1.1-0.9,2-2,2h-5.9c-1.1,0-2-0.9-2-2v-6.1
	C181.4,669.4,182.3,668.5,183.4,668.5z"/>
<path class="st19" d="M196,668.5h5.9c1.1,0,2,0.9,2,2v6.1c0,1.1-0.9,2-2,2H196c-1.1,0-2-0.9-2-2v-6.1
	C194,669.4,194.9,668.5,196,668.5z"/>
<path class="st19" d="M208.4,668.5h5.9c1.1,0,2,0.9,2,2v6.1c0,1.1-0.9,2-2,2h-5.9c-1.1,0-2-0.9-2-2v-6.1
	C206.4,669.4,207.2,668.5,208.4,668.5z"/>
<path class="st19" d="M220.7,668.5h5.9c1.1,0,2,0.9,2,2v6.1c0,1.1-0.9,2-2,2h-5.9c-1.1,0-2-0.9-2-2v-6.1
	C218.7,669.4,219.6,668.5,220.7,668.5z"/>
<path class="st19" d="M183.4,682.3h5.9c1.1,0,2,0.9,2,2v6.1c0,1.1-0.9,2-2,2h-5.9c-1.1,0-2-0.9-2-2v-6.1
	C181.4,683.2,182.3,682.3,183.4,682.3z"/>
<path class="st19" d="M196,682.3h5.9c1.1,0,2,0.9,2,2v6.1c0,1.1-0.9,2-2,2H196c-1.1,0-2-0.9-2-2v-6.1
	C194,683.2,194.9,682.3,196,682.3z"/>
<path class="st19" d="M208.4,682.3h5.9c1.1,0,2,0.9,2,2v6.1c0,1.1-0.9,2-2,2h-5.9c-1.1,0-2-0.9-2-2v-6.1
	C206.4,683.2,207.2,682.3,208.4,682.3z"/>
<path class="st19" d="M220.7,682.3h5.9c1.1,0,2,0.9,2,2v6.1c0,1.1-0.9,2-2,2h-5.9c-1.1,0-2-0.9-2-2v-6.1
	C218.7,683.2,219.6,682.3,220.7,682.3z"/>
<path class="st3" d="M199.9,644.3h2.3v12.8h-17.1v-12.8h2.2v-3.7c0-3.4,2.7-6.2,6.1-6.2c0,0,0.1,0,0.1,0h0.2c3.4,0,6.2,2.7,6.2,6.1
	c0,0,0,0.1,0,0.1L199.9,644.3z M190.4,640.5v3.7h6.4v-3.7c0-1.7-1.3-3.1-3-3.1c0,0,0,0-0.1,0h-0.2c-0.8,0-1.6,0.3-2.2,0.9
	C190.7,638.9,190.4,639.7,190.4,640.5z"/>
<rect x="175.7" y="627.1" class="st20" width="58.7" height="37.3"/>
<polygon class="st3" points="692.4,86.4 679.2,113 705.7,113 "/>
<text transform="matrix(1 0 0 1 689.58 109.79)" class="st12 st7 st21">!</text>
<circle class="st22" cx="691.9" cy="126.7" r="2"/>
<path class="st23" d="M709.5,75c0-1.4-1.1-2.5-2.5-2.5h-31c-1.4,0-2.5,1.1-2.5,2.5v56c0,1.4,1.1,2.5,2.5,2.5h31
	c1.4,0,2.5-1.1,2.5-2.5V75z"/>
<circle class="st24" cx="686.5" cy="75.9" r="0.7"/>
<path class="st24" d="M690,75.4h10.3c0.4,0,0.7,0.3,0.7,0.7v0c0,0.4-0.3,0.7-0.7,0.7H690c-0.4,0-0.7-0.3-0.7-0.7v0
	C689.4,75.7,689.7,75.4,690,75.4z"/>
<line class="st23" x1="674.1" y1="79.8" x2="710.1" y2="79.8"/>
<line class="st23" x1="674.1" y1="120.2" x2="710.1" y2="120.2"/>
<path class="st0" d="M670,697l-2.1,19.7l-8.3,6.2c-0.3,0.2-0.5,0.6-0.5,1c0,1.8,1.4,3.3,3.2,3.3c0.1,0,0.3,0,0.4,0h57.3
	c1,0.1,1.9-0.3,2.6-1c0.6-0.6,1-1.5,1-2.4c-0.1-0.4-0.2-0.7-0.5-1l-8.3-6.2l-2-19.7"/>
<path class="st0" d="M598.7,567.2h185c3.3,0,6,2.7,6,6v119c0,3.3-2.7,6-6,6h-185c-3.3,0-6-2.7-6-6v-119
	C592.7,569.9,595.4,567.2,598.7,567.2z"/>
<rect x="602.1" y="577.6" class="st1" width="178.3" height="110.2"/>
<rect x="602.1" y="577.6" class="st25" width="178.3" height="110.2"/>
<path class="st12" d="M782,597.1c-0.1-0.7-0.7-1.2-1.4-1.2"/>
<rect x="602.1" y="657.2" class="st3" width="178.3" height="29.7"/>
<text transform="matrix(1 0 0 1 645.44 676.99)" class="st12 st9 st16">Risk Detected</text>
<rect x="602.1" y="577.6" class="st17" width="178.3" height="110.2"/>
<polygon class="st3" points="691.4,601.4 678.2,628 704.7,628 "/>
<text transform="matrix(1 0 0 1 688.2 624.79)" class="st12 st7 st21">!</text>
<circle class="st26" cx="691.5" cy="641.4" r="2"/>
<path class="st27" d="M709.5,590c0-1.4-1.1-2.5-2.5-2.5h-31c-1.4,0-2.5,1.1-2.5,2.5v56c0,1.4,1.1,2.5,2.5,2.5h31
	c1.4,0,2.5-1.1,2.5-2.5V590z"/>
<circle class="st12" cx="684.7" cy="590.9" r="0.7"/>
<path class="st12" d="M688.2,590.4h10.3c0.4,0,0.7,0.3,0.7,0.7v0c0,0.4-0.3,0.7-0.7,0.7h-10.3c-0.4,0-0.7-0.3-0.7-0.7v0
	C687.5,590.7,687.8,590.4,688.2,590.4z"/>
<line class="st27" x1="673.8" y1="594.8" x2="709.8" y2="594.8"/>
<line class="st27" x1="673.8" y1="635.2" x2="709.8" y2="635.2"/>
<rect x="721.2" y="594.8" class="st28" width="48" height="3.1"/>
<rect x="721.2" y="603.4" class="st28" width="48" height="3.1"/>
<rect x="721.2" y="611.5" class="st28" width="48" height="3.1"/>
<line class="st29" x1="72.4" y1="576" x2="144.4" y2="576"/>
<circle class="st17" cx="108.4" cy="670.4" r="3.9"/>
<circle class="st24" cx="94.7" cy="568.3" r="1.4"/>
<path class="st24" d="M101.7,567.3h20.5c0.7,0,1.3,0.6,1.3,1.3v0c0,0.7-0.6,1.3-1.3,1.3h-20.5c-0.7,0-1.3-0.6-1.3-1.3v0
	C100.4,567.9,101,567.3,101.7,567.3z"/>
<line class="st29" x1="72.4" y1="658.4" x2="144.4" y2="658.4"/>
<path class="st29" d="M77.4,561h62c2.8,0,5,2.2,5,5v111c0,2.8-2.2,5-5,5h-62c-2.8,0-5-2.2-5-5V566C72.4,563.2,74.7,561,77.4,561z"/>
<line class="st29" x1="168" y1="618.5" x2="240" y2="618.5"/>
<circle class="st17" cx="204" cy="712.9" r="3.9"/>
<circle class="st24" cx="190.2" cy="610.8" r="1.4"/>
<path class="st24" d="M197.2,609.8h20.5c0.7,0,1.4,0.6,1.4,1.3v0c0,0.7-0.6,1.3-1.4,1.3h-20.5c-0.7,0-1.4-0.6-1.4-1.3v0
	C195.9,610.4,196.5,609.8,197.2,609.8z"/>
<line class="st29" x1="168" y1="700.9" x2="240" y2="700.9"/>
<path class="st29" d="M173,603.5h62c2.8,0,5,2.2,5,5v111c0,2.8-2.2,5-5,5h-62c-2.8,0-5-2.2-5-5v-111
	C168,605.7,170.2,603.5,173,603.5z"/>
<g id="word">
	<path class="st30" d="M374.3,646.2h2.1c0,0.9,0,1.8,0,2.8c3.7,0,7.4,0,11.1,0c0.8-0.1,1.4,0.5,1.3,1.3c0.1,6.8,0,13.6,0,20.4
		c0,0.7,0.1,1.5-0.3,2.1c-0.5,0.4-1.2,0.3-1.7,0.3c-3.5,0-6.9,0-10.4,0c0,0.9,0,1.8,0,2.8h-2.2c-5.3-1-10.5-1.8-15.8-2.8
		c0-8.1,0-16.1,0-24.2C363.7,648.1,369,647.2,374.3,646.2z"/>
	<path class="st12" d="M376.3,650c3.8,0,7.6,0,11.4,0c0,7.4,0,14.7,0,22.1c-3.8,0-7.6,0-11.4,0c0-0.9,0-1.8,0-2.8c3,0,6,0,9,0
		c0-0.5,0-0.9,0-1.4c-3,0-6,0-9,0c0-0.6,0-1.2,0-1.7c3,0,6,0,9,0c0-0.5,0-0.9,0-1.4c-3,0-6,0-9,0c0-0.6,0-1.2,0-1.7c3,0,6,0,9,0
		c0-0.5,0-0.9,0-1.4c-3,0-6,0-9,0c0-0.6,0-1.2,0-1.7c3,0,6,0,9,0c0-0.5,0-0.9,0-1.4c-3,0-6,0-9,0c0-0.6,0-1.2,0-1.7c3,0,6,0,9,0
		c0-0.5,0-0.9,0-1.4c-3,0-6,0-9,0c0-0.6,0-1.2,0-1.7c3,0,6,0,9,0c0-0.5,0-0.9,0-1.4c-3,0-6,0-9,0C376.3,651.6,376.3,650.8,376.3,650
		z"/>
	<path class="st12" d="M365.5,656.1c0.7,0,1.3-0.1,2-0.1c0.5,2.3,0.9,4.7,1.4,7c0.4-2.4,0.8-4.8,1.2-7.2c0.7,0,1.4-0.1,2.1-0.1
		c-0.8,3.3-1.5,6.7-2.3,10c-0.6,0.3-1.4,0-2.1,0c-0.5-2.3-1-4.6-1.4-6.9c-0.4,2.2-0.9,4.4-1.4,6.7c-0.7,0-1.3-0.1-2-0.1
		c-0.6-3-1.2-6.1-1.8-9.1c0.6,0,1.2-0.1,1.8-0.1c0.4,2.2,0.8,4.4,1.1,6.6C364.5,660.6,365,658.4,365.5,656.1z"/>
</g>
<g id="excel">
	<path class="st31" d="M408.8,646.2h2.1c0,0.9,0,1.8,0,2.8c3.5,0,6.9,0,10.4,0c0.6,0,1.2,0,1.7,0.3c0.4,0.5,0.3,1.2,0.3,1.7
		c0,6,0,12,0,18c0,1,0.1,2-0.1,3c-0.1,0.7-1,0.7-1.6,0.8c-3.6,0-7.2,0-10.7,0c0,1,0,2.1,0,3.1h-2.1c-5.3-1-10.5-1.8-15.8-2.8
		c0-8.1,0-16.1,0-24.2C398.2,648.1,403.5,647.1,408.8,646.2z"/>
	<path class="st12" d="M410.9,650c3.8,0,7.6,0,11.4,0c0,7.3,0,14.5,0,21.8c-3.8,0-7.6,0-11.4,0c0-0.7,0-1.4,0-2.1c0.9,0,1.8,0,2.8,0
		c0-0.8,0-1.6,0-2.4c-0.9,0-1.8,0-2.8,0c0-0.5,0-0.9,0-1.4c0.9,0,1.8,0,2.8,0c0-0.8,0-1.6,0-2.4c-0.9,0-1.8,0-2.8,0
		c0-0.5,0-0.9,0-1.4c0.9,0,1.8,0,2.8,0c0-0.8,0-1.6,0-2.4c-0.9,0-1.8,0-2.8,0c0-0.5,0-0.9,0-1.4c0.9,0,1.8,0,2.8,0
		c0-0.8,0-1.6,0-2.4c-0.9,0-1.8,0-2.8,0c0-0.5,0-0.9,0-1.4c0.9,0,1.8,0,2.8,0c0-0.8,0-1.6,0-2.4c-0.9,0-1.8,0-2.8,0
		C410.9,651.4,410.9,650.7,410.9,650z"/>
	<path class="st31" d="M415,652.1c1.6,0,3.2,0,4.8,0c0,0.8,0,1.6,0,2.4c-1.6,0-3.2,0-4.8,0C415,653.7,415,652.9,415,652.1z"/>
	<path class="st12" d="M403.2,655.3c0.8-0.1,1.6-0.1,2.3-0.1c-0.9,1.9-1.8,3.8-2.8,5.7c1,1.9,1.9,3.9,2.9,5.8
		c-0.8,0-1.7-0.1-2.5-0.2c-0.6-1.4-1.3-2.8-1.7-4.3c-0.5,1.4-1.1,2.7-1.7,4.1c-0.8,0-1.5,0-2.3-0.1c0.9-1.7,1.7-3.5,2.7-5.2
		c-0.8-1.8-1.6-3.5-2.4-5.3c0.8,0,1.5-0.1,2.3-0.1c0.5,1.4,1.1,2.7,1.5,4.1C401.9,658.1,402.6,656.7,403.2,655.3z"/>
	<path class="st31" d="M415,655.9c1.6,0,3.2,0,4.8,0c0,0.8,0,1.6,0,2.4c-1.6,0-3.2,0-4.8,0C415,657.5,415,656.7,415,655.9z"/>
	<path class="st31" d="M415,659.7c1.6,0,3.2,0,4.8,0c0,0.8,0,1.6,0,2.4c-1.6,0-3.2,0-4.8,0C415,661.3,415,660.5,415,659.7z"/>
	<path class="st31" d="M415,663.5c1.6,0,3.2,0,4.8,0c0,0.8,0,1.6,0,2.4c-1.6,0-3.2,0-4.8,0C415,665.1,415,664.3,415,663.5z"/>
	<path class="st31" d="M415,667.3c1.6,0,3.2,0,4.8,0c0,0.8,0,1.6,0,2.4c-1.6,0-3.2,0-4.8,0C415,668.9,415,668.1,415,667.3z"/>
</g>
<g id="powerpoint">
	<path class="st32" d="M444.2,646.2h2c0,1,0,2.1,0,3.1c3.7,0,7.4,0,11.1,0c0.8-0.1,1.4,0.5,1.3,1.3c0.1,6.5,0,12.9,0,19.4
		c0,0.7,0.1,1.5-0.3,2.1c-0.5,0.4-1.2,0.3-1.8,0.3c-3.5,0-6.9,0-10.4,0c0,1.2,0,2.3,0,3.5H444c-5.3-1-10.5-1.8-15.8-2.8
		c0-8.1,0-16.1,0-24.2C433.5,648.1,438.8,647.1,444.2,646.2z"/>
	<path class="st12" d="M446.1,650.4c3.8,0,7.6,0,11.4,0c0,7,0,14,0,21.1c-3.8,0-7.6,0-11.4,0c0-0.9,0-1.8,0-2.8c2.8,0,5.5,0,8.3,0
		c0-0.5,0-0.9,0-1.4c-2.8,0-5.5,0-8.3,0c0-0.6,0-1.2,0-1.7c2.8,0,5.5,0,8.3,0c0-0.5,0-0.9,0-1.4c-2.8,0-5.5,0-8.3,0c0-0.7,0-1.4,0-2
		c1.4,0.4,2.9,0.4,4.1-0.4c1.3-0.8,2-2.3,2.1-3.8c-1.5,0-3,0-4.5,0c0-1.5,0-3,0-4.5c-0.6,0.1-1.1,0.2-1.7,0.3
		C446.1,652.6,446.1,651.5,446.1,650.4z"/>
	<path class="st32" d="M448.5,652.7c2.4,0.1,4.4,2.1,4.5,4.5c-1.5,0-3,0-4.5,0C448.5,655.7,448.5,654.2,448.5,652.7z"/>
	<path class="st12" d="M433.7,655.3c1.9,0.1,4.1-0.7,5.7,0.7c1.5,1.8,1.1,5.1-1.1,6.2c-0.8,0.4-1.7,0.3-2.5,0.3c0,1.4,0,2.7,0,4.1
		c-0.7-0.1-1.4-0.1-2.1-0.2C433.7,662.7,433.7,659,433.7,655.3z"/>
	<path class="st32" d="M435.7,657.2c0.7,0,1.5-0.2,2,0.5c0.4,0.7,0.4,1.6,0,2.3c-0.4,0.7-1.3,0.6-2,0.7
		C435.7,659.5,435.7,658.4,435.7,657.2z"/>
</g>
<g id="outlook">
	<path class="st33" d="M479.3,646.2h2.1c0,2.3,0,4.6,0,6.9c3.6,0,7.2,0,10.7,0c0.7,0,1.7,0.2,1.7,1.1c0.1,4.4,0,8.7,0.1,13.1
		c0,0.8,0,2-1.1,2c-3.8,0.1-7.6,0-11.4,0.1c0,2.2,0,4.4,0,6.6h-2.1c-5.3-1-10.5-1.8-15.8-2.8c0-8.1,0-16.1,0-24.2
		C468.7,648,474,647.2,479.3,646.2z"/>
	<path class="st12" d="M481.3,654.2c3.8,0,7.7,0,11.5,0c-0.1,0.5-0.2,0.9-0.6,1.2c-2.3,2.1-4.6,4.3-6.8,6.4
		c-1.4-1.2-2.7-2.5-4.1-3.8C481.3,656.7,481.3,655.4,481.3,654.2z"/>
	<path class="st12" d="M470.8,655.4c1.9-0.7,4.2,0.3,5,2.2c1.1,2.6,1,6.1-1.3,8.1c-2.1,1.8-5.5,0.8-6.5-1.7
		C466.9,661,467.5,656.6,470.8,655.4z"/>
	<path class="st12" d="M486.5,662.1c2.1-2,4.2-3.9,6.3-5.9c0,4,0,8.1,0,12.1c-3.8,0-7.6,0-11.4,0c0-3,0-6,0-9
		c1.3,1.1,2.4,2.4,3.8,3.5C485.7,662.9,486.1,662.4,486.5,662.1z"/>
	<path class="st33" d="M471.1,657.5c0.9-0.4,2.1,0,2.5,0.9c0.7,1.4,0.7,3,0.2,4.5c-0.3,1-1.4,1.9-2.5,1.5c-1.4-0.4-1.8-2-1.8-3.3
		C469.5,659.8,469.8,658.1,471.1,657.5z"/>
</g>
</svg>
