<?xml version="1.0" encoding="utf-8"?>
<!-- Generator: Adobe Illustrator 19.2.1, SVG Export Plug-In . SVG Version: 6.00 Build 0)  -->
<svg version="1.1" id="Layer_1" xmlns="http://www.w3.org/2000/svg" xmlns:xlink="http://www.w3.org/1999/xlink" x="0px" y="0px"
	 viewBox="0 0 32 32" style="enable-background:new 0 0 32 32;" xml:space="preserve">
<style type="text/css">
	.st0{fill:#00C653;}
</style>
<g>
	<g>
		<path class="st0" d="M30.8,5.7C29.6,4.9,23.8,1.5,16,1.5C8.2,1.5,2.4,4.9,1.2,5.7C1.1,7,1.1,12.9,5.3,20.3
			c4.5,7.9,9.5,9.8,10.7,10.1h0h0c1.2-0.3,6.2-2.2,10.7-10.1C30.9,12.9,30.9,7,30.8,5.7 M16,27.3C16,27.3,16,27.3,16,27.3
			C16,27.3,16,27.3,16,27.3c-1.7-0.7-3.6-2.4-5.1-4.1c1.5-1.3,3.3-1.8,5.1-1.8h0h0c1.8,0,3.6,0.5,5.1,1.8
			C19.6,24.9,17.7,26.6,16,27.3 M23.1,20.4c-2.1-1.8-4.6-2.5-7-2.5h0h0c-2.5,0-4.9,0.7-7,2.5c-0.6-0.8-1.8-2.9-2.4-4.4
			c2.9-2.1,6.1-3,9.4-3h0h0c3.4,0,6.6,0.9,9.4,3.1C24.8,17.5,23.6,19.6,23.1,20.4 M26.6,12.9c-3.5-2.3-6.9-3.3-10.6-3.3h0h0
			c-3.7,0-7.1,1-10.6,3.3c-0.4-1.4-0.9-3.4-1-5.1C7.9,5.9,12,4.9,16,4.9h0h0c3.9,0,8.1,0.9,11.6,2.9C27.6,9.6,27.1,11.6,26.6,12.9"
			/>
	</g>
</g>
</svg>
