<?xml version="1.0" encoding="utf-8"?>
<!-- Generator: Adobe Illustrator 19.2.1, SVG Export Plug-In . SVG Version: 6.00 Build 0)  -->
<svg version="1.1" id="Layer_1" xmlns="http://www.w3.org/2000/svg" xmlns:xlink="http://www.w3.org/1999/xlink" x="0px" y="0px"
	 viewBox="0 0 32 32" style="enable-background:new 0 0 32 32;" xml:space="preserve">
<style type="text/css">
	.st0{fill:#00C653;}
</style>
<path class="st0" d="M5.4,5.3C8.3,2.4,11.9,0.9,16,0.9s7.7,1.5,10.6,4.4S31,11.8,31,16s-1.5,7.7-4.4,10.7s-6.5,4.4-10.6,4.4
	s-7.7-1.5-10.7-4.4S1,20.2,1,16S2.4,8.3,5.4,5.3z M8.2,14.9c0.1-1.8,0.3-3.4,0.6-4.7H4.6c-0.7,1.4-1.2,2.9-1.4,4.7H8.2z M3.3,17.1
	c0.2,1.8,0.6,3.3,1.4,4.7h4.1c-0.3-1.3-0.5-2.9-0.6-4.7H3.3z M11.1,4.2c-2,0.9-3.7,2.1-5,3.8h3.3C9.8,6.5,10.3,5.3,11.1,4.2z
	 M6.1,24.1c1.3,1.7,3,2.9,5,3.8c-0.7-1.1-1.3-2.3-1.7-3.8H6.1z M14.9,10.1H11c-0.3,1.3-0.5,2.9-0.6,4.8h4.5V10.1z M10.4,17.1
	c0.1,1.8,0.3,3.4,0.6,4.7h3.9v-4.7H10.4z M14.9,3.4c-1.1,0.6-2,1.7-2.7,3.3l-0.5,1.3h3.3V3.4z M14.9,24.1h-3.3l0.5,1.3
	c0.7,1.6,1.7,2.7,2.7,3.3V24.1z M17.2,7.9h3.3c-0.1-0.2-0.2-0.4-0.3-0.7C20,7,19.9,6.8,19.8,6.7c-0.7-1.6-1.6-2.7-2.7-3.3V7.9z
	 M21.1,10.1h-3.9v4.8h4.5C21.6,13,21.4,11.4,21.1,10.1z M17.2,21.8h3.9c0.3-1.3,0.5-2.9,0.6-4.7h-4.5V21.8z M17.2,28.6
	c1-0.6,1.9-1.7,2.7-3.3c0.1-0.2,0.2-0.4,0.3-0.7c0.1-0.3,0.2-0.5,0.3-0.6h-3.3V28.6z M26,7.9c-1.3-1.6-2.9-2.9-5.1-3.8
	c0.8,1.3,1.4,2.5,1.8,3.8H26z M20.9,27.8c2.1-0.9,3.8-2.2,5.1-3.8h-3.3C22.3,25.3,21.7,26.6,20.9,27.8z M23.9,14.9h4.9
	c-0.2-1.8-0.6-3.3-1.4-4.7h-4.1C23.6,11.5,23.8,13.1,23.9,14.9z M23.9,17.1c-0.1,1.8-0.3,3.4-0.6,4.7h4.1c0.7-1.4,1.2-2.9,1.4-4.7
	H23.9z"/>
</svg>
