<?xml version="1.0" encoding="utf-8"?>
<!-- Generator: Adobe Illustrator 19.2.1, SVG Export Plug-In . SVG Version: 6.00 Build 0)  -->
<svg version="1.1" id="Layer_1" xmlns="http://www.w3.org/2000/svg" xmlns:xlink="http://www.w3.org/1999/xlink" x="0px" y="0px"
	 viewBox="0 0 32 32" style="enable-background:new 0 0 32 32;" xml:space="preserve">
<style type="text/css">
	.st0{fill:#00C653;}
</style>
<g>
	<path class="st0" d="M29.1,6.1c0,3.6-0.3,7.2-1,10.9c-0.1,0.3-0.1,0.7-0.2,1.2s-0.4,1.4-1,2.7c-0.6,1.3-1.2,2.6-2.1,3.7
		c-0.8,1.2-2.1,2.4-3.7,3.7c-1.6,1.3-3.4,2.3-5.5,3c-2.1-0.7-3.9-1.7-5.5-3c-1.6-1.3-2.8-2.6-3.7-3.8c-0.8-1.3-1.5-2.5-2.1-3.7
		s-0.9-2.1-1.1-2.8L3.1,17c-0.7-3.7-1-7.4-1-10.9V4.8l1.7-0.1c1.8,0,3.6-0.3,5.6-1s3.5-1.3,4.5-1.9L15.6,1c3.9,2.4,7.9,3.7,11.9,3.7
		l1.6,0.1V6.1z M25.8,14.9c0.3-3,0.4-5.5,0.4-7.7C21.5,6.9,18,5.9,15.6,4.3C13.2,5.9,9.7,6.9,5.1,7.2c0,2.1,0.1,4.7,0.4,7.7
		c0.3,3.7,1.6,6.7,3.9,8.9s4.3,3.7,6.3,4.3c1.9-0.6,4-2,6.3-4.3S25.4,18.6,25.8,14.9z"/>
	<g id="XMLID_3_">
		<g>
			<path class="st0" d="M22.6,10c0,1.4-0.1,3.1-0.3,5.1c-0.2,2.5-1.1,4.4-2.6,5.9c-1.5,1.5-2.9,2.4-4.1,2.8
				c-1.3-0.4-2.7-1.3-4.1-2.8c-1.5-1.5-2.3-3.5-2.6-5.9c-0.2-2-0.3-3.7-0.3-5.1c3.1-0.2,5.4-0.8,7-1.9C17.2,9.2,19.5,9.9,22.6,10z"
				/>
		</g>
		<g>
		</g>
	</g>
</g>
</svg>
