<?xml version="1.0" encoding="utf-8"?>
<!-- Generator: Adobe Illustrator 19.2.1, SVG Export Plug-In . SVG Version: 6.00 Build 0)  -->
<svg version="1.1" id="Layer_1" xmlns="http://www.w3.org/2000/svg" xmlns:xlink="http://www.w3.org/1999/xlink" x="0px" y="0px"
	 viewBox="0 0 32 32" style="enable-background:new 0 0 32 32;" xml:space="preserve">
<style type="text/css">
	.st0{fill:#00C653;}
</style>
<g>
	<path class="st0" d="M15.1,1.4c0.6,0,1.2,0,1.8,0c0.1,0,0.1,0,0.2,0c0.7,0.1,1.5,0.2,2.2,0.3c2,0.4,3.8,1.3,5.5,2.5
		c1.2,0.9,2.3,2,3.2,3.2c1.4,2,2.3,4.1,2.6,6.5c0,0.4,0.1,0.7,0.1,1.1c0,0.6,0,1.2,0,1.8c0,0.1,0,0.2,0,0.3c-0.1,1.5-0.5,3-1.1,4.5
		c-1.1,2.5-2.7,4.6-5,6.3c-2,1.4-4.2,2.3-6.6,2.6c-0.3,0-0.7,0.1-1,0.1c-0.6,0-1.2,0-1.8,0c-0.1,0-0.2,0-0.2,0
		c-0.6-0.1-1.2-0.1-1.8-0.3c-2-0.4-3.9-1.2-5.6-2.5c-1.6-1.2-3-2.6-4-4.3c-1-1.7-1.7-3.6-2-5.6c0-0.3-0.1-0.7-0.1-1
		c0-0.6,0-1.2,0-1.8c0-0.1,0-0.1,0-0.2c0.1-0.7,0.2-1.5,0.3-2.2c0.4-2,1.3-3.8,2.5-5.4c1.2-1.6,2.7-2.9,4.5-4c1.7-1,3.4-1.6,5.3-1.8
		C14.4,1.4,14.7,1.4,15.1,1.4z M3.7,16.3c0.1,6.6,5.6,12.1,12.4,12c6.8-0.1,12.2-5.6,12.2-12.4C28.2,9.1,22.6,3.5,15.6,3.7
		C9.1,3.9,3.6,9.4,3.7,16.3z"/>
	<path class="st0" d="M16.6,16.1c0.4-0.3,0.8-0.5,1.1-0.8c1.4-1,2.9-2,4.3-3c0.1-0.1,0.3-0.2,0.4-0.3c0.4-0.3,0.8-0.2,1.1,0.1
		c0.3,0.4,0.2,0.8-0.2,1.1c-0.5,0.4-1.1,0.8-1.6,1.2c-1.2,0.8-2.4,1.7-3.6,2.5c-0.6,0.4-1.2,0.8-1.8,1.2c-0.5,0.3-1.1,0.1-1.2-0.5
		c0-0.1,0-0.2,0-0.3c0-3.4,0-6.8,0-10.2c0-0.5,0.2-0.8,0.6-0.9c0.4-0.1,0.8,0.2,0.9,0.6c0,0.1,0,0.3,0,0.4c0,2.8,0,5.6,0,8.4
		C16.6,15.8,16.6,15.9,16.6,16.1z"/>
</g>
</svg>
