<?xml version="1.0" encoding="utf-8"?>
<!-- Generator: Adobe Illustrator 19.2.1, SVG Export Plug-In . SVG Version: 6.00 Build 0)  -->
<svg version="1.1" xmlns="http://www.w3.org/2000/svg" xmlns:xlink="http://www.w3.org/1999/xlink" x="0px" y="0px"
	 viewBox="0 0 176 120" style="enable-background:new 0 0 176 120;" xml:space="preserve">
<style type="text/css">
	.st0{fill:#00C653;}
	.st1{fill:#313739;}
	.st2{fill:none;stroke:#313739;stroke-width:2;stroke-linecap:round;stroke-linejoin:round;stroke-miterlimit:10;}
	.st3{fill:none;stroke:#00C653;stroke-width:2;stroke-linecap:round;stroke-linejoin:round;stroke-miterlimit:10;}
	.st4{fill:#FFFFFF;}
	.st5{fill:#47C9C9;}
	.st6{fill:none;stroke:#47C9C9;stroke-width:3;stroke-linecap:round;stroke-linejoin:round;}
</style>
<g id="outlined-icons">
	<g>
		<g>
			<path class="st0" d="M72.508,70.457c-4.047,0-7.34-3.292-7.34-7.34s3.293-7.34,7.34-7.34s7.34,3.292,7.34,7.34
				S76.555,70.457,72.508,70.457z M72.508,57.777c-2.945,0-5.34,2.396-5.34,5.34s2.396,5.34,5.34,5.34c2.944,0,5.34-2.396,5.34-5.34
				S75.452,57.777,72.508,57.777z"/>
			<path class="st0" d="M72.5,81.773c-0.171,0-0.341-0.043-0.495-0.131l-15.5-8.828C56.193,72.636,56,72.305,56,71.945V54.289
				c0-0.359,0.193-0.691,0.505-0.869l15.5-8.828c0.308-0.175,0.683-0.175,0.99,0l15.5,8.828C88.807,53.598,89,53.93,89,54.289
				v17.656c0,0.359-0.193,0.691-0.505,0.869l-15.5,8.828C72.841,81.73,72.671,81.773,72.5,81.773z M58,71.364l14.5,8.258L87,71.364
				V54.87l-14.5-8.258L58,54.87V71.364z"/>
		</g>
		<g>
			<path class="st1" d="M143,105c-0.552,0-1-0.448-1-1v-9H58v9c0,0.552-0.448,1-1,1s-1-0.448-1-1V94c0-0.552,0.448-1,1-1h86
				c0.552,0,1,0.448,1,1v10C144,104.552,143.552,105,143,105z"/>
			<g>
				<path class="st1" d="M143,80h-41c-0.552,0-1-0.448-1-1V47c0-0.552,0.448-1,1-1h41c0.552,0,1,0.448,1,1v32
					C144,79.552,143.552,80,143,80z M103,78h39V48h-39V78z"/>
				<path class="st1" d="M134,59h-23c-0.552,0-1-0.448-1-1s0.448-1,1-1h23c0.552,0,1,0.448,1,1S134.552,59,134,59z"/>
				<path class="st1" d="M126,68h-15c-0.552,0-1-0.448-1-1s0.448-1,1-1h15c0.552,0,1,0.448,1,1S126.552,68,126,68z"/>
			</g>
			<path class="st1" d="M29.498,64.53c-2.136,0-3.874-1.738-3.874-3.874c0-2.136,1.738-3.874,3.874-3.874
				c2.136,0,3.874,1.738,3.874,3.874C33.372,62.792,31.634,64.53,29.498,64.53z M29.498,58.782c-1.033,0-1.874,0.841-1.874,1.874
				s0.84,1.874,1.874,1.874s1.874-0.84,1.874-1.874S30.531,58.782,29.498,58.782z"/>
			<path class="st1" d="M29.63,113.907c-4.888,0-9.731-0.42-14.008-1.214c-1.495-0.278-2.622-1.558-2.622-2.978V54.861
				c0-1.427,1.118-2.708,2.6-2.979c8.575-1.57,19.327-1.54,27.777,0.028C44.872,52.188,46,53.469,46,54.889v54.853
				c0,1.427-1.119,2.708-2.602,2.979C39.163,113.497,34.402,113.907,29.63,113.907z M29.366,52.696
				c-4.652,0-9.288,0.399-13.407,1.153C15.43,53.946,15,54.4,15,54.861v54.854c0,0.449,0.452,0.912,0.987,1.011
				c8.215,1.526,18.712,1.555,27.051,0.028c0.531-0.097,0.962-0.551,0.962-1.012V54.889c0-0.449-0.453-0.913-0.989-1.012
				C38.853,53.104,34.135,52.696,29.366,52.696z"/>
			<path class="st1" d="M29.5,93.279c-0.17,0-0.34-0.043-0.493-0.13l-7.5-4.253C21.193,88.718,21,88.386,21,88.026V79.52
				c0-0.36,0.193-0.692,0.507-0.87l7.5-4.253c0.306-0.173,0.681-0.173,0.986,0l7.5,4.253C37.807,78.828,38,79.16,38,79.52v8.506
				c0,0.36-0.193,0.692-0.507,0.87l-7.5,4.253C29.84,93.235,29.67,93.279,29.5,93.279z M23,87.443l6.5,3.686l6.5-3.686v-7.341
				l-6.5-3.686L23,80.103V87.443z"/>
			<path class="st1" d="M29.498,87.197c-1.9,0-3.446-1.546-3.446-3.446s1.546-3.446,3.446-3.446s3.446,1.546,3.446,3.446
				S31.398,87.197,29.498,87.197z M29.498,82.304c-0.797,0-1.446,0.649-1.446,1.446s0.649,1.446,1.446,1.446
				s1.446-0.649,1.446-1.446S30.295,82.304,29.498,82.304z"/>
			<path class="st1" d="M162,34H37c-0.552,0-1-0.448-1-1s0.448-1,1-1h125c0.552,0,1,0.448,1,1S162.552,34,162,34z"/>
			<path class="st1" d="M86,25H57c-0.552,0-1-0.448-1-1s0.448-1,1-1h29c0.552,0,1,0.448,1,1S86.552,25,86,25z"/>
			<path class="st1" d="M47.301,28.033c-2.09,0-3.791-1.7-3.791-3.791s1.7-3.791,3.791-3.791s3.791,1.701,3.791,3.791
				S49.391,28.033,47.301,28.033z M47.301,22.451c-0.987,0-1.791,0.803-1.791,1.791c0,0.987,0.803,1.791,1.791,1.791
				c0.988,0,1.791-0.803,1.791-1.791C49.092,23.254,48.289,22.451,47.301,22.451z"/>
			<path class="st1" d="M157.298,105H45c-0.552,0-1-0.448-1-1s0.448-1,1-1h112.298c1.795,0,3.702-1.064,3.702-3.037V20.299
				c0-1.819-1.661-3.299-3.702-3.299H41.206C39.318,17,38,18.356,38,20.299V52c0,0.552-0.448,1-1,1s-1-0.448-1-1V20.299
				C36,17.229,38.189,15,41.206,15h116.092c3.144,0,5.702,2.377,5.702,5.299v79.664C163,102.834,160.549,105,157.298,105z"/>
		</g>
	</g>
</g>
<g id="lined-icons">
</g>
<g id="specs">
</g>
</svg>
