<?xml version="1.0" standalone="no"?>
<!DOCTYPE svg PUBLIC "-//W3C//DTD SVG 1.1//EN" "http://www.w3.org/Graphics/SVG/1.1/DTD/svg11.dtd" >
<svg xmlns="http://www.w3.org/2000/svg">
<metadata>
This is a custom SVG font generated by IcoMoon.
<iconset grid="14"></iconset>
</metadata>
<defs>
<font id="icomoon" horiz-adv-x="448" >
<font-face units-per-em="448" ascent="384" descent="-64" />
<missing-glyph horiz-adv-x="448" />
<glyph class="hidden" unicode="&#xf000;" d="M0,384L 448 -64L0 -64 z" horiz-adv-x="0" />
<glyph unicode="&#xe000;" d="M 448,298.942c-16.483-7.31-34.197-12.251-52.789-14.473c 18.975,11.375, 33.55,29.387, 40.413,50.851
	c-17.761-10.534-37.431-18.183-58.367-22.304c-16.765,17.863-40.653,29.024-67.089,29.024c-50.76,0-91.913-41.15-91.913-91.909
	c0-7.204, 0.813-14.219, 2.38-20.947c-76.388,3.834-144.113,40.425-189.445,96.034c-7.912-13.575-12.445-29.363-12.445-46.208
	c0-31.889, 16.226-60.022, 40.889-76.504c-15.067,0.478-29.239,4.612-41.63,11.497c-0.009-0.383-0.009-0.768-0.009-1.156
	c0-44.532, 31.683-81.68, 73.728-90.125c-7.711-2.1-15.832-3.225-24.215-3.225c-5.923,0-11.68,0.578-17.293,1.65
	c 11.697-36.514, 45.64-63.090, 85.86-63.829c-31.456-24.653-71.088-39.346-114.151-39.346c-7.419,0-14.735,0.435-21.926,1.286
	c 40.675-26.079, 88.988-41.297, 140.893-41.297c 169.060,0, 261.51,140.054, 261.51,261.513c0,3.985-0.090,7.948-0.267,11.891
	C 420.096,264.324, 435.678,280.511, 448,298.942z"  />
<glyph unicode="&#xe001;" d="M 223.388,218.997c-33.209,0-57.747-13.073-62.648-16.341c-0.749-5.283-0.502-28.185, 17.361-57.377
		c 18.995-30.826, 40.128-38.494, 45.287-39.503c 5.16,1.007, 26.428,8.676, 45.424,39.503c 17.865,29.193, 17.986,52.095, 17.372,57.377
		C 281.27,205.924, 256.735,218.997, 223.388,218.997z M 223.388,118.235c-7.163,2.753-15.211,9.258-21.501,16.176
		c 6.289,5.282, 13.959,7.255, 21.501,7.255l 0.136,0 c 7.544,0, 15.223-1.972, 21.381-7.255C 238.746,127.494, 230.686,120.987, 223.388,118.235z
		 M 253.465,144.776c-9.055,6.917-19.498,9.572-29.942,9.572L 223.388,154.348 c-10.444,0-20.887-2.655-29.93-9.572
		c-2.394,3.145-7.432,11.435-10.196,17.087c 12.199,8.306, 25.788,11.928, 40.127,11.928l 0.136,0 c 14.338,0, 27.927-3.622, 40.004-11.928
		C 260.886,156.211, 255.86,147.918, 253.465,144.776z M 268.688,174.418c-14.843,8.797-29.561,12.899-45.166,12.899L 223.388,187.317 
		c-15.727,0-30.323-4.102-45.164-12.899c-1.88,5.284-4.030,12.862-4.276,19.793c 14.978,7.545, 32.708,10.861, 49.44,10.861l 0.136,0 
		c 16.734,0, 34.353-3.316, 49.441-10.861C 272.596,187.282, 270.457,179.701, 268.688,174.418zM 305.426,377.529L 135.577,377.529 c-22.645,0-41.039-16.857-41.039-34.993l0-347.526 c0-25.124, 29.465-42.62, 51.986-42.62l 147.955,0 
		c 22.519,0, 51.983,17.496, 51.983,42.62L 346.462,341.897 C 346.462,360.044, 328.068,377.529, 305.426,377.529z M 196.603,340.331l 49.686,0 
		c 2.642,0, 4.904-3.483, 4.904-6.125c0-2.642-2.262-6.556-4.904-6.556l-49.686,0 c-2.777,0-4.914,3.472-4.914,6.101
		C 191.69,336.404, 193.826,340.331, 196.603,340.331z M 145.762-7.606c-5.284,0-9.558,4.153-9.558,9.188
		c0,5.040, 4.274,9.191, 9.558,9.191s 9.559-4.151, 9.559-9.191C 155.321-3.453, 151.047-7.606, 145.762-7.606z M 196.212-7.606
		c-5.284,0-9.56,4.153-9.56,9.188c0,5.040, 4.277,9.191, 9.56,9.191c 5.295,0, 9.57-4.151, 9.57-9.191
		C 205.782-3.453, 201.506-7.606, 196.212-7.606z M 246.67-7.606c-5.284,0-9.558,4.153-9.558,9.188
		c0,5.040, 4.274,9.056, 9.558,9.056s 9.56-4.016, 9.56-9.056C 256.231-3.577, 251.954-7.606, 246.67-7.606z M 297.119-7.606
		c-5.283,0-9.56,4.029-9.56,9.068c0,5.16, 4.277,9.176, 9.56,9.176c 5.282,0, 9.558-4.016, 9.558-9.176
		C 306.677-3.577, 302.403-7.606, 297.119-7.606z M 333.783,43.072c0-6.534-5.457-11.944-12.127-11.944L 119.347,31.128 
		c-6.66,0-12.129,5.409-12.129,11.944L 107.218,302.914 c0,6.548, 5.469,12.057, 12.129,12.057l 202.309,0 c 6.669,0, 12.126-5.509, 12.126-12.057L 333.782,43.072 z"  />
<glyph unicode="&#xe002;" d="M 343.005,219.846L 244.462,219.846L 244.462,369.645L 173.976,369.645L 173.976,219.846L 75.435,219.846L 215.702,53.212 	
		zM 354.685,111.139L 354.685,15.039 L 63.857,15.039 L 63.857,111.139 L 8.461,111.139 l0-130.452 c0-15.917, 12.47-21.045, 27.833-21.045l 345.953,0 
		c 15.364,0, 27.834,12.875, 27.834,28.807L 410.081,111.139 L 354.685,111.139 z"  />
<glyph unicode="&#xe003;" d="M 386.676,265.888L 412.911,375.326L 304.912,348.835L 332.336,321.070L 228.138,215.359L 183.958,260.3L 32.027,106.087L 60.973,76.627L 183.958,201.472L 228.138,156.616L 361.282,291.702 	zM 64.023,46.244L 114.807,46.244L 114.807-55.326L 64.023-55.326zM 148.663,97.027L 207.911,97.027L 207.911-55.326L 148.663-55.326zM 241.769,147.811L 301.018,147.811L 301.018-55.326L 241.769-55.326zM 334.874,198.597L 394.122,198.597L 394.122-55.326L 334.874-55.326z"  />
<glyph unicode="&#xe004;" d="M 222.25,40.044c-12.322,0-22.313,9.732-22.313,21.785c0,11.988, 9.992,21.714, 22.313,21.714
		c 12.322,0, 22.313-9.726, 22.313-21.714C 244.563,49.775, 234.572,40.044, 222.25,40.044z M 222.25,104.731
		c-24.315,0-44.026-19.19-44.026-42.9c0-23.783, 19.711-42.966, 44.026-42.966c 24.316,0, 44.026,19.184, 44.026,42.966
		C 266.276,85.54, 246.566,104.731, 222.25,104.731zM 101.548,61.829c0,0, 114.573,128.229, 241.405,0C 342.952,61.829, 228.378-66.471, 101.548,61.829z M 155.638,261.998
		c0,32.441, 27.114,56.354, 60.419,56.354l 6.324,0.073l-0.599-0.073c 33.305,0, 60.421-26.379, 60.421-58.884l0-68.544 L 155.638,190.924 L 155.638,261.998 z
		 M 342.152,190.923l0,71.074 C 342.152,327.075, 290.723,377.437, 223.915,377.437l-2.263,0 l-5.061-0.066c-66.749,0-120.904-52.755-120.904-117.904
		l0-68.544 L 55.72,190.923 l0-246.466 l 333.061,0 L 388.781,190.923 L 342.152,190.923 z"  />
<glyph unicode="&#xe005;" d="M 290.483,188.445L 159.523,188.445 l0,72.059 c0,32.677, 26.226,59.261, 58.468,59.261l 13.946,0.085l-2.178-0.085
		c 32.236,0, 60.723-26.583, 60.723-59.261L 290.483,188.445 L 290.483,188.445z M 259.382-11.972l-73.106,0 l 17.947,79.904
		c-10.714,6.45-17.947,18.21-17.947,31.809c0,20.474, 16.381,37.034, 36.591,37.034c 20.135,0, 36.515-16.56, 36.515-37.034
		c0-13.598-7.234-25.97-18.032-32.42L 259.382-11.972z M 342.511,188.445l0,71.54 c0,65.532-53.414,119.202-118.070,119.202l-2.18,0 
		l 1.999,0 c-64.655,0-117.023-53.151-117.023-118.683l0-72.059 L 63.669,188.445 l0-243.985 l 322.41,0 l0,243.985 L 342.511,188.445 z"  />
<glyph unicode="&#xe006;" d="M 332.94-56.125L 279.037,176.847c 32.256,18.895, 53.903,52.002, 53.903,92.088C 332.94,329.080, 284.129,377.875, 224,377.875
	c-60.286,0-108.941-48.795-108.941-108.94c0-39.944, 21.349-72.769, 53.309-91.776L 115.059-56.125L 332.94-56.125 z"  />
<glyph unicode="&#xe007;" d="M 166.366-56.313l0,204.662 l-54.163,0 l0,73.629 l 54.163,0 c0,0,0,30.187,0,62.91c0,49.508, 31.943,94.923, 105.571,94.923
		c 29.833,0, 51.907-2.892, 51.907-2.892l-1.796-68.761c0,0-22.461,0.213-47.045,0.213c-26.512,0-30.852-12.271-30.852-32.549
		c0-16.007,0,34.169,0-53.81l 79.978,0 l-3.46-73.629l-76.451,0 l0-204.664 l-77.853,0 l0-0.034 L 166.366-56.313 z"  />
<glyph unicode="&#xe008;" d="M 80.89,236.995L 8.511,236.995L 8.511,88.376L 85.637,88.376L 231.427-59.81L 231.427,379.81L 87.278,237.284 	zM 282.544,250.812l-21.827-43.976l0-1.045 c 13.673-11.451, 22.582-28.678, 22.582-48.157c0-19.622-8.909-36.718-22.582-48.156
		l0-0.144 l 22.148-44.732c 29.114,20.059, 48.444,54.093, 48.444,93.033C 331.311,196.56, 311.833,230.754, 282.544,250.812zM 441.731,157.634c0,82.933-44.297,155.006-109.84,193.063l-21.395-43.396l0-1.044 
		c 49.637-29.87, 83.077-85.312, 83.077-148.622c0-63.454-33.441-118.896-83.077-148.764l0-0.147 l 21.859-44.15
		C 397.581,2.772, 441.731,74.702, 441.731,157.634z"  />
<glyph unicode="&#xe009;" d="M 445.264,259.557L 224,62.875L 2.736,259.557 z"  />
<glyph unicode="&#xe00a;" d="M 409.727,258.11L 442.039,258.11L 442.039-16.551L 409.727-16.551zM 250.643,274.267l-54.274,0 c-8.883,0-16.156,5.821-16.156,15.353c0,9.371, 7.275,16.96, 16.156,16.96l 54.274,0 
		c 8.901,0, 16.158-5.49, 16.158-14.864C 266.801,282.345, 259.544,274.267, 250.643,274.267z M 337.25,258.11
		c-15.195,31.51-34.414,80.783-58.962,80.783L 169.877,338.893 c-22.783,0-47.68-47.019-63.506-80.783L 71.313,258.11 l0-274.662 l 306.972,0 L 378.285,258.11 
		L 337.25,258.11 zM 7.561,258.11L 39.875,258.11L 39.875-16.551L 7.561-16.551z"  />
<glyph unicode="&#xe00b;" d="M 28.052-25.112c-4.719,0-9.293-1.905-12.542-5.442
		c-6.913-7.084-6.913-18.744,0-25.937c 3.249-3.402, 7.823-5.323, 12.542-5.323c 4.71,0, 9.126,1.922, 12.527,5.323
		c 6.921,7.049, 6.921,18.708,0,25.937C 37.177-27.016, 32.761-25.112, 28.052-25.112z M 76.981,25.433
		c-4.709,0-9.149-1.896-12.543-5.289c-6.911-7.228-6.911-18.861,0-25.944c 3.394-3.538, 7.834-5.469, 12.543-5.469
		c 4.702,0, 9.132,1.931, 12.525,5.469c 6.913,7.084, 6.913,18.716,0,25.944C 86.112,23.537, 81.683,25.433, 76.981,25.433z M 126.054,76.158
		c-4.855,0-9.278-1.922-12.678-5.325c-6.777-7.228-6.777-18.85,0-25.935c 3.401-3.547, 7.822-5.441, 12.678-5.441
		c 4.708,0, 9.141,1.894, 12.542,5.296c 3.222,3.538, 5.144,8.112, 5.144,12.986c0,5.009-1.922,9.557-5.144,12.95
		C 135.196,74.234, 130.763,76.158, 126.054,76.158z M 174.982,126.854c-4.71,0-9.133-1.93-12.526-5.468
		c-3.393-3.366-5.152-7.95-5.152-12.96c0-4.864, 1.759-9.439, 5.152-12.985c 3.393-3.368, 7.816-5.288, 12.526-5.288
		c 4.721,0, 9.152,1.92, 12.535,5.288c 3.384,3.546, 5.171,8.121, 5.171,12.985c0,5.009-1.788,9.594-5.171,12.96
		C 184.134,124.924, 179.703,126.854, 174.982,126.854z M 238.802,169.295l-0.577,0.741l-0.442,0.749l-0.297,0.144l-0.888,1.182
		c-3.384,3.538-7.813,5.288-12.677,5.288c-4.72,0-9.125-1.75-12.525-5.288l-0.28-0.307l-0.9-1.018l-0.291-0.461l-0.738-1.029
		l-0.145-0.144c-1.77-2.943-2.796-6.488-2.796-10.026c0-4.865, 1.893-9.575, 5.152-12.96c 3.4-3.394, 7.806-5.324, 12.525-5.324
		c 3.539,0, 7.085,1.038, 9.871,2.97c 1.039,0.722, 1.933,1.462, 2.644,2.355l 0.614,0.578l 0.731,0.748l 0.298,0.433l 0.721,1.038l 0.145,0.289
		c 1.788,2.951, 2.818,6.326, 2.818,9.873c0,3.538-1.029,6.94-2.818,9.727L 238.802,169.295z M 273.005,228.115
		c-4.729,0-9.286-1.913-12.525-5.314c-3.394-3.538-5.155-8.105-5.155-12.968c0-4.865, 1.76-9.566, 5.155-12.968
		c 3.238-3.546, 7.796-5.46, 12.525-5.46c 4.721,0, 9.133,1.915, 12.527,5.46c 6.928,7.084, 6.928,18.707,0,25.937
		C 282.138,226.202, 277.725,228.115, 273.005,228.115z M 321.941,278.822c-4.72,0-9.142-1.932-12.526-5.324
		c-3.39-3.528-5.168-8.095-5.168-12.959c0-5.009, 1.778-9.584, 5.168-12.987c 3.384-3.537, 7.807-5.432, 12.526-5.432
		s 9.287,1.895, 12.519,5.297c 6.946,7.22, 6.946,18.869,0,26.080C 331.229,276.89, 326.66,278.822, 321.941,278.822z M 371.024,329.511
		c-4.729,0-9.293-1.914-12.526-5.45c-6.928-7.067-6.928-18.725,0-25.936c 3.232-3.384, 7.796-5.316, 12.526-5.316
		c 4.72,0, 9.122,1.932, 12.526,5.316c 6.928,7.21, 6.928,18.869,0,25.936C 380.146,327.598, 375.744,329.511, 371.024,329.511z
		 M 419.964,343.507c 4.698,0, 9.122,1.787, 12.515,5.324c 6.929,7.21, 6.929,18.708,0,25.937c-3.248,3.546-7.817,5.298-12.515,5.298
		c-4.721,0-9.16-1.752-12.536-5.298c-3.384-3.392-5.171-8.113-5.171-12.986c0-4.855, 1.788-9.422, 5.171-12.951
		C 410.804,345.439, 415.244,343.507, 419.964,343.507z M 419.964-25.256c-4.866,0-9.305-1.932-12.536-5.298
		c-6.929-7.228-6.929-18.888,0-26.117c 3.231-3.365, 7.671-5.288, 12.536-5.288c 4.698,0, 9.122,1.922, 12.515,5.288
		c 3.249,3.546, 5.161,8.123, 5.161,12.987c0,5.009-1.913,9.592-5.161,12.985C 429.086-27.188, 424.662-25.256, 419.964-25.256z
		 M 370.879,25.433c-4.729,0-9.148-1.896-12.542-5.434c-6.913-7.084-6.913-18.716,0-25.944c 3.394-3.393, 7.814-5.324, 12.542-5.324
		c 4.71,0, 9.267,1.931, 12.525,5.324c 3.394,3.546, 5.29,8.095, 5.29,12.959c0,5.009-1.896,9.584-5.29,12.986
		C 380.146,23.537, 375.589,25.433, 370.879,25.433z M 321.941,76.158c-4.72,0-9.142-1.922-12.526-5.469
		c-3.39-3.393-5.168-7.941-5.168-12.95c0-4.873, 1.778-9.448, 5.168-12.986c 3.384-3.403, 7.807-5.296, 12.526-5.296
		s 9.125,1.894, 12.519,5.296c 6.946,7.229, 6.946,18.852,0,25.936C 331.066,74.234, 326.66,76.158, 321.941,76.158z M 273.005,126.854
		c-4.729,0-9.286-1.93-12.525-5.468c-3.394-3.366-5.306-8.094-5.306-12.96c0-4.864, 1.913-9.439, 5.306-12.985
		c 3.238-3.368, 7.796-5.288, 12.525-5.288c 4.721,0, 9.133,1.92, 12.527,5.288c 6.928,7.228, 6.928,18.887,0,25.944
		C 282.138,124.924, 277.725,126.854, 273.005,126.854z M 174.982,228.115c-4.71,0-9.133-1.913-12.526-5.314
		c-3.393-3.538-5.152-8.105-5.152-12.968c0-4.865, 1.759-9.566, 5.152-12.968c 3.393-3.546, 7.816-5.46, 12.526-5.46
		c 4.721,0, 9.152,1.915, 12.535,5.46c 3.384,3.403, 5.171,8.103, 5.171,12.968c0,4.864-1.788,9.43-5.171,12.968
		C 184.134,226.202, 179.703,228.115, 174.982,228.115z M 126.054,278.822c-4.71,0-9.278-1.932-12.536-5.324
		c-6.919-7.21-6.919-18.861,0-25.945c 3.259-3.537, 7.826-5.432, 12.536-5.432c 4.708,0, 9.141,1.895, 12.542,5.432
		c 6.912,7.085, 6.912,18.735,0,25.945C 135.196,276.89, 130.763,278.822, 126.054,278.822z M 76.981,329.511
		c-4.709,0-9.149-1.914-12.543-5.288c-6.911-7.229-6.911-18.888,0-25.954c 3.394-3.527, 7.834-5.459, 12.543-5.459
		c 4.854,0, 9.278,1.932, 12.67,5.459c 6.767,7.067, 6.767,18.725,0,25.954C 86.257,327.598, 81.834,329.511, 76.981,329.511z M 28.052,380.209
		c-4.719,0-9.148-1.895-12.542-5.297c-3.377-3.537-5.161-8.114-5.161-12.986c0-5, 1.784-9.566, 5.161-12.949
		c 3.394-3.538, 7.823-5.47, 12.542-5.47c 4.71,0, 9.267,1.932, 12.527,5.324c 6.921,7.21, 6.921,18.852,0,26.081
		C 37.318,378.313, 32.761,380.209, 28.052,380.209z"  />
<glyph unicode="&#xe00c;" d="M 97.169,286.054c-11.977-12.158-31.582-12.158-43.726,0
	c-11.992,12.127-12.143,31.582,0,43.71c 12.143,12.159, 31.749,12.159, 43.726,0C 109.312,317.636, 109.312,298.030, 97.169,286.054z
	 M 443.766,129.176L 211.718,361.043c-5.457,5.624-16.49,10.761-24.272,11.368L 62,383.932C 54.218,384.569, 43.169,380.679, 37.712,375.056
	L 9.079,346.421C 3.486,340.829-0.404,329.915, 0.219,322.136l 11.201-125.752c 0.623-7.782, 5.76-18.816, 11.368-24.257l 231.88-232.047
	c 5.608-5.441, 14.636-5.441, 20.229,0l 168.869,168.853C 449.207,114.526, 449.207,123.555, 443.766,129.176z"  />
<glyph unicode="&#xe00d;" d="M 447.991,298.934c-16.462-7.341-34.209-12.258-52.81-14.503c 19.028,11.367, 33.566,29.434, 40.409,50.92
		c-17.746-10.547-37.415-18.173-58.297-22.306c-16.818,17.888-40.693,29.005-67.133,29.005c-50.743,0-91.934-41.121-91.934-91.862
		c0-7.269, 0.821-14.29, 2.424-21.024c-76.398,3.776-144.172,40.408-189.427,95.996c-7.981-13.542-12.471-29.362-12.471-46.181
		c0-31.927, 16.247-60.042, 40.906-76.47c-15.038,0.428-29.291,4.561-41.654,11.474c0-0.392,0-0.784,0-1.14
		c0-44.613, 31.713-81.743, 73.726-90.152c-7.697-2.067-15.822-3.207-24.231-3.207c-5.915,0-11.652,0.605-17.245,1.639
		c 11.687-36.559, 45.609-63.071, 85.804-63.856c-31.394-24.587-71.017-39.339-114.17-39.339c-7.34,0-14.644,0.463-21.879,1.284
		c 40.695-26.085, 89.013-41.263, 140.893-41.263c 169.046,0, 261.478,140.038, 261.478,261.477c0,3.991-0.072,7.982-0.285,11.902
		C 420.054,264.298, 435.661,280.477, 447.991,298.934z"  />
<glyph unicode="&#xe00e;" d="M 377.5,328.465l-20.932-20.92c 69.177-77.313, 69.118-195.143, 0.030-273.025l 21.412-21.401
		C 458.099,96.331, 457.936,245.545, 377.5,328.465zM 328.593,279.57l-21.618-21.612c 42.164-49.978, 42.186-123.642, 0.205-174.001l 21.437-21.453
		C 382.391,124.879, 382.455,217.723, 328.593,279.57zM 89.107,307.545L 68.175,328.465C-12.268,245.545-12.425,96.331, 67.659,13.118l 21.412,21.401
		C 19.978,112.402, 19.919,230.232, 89.107,307.545zM 117.076,279.57c-53.868-61.848-53.792-154.691-0.024-217.066l 21.442,21.453c-41.982,50.359-41.969,124.023, 0.193,174.001
		L 117.076,279.57zM 222.726,239.862c-38.326,0-69.388-31.073-69.388-69.393c0-38.314, 31.062-69.399, 69.388-69.399
		c 38.325,0, 69.398,31.085, 69.398,69.399C 292.124,208.789, 261.051,239.862, 222.726,239.862z"  />
<glyph unicode="&#xe00f;" d="M 109.994,203.097c-1.759,7.036-8.401,11.051-14.921,9.162c-6.527-1.882-10.412-8.9-8.662-15.919
		c 4.139-16.439, 11.549-36.253, 21.7-58.967c 2.135-4.745, 6.397-7.395, 11.042-7.395c 1.751,0, 3.502,0.392, 5.13,1.253
		c 6.15,3.133, 8.662,10.919, 5.775,17.314C 120.529,169.871, 113.755,188.3, 109.994,203.097zM 239.43,300.875l-30.861,0 l-4.761-7.875L 177.625,293 l0-165.375 l 95.375,0 L 273,293 l-27.419,0 L 239.43,300.875z M 241.5,151.25l-39.375,0 l0,21.377 l 39.375,28.344L 241.5,151.25 zM 337.759,257.664c 1.368-5.889, 6.267-9.661, 11.657-9.661c 1.13,0, 2.135,0.117, 3.133,0.377
		c 6.527,1.875, 10.412,9.031, 8.655,15.935c-5.268,21.309-15.289,41.64-28.835,58.566c-4.393,5.514-12.056,6.15-17.193,1.497
		c-5.015-4.63-5.637-12.908-1.375-18.298C 325.089,292.022, 333.375,275.22, 337.759,257.664zM 170.696,338.047c 1.628,0, 3.386,3.652, 4.891,4.413C 190.138,349.354, 205.689,356, 221.623,356l 1.375,0 l 1.006,0 l 0.499,0 l 0.5,0 l 1.259-3.328
		c 15.927,0, 31.345-4.993, 45.897-11.889c 6.15-2.873, 13.422-0.68, 16.056,5.847c 2.757,6.652-0.137,15.945-6.266,18.825
		C 264.394,373.731, 245.581,379.625, 226.26,379.625l-0.507,0 l-2.005,0 l-1.129,0 l-0.998,0 c-19.32,0-38.134-6.293-55.818-14.581
		c-6.143-2.871-8.9-11.543-6.273-18.194C 161.543,341.966, 166.058,338.047, 170.696,338.047zM 352.917,212.381c-6.512,1.889-13.146-2.126-14.913-9.161c-3.762-14.796-10.536-33.226-20.066-54.551
		c-2.887-6.396-0.376-14.183, 5.637-17.315c 1.759-0.859, 3.524-1.253, 5.268-1.253c 4.653,0, 8.915,2.772, 11.050,7.41
		c 10.152,22.698, 17.562,42.633, 21.701,58.951C 363.33,203.481, 359.445,210.501, 352.917,212.381zM 307.78,99.632c-5.897,3.501-13.291,1.367-16.685-4.755c-8.647-16.439-18.561-33.88-29.22-51.932
		c-3.509-6.030-1.881-14.060, 3.763-17.931c 2.012-1.252, 4.269-2.012, 6.52-2.012c 4.016,0, 8.040,2.134, 10.29,6.15
		c 10.896,18.3, 20.941,36.108, 29.848,52.671C 315.69,88.091, 313.555,96.121, 307.78,99.632zM 132.57,324.258c-5.144,4.645-12.792,4.014-17.186-1.376c-13.416-17.055-23.443-37.382-28.727-58.69
		c-1.751-7.025, 2.142-14.061, 8.662-15.935c 1.129-0.254, 2.134-0.375, 3.133-0.375c 5.391,0, 10.29,3.771, 11.795,9.651
		c 4.385,17.686, 12.54,34.364, 23.697,48.422C 138.337,311.47, 137.707,319.625, 132.57,324.258zM 156.904,94.609c-3.394,6.274-10.789,8.4-16.685,4.899c-5.767-3.624-7.902-11.541-4.516-17.807
		c 8.9-16.564, 18.944-34.37, 29.847-52.671c 2.258-4.015, 6.275-6.15, 10.29-6.15c 2.258,0, 4.516,0.615, 6.527,2.012
		c 5.636,3.87, 7.388,11.903, 3.755,17.931C 175.457,60.877, 165.55,78.321, 156.904,94.609zM 230.269-8.473l-6.266-9.921l-6.273,9.797c-3.763,5.883-11.289,7.395-16.933,3.386c-5.521-4.024-7.026-12.178-3.133-18.061
		c 9.905-15.55, 16.172-24.956, 16.425-25.349l 9.914-14.797l 9.906,14.797c 0.246,0.392, 6.65,9.799, 16.548,25.472
		c 3.771,6.003, 2.266,14.037-3.263,18.060C 241.679-1.079, 234.032-2.59, 230.269-8.473z"  />
<glyph unicode="&#xe010;" d="M 422.794,308.157L 422.794,328.669 l-23.898,1.028C 310.313,330.718, 224,384, 224,384S 137.687,330.718, 49.109,329.696l-23.903-1.028l0-20.511 
	c-0.246-3.057-0.6-70.771, 14.948-160.002c0,0, 21.436-153.338, 183.846-212.154c 162.411,58.817, 183.852,212.154, 183.852,212.154
	C 423.394,237.386, 423.041,305.1, 422.794,308.157z"  />
<glyph unicode="&#xe011;" d="M 294.822,87.21c-10.555,0-21.196-3.464-21.196-3.464c-4.588-1.47-11.16,0.085-14.619,3.464l-37.717,36.85
		c-3.375,3.379-4.933,9.782-3.375,14.277c0,0, 3.721,10.898, 3.721,21.458c0,9.681-3.033,19.287-3.033,19.287
		c-1.382,4.503, 0.262,10.991, 3.636,14.269l 38.147,37.374c 3.463,3.379, 10.036,5.018, 14.623,3.548c0,0, 9.775-2.94, 19.811-2.94
		c 40.657,0, 73.617,32.272, 73.617,72.147c0,39.791-32.96,72.061-73.617,72.061c-40.744,0-73.709-32.272-73.709-72.061
		c0-10.29, 3.464-20.588, 3.464-20.588c 1.469-4.503-0.085-10.906-3.548-14.269l-37.459-36.682c-3.46-3.379-10.036-4.933-14.619-3.463
		c0,0-10.555,3.379-21.023,3.379c-40.657,0-73.616-32.272-73.616-72.062c0-39.883, 32.959-72.146, 73.616-72.146
		c 9.69,0, 18.861,2.67, 18.861,2.67c 4.583,1.385, 11.249-0.254, 14.619-3.633l 39.014-38.143c 3.463-3.37, 5.107-9.774, 3.636-14.361
		c0,0-2.944-9.428-2.944-19.118c0-39.791, 32.965-72.062, 73.709-72.062c 40.657,0, 73.617,32.272, 73.617,72.062
		C 368.44,54.937, 335.478,87.21, 294.822,87.21z"  />
<glyph unicode="&#xe012;" d="M 7.656,233.834l0-84.593 c 54.898,0, 106.495-21.449, 145.286-60.427c 38.335-38.525, 59.623-89.628, 60.171-144.133l 84.591,0 
		C 296.543,104.318, 166.903,233.834, 7.656,233.834zM 7.776,383.777l0-84.582 c 194.896,0, 353.553-158.837, 354.762-354.514L 447.125-55.319 C 445.921,187.010, 249.327,383.777, 7.776,383.777zM 66.177,61.954c-32.352,0-58.587-26.221-58.587-58.579c0-32.371, 26.233-58.587, 58.587-58.587
		c 32.346,0, 58.598,26.216, 58.598,58.587C 124.776,35.733, 98.524,61.954, 66.177,61.954z"  />
<glyph unicode="&#xe013;" d="M 223.5,84.746c-39.414,0-71.242,30.446-71.242,68.085
		c0,37.527, 31.827,68.097, 71.242,68.097c 39.279,0, 71.23-30.57, 71.23-68.097C 294.731,115.193, 262.779,84.746, 223.5,84.746z
		 M 224.241,267.916c-116.196,0-214.986-111.163-214.986-111.163l0-4.293 c0,0, 98.407-111.927, 214.616-111.927
		c 116.208,0, 214.875,111.286, 214.875,111.286l0,4.17 C 438.745,155.989, 340.474,267.916, 224.241,267.916zM 223.5,184.412c-18.084,0-32.593-14.014-32.593-31.198c0-17.184, 14.508-31.199, 32.593-31.199
		c 17.938,0, 32.593,14.015, 32.593,31.199C 256.093,170.398, 241.438,184.412, 223.5,184.412z"  />
<glyph unicode="&#xe014;" d="M 225.609,268.657L 150.406,48.812L 85.438,152.812L 43.047,111.687L 31.687,100.656L 8,121.749L 92,203.219L 141.609,123.843L 230.407,384L 311.844,58.251L 379.688,280.484L 440,80.812L 408.313,72.469L 379.531,168.156L 308.656-64 		zM 224,184c0,26.562, 21.438,47.999, 48,47.999
		c 26.562,0, 48-21.438, 48-47.999c0-26.562-21.438-48-48-48C 245.438,136, 224,157.437, 224,184z"  />
<glyph unicode="&#xe015;" d="M 223.716,220.139c-29.661,0-53.694,23.481-53.694,52.582
	c0,29.083, 24.033,52.721, 53.694,52.721s 53.7-23.637, 53.7-52.721C 277.417,243.619, 253.377,220.139, 223.716,220.139z M 226.109,377.584
	L 224,377.584 l-2.109,0 c-64.804,0-117.387-52.142-117.387-114.994c0-62.703, 119.495-306.756, 119.495-306.756s 119.496,244.208, 119.496,306.756
	C 343.496,325.286, 290.913,377.584, 226.109,377.584z"  />
<glyph unicode="&#xe016;" d="M 259.679,375.001c-11.056,3.372-22.777,5.209-34.923,5.209
	c-0.824,0-1.422,0.061-2.24,0.030c-0.664,0-1.544-0.030-2.202-0.030c-14.939,0-29.232-2.76-42.437-7.752
	C 103.707,352.165, 49.163,284.185, 49.163,203.418c0-81.149, 55.055-149.401, 129.762-169.334c 23.756-53.607, 43.623-94.876, 43.623-94.876
	s 19.646,40.845, 43.222,94.036c 76.38,18.782, 133.066,87.833, 133.066,170.174C 398.837,287.936, 339.125,358.483, 259.679,375.001z
	 M 223.923,54.77c-82.76,0-149.857,67.094-149.857,149.854c0,82.764, 67.096,149.857, 149.857,149.857
	c 82.761,0, 149.858-67.093, 149.858-149.857C 373.781,121.864, 306.684,54.77, 223.923,54.77z"  />
<glyph unicode="&#xe017;" d="M 391.417,67.323c-27.030,12.010-67.081,42.888-126.372,53.514c 15.169,16.251, 26.645,41.663, 38.504,71.774
	c 6.776,17.403, 5.625,32.263, 5.625,53.44c0,15.642, 2.918,40.745-0.932,54.522c-13.086,46.671-46.122,59.531-84.784,59.531
	c-38.73,0-71.848-12.934-84.858-59.606c-3.85-13.778-0.926-38.804-0.926-54.448c0-21.177-1.15-36.112, 5.694-53.589
	c 11.941-30.269, 23.185-55.605, 38.353-71.775c-58.831-10.86-98.493-41.512-125.289-53.521
	C 0.985,42.445, 0.676,15.343, 0.676,15.343l0-40.28 l 446.646,0 l0,45.98 C 447.324,21.043, 447.089,42.522, 391.417,67.323z"  />
<glyph unicode="&#xe018;" d="M 376.715,116.995c-13.997-9.706-31.265-12.669-38.308-12.669l-4.907,0.109
		c 1.227,7.662, 2.045,15.522, 2.045,23.593l0,85.801 c 2.663,0.209, 5.417,0.31, 8.48,0.31c 5.317,0, 22.984-3.162, 35.444-12.261
		c 12.159-9.188, 14.405-23.493, 14.405-40.551C 393.873,142.323, 390.401,127.001, 376.715,116.995z M 408.996,245.093
		C 382.639,263.378, 357.201,266.75, 344.024,266.75c-2.962,0-5.816-0.109-8.48-0.31L 335.544,313.227 L 6.416,313.227 L 6.416,128.027 
		c0-81.621, 65.071-121.254, 145.365-121.254l 38.407,0 c 53.32,0, 99.896,2.853, 125.135,46.376c 4.489-0.508, 12.559-1.425, 23.082-1.425
		c 14.096,0, 39.225,2.952, 67.017,21.547c 28.092,18.285, 40.242,43.115, 40.242,88.056C 445.666,199.323, 435.652,226.907, 408.996,245.093
		z"  />
<glyph unicode="&#xe019;" d="M 56.942,215.951c0,61.745, 49.928,111.997, 111.305,111.997
		c 61.375,0, 111.303-50.252, 111.303-111.997c0-61.777-49.928-112.026-111.303-112.026C 106.871,103.925, 56.942,154.174, 56.942,215.951z
		 M 437.022-13.904L 304.762,119.205c 19.19,27.353, 30.489,60.705, 30.489,96.746C 335.252,308.759, 260.485,384, 168.248,384
		C 76.008,384, 1.241,308.759, 1.241,215.951c0-92.814, 74.766-168.081, 167.006-168.081c 35.963,0, 69.268,11.503, 96.519,30.967
		l 132.211-133.058c 12.12-12.196, 31.063-13.114, 42.088-2.019C 450.064-45.162, 449.17-26.097, 437.022-13.904z"  />
<glyph unicode="&#xe01a;" d="M 385.012,207.232c-52.997,34.876-104.982,50.549-160.841,50.549l-0.155,0 l-0.155,0 
		c-55.859,0-107.944-15.468-160.946-50.344c-6.433,20.884-14.092,52.029-15.219,79.301c 53.516,29.87, 116.426,44.475, 176.165,44.475
		l 0.155,0 l 0.155,0 c 59.689,0, 122.599-14.605, 176.11-44.475C 399.159,259.466, 391.451,228.121, 385.012,207.232z M 330.788,91.73
		c-32.373,27.317-69.548,38.805-106.618,38.805l-0.155,0 l-0.155,0 c-37.070,0-74.245-11.489-106.618-38.805
		c-8.627,12.616-26.498,45.188-36.202,67.608c 43.249,32.732, 91.608,46.924, 142.82,46.924l 0.155,0 l 0.155,0 
		c 51.162,0, 99.516-14.451, 142.77-47.178C 357.187,136.668, 339.365,104.346, 330.788,91.73z M 224.017-13.866l-0.1,0 
		c-25.89,10.771-54.538,36.711-76.798,63.977c 22.26,20.634, 49.631,28.548, 76.743,28.548l 0.155,0 l 0.155,0 
		c 27.112,0, 54.229-7.914, 76.438-28.548C 278.4,22.845, 249.857-3.096, 224.017-13.866z M 447.26,319.316
		C 429.692,332.031, 342.637,383.398, 224.017,383.398c-118.67,0-205.73-51.367-223.293-64.082C-1.78,298.381-1.27,207.641, 62.457,92.956
		c 67.862-122.14, 143.124-151.96, 161.509-156.353l 0.050,0 c 18.38,4.393, 93.648,34.213, 161.559,156.353
		C 449.25,207.641, 449.813,298.381, 447.26,319.316z"  />
<glyph unicode="&#xe01b;" d="M 157.595,260.054c0,33.36, 27.582,69.949, 61.533,69.949l-13.719,0 l 23.46,0 
		c 33.924,0, 61.533-33.938, 61.533-67.442l0-75.7 L 157.595,186.861 L 157.595,260.054 z M 349.431,186.862l0,73.192 C 349.431,327.049, 286.254,384, 218.236,384l-2.363,0 
		l 5.909,0 C 153.763,384, 98.569,329.7, 98.569,262.561l0-75.7 L 54.3,186.862 L 54.3-64 l 339.401,0 L 393.701,186.862 L 349.431,186.862 z"  />
<glyph unicode="&#xe01c;" d="M 279.752,1.614c 6.724,17.060, 12.883,37.537, 17.553,61.516l 63.752,0 
	C 341.141,34.98, 312.808,13.25, 279.752,1.614z M 199.127-6.107c-8.341,17.437-16.622,40.225-22.727,69.237l 95.509,0 
	c-6.038-29.012-14.319-51.74-22.66-69.177c-8.22-1.241-16.689-1.922-25.28-1.922C 215.567-7.969, 207.225-7.288, 199.127-6.107
	z M 86.942,63.13l 64.124,0 c 4.67-24.1, 10.896-44.577, 17.68-61.699C 135.434,13.068, 106.987,34.858, 86.942,63.13z
	 M 168.935,318.69c-6.846-17.364-13.139-38.097-17.936-62.562L 86.383,256.128 C 106.488,284.826, 135.314,306.919, 168.935,318.69z M 249.056,326.095
	c 8.408-17.619, 16.817-40.589, 22.915-69.967L 176.401,256.128 c 6.105,29.378, 14.507,52.42, 22.977,70.039
	c 8.032,1.179, 16.25,1.8, 24.592,1.8C 232.5,327.968, 240.841,327.348, 249.056,326.095z M 361.617,256.128l-64.246,0 
	c-4.797,24.405-11.084,45.063-17.93,62.38C 312.937,306.737, 341.639,284.704, 361.617,256.128z M 305.902,147.178l 85.544,0 
	c-1.618-21.049-7.101-41.038-15.754-59.145l-74.278,0 C 303.907,105.956, 305.464,125.631, 305.902,147.178z M 167.378,147.178l 113.621,0 
	c-0.499-21.73-2.117-41.465-4.67-59.145L 172.048,88.033 C 169.494,105.713, 167.877,125.448, 167.378,147.178z M 56.555,147.178l 85.921,0 
	c 0.438-21.486, 1.993-41.221, 4.42-59.145L 72.247,88.033 C 63.656,106.139, 58.178,126.129, 56.555,147.178z M 171.926,230.411l 104.524,0 
	c 2.494-17.498, 4.050-36.917, 4.548-58.33L 167.378,172.081 C 167.816,193.494, 169.433,212.913, 171.926,230.411z M 56.493,172.081
	c 1.495,20.732, 6.724,40.394, 15.066,58.33l 75.208,0 c-2.365-17.68-3.854-37.173-4.292-58.33L 56.493,172.081 z M 305.902,172.081
	c-0.438,21.157-1.933,40.65-4.298,58.33l 74.836,0 c 8.341-17.936, 13.571-37.598, 15.067-58.33L 305.902,172.081 z M 223.969,384
	C 100.263,384, 0.024,283.707, 0.024,159.994C 0.024,36.293, 100.263-64, 223.969-64c 123.707,0, 224.007,100.293, 224.007,223.994
	C 447.976,283.707, 347.677,384, 223.969,384z"  />
<glyph unicode="&#xe01d;" d="M 124.304,227.434c-21.144,0-38.341-17.075-38.341-38.026c0-21.052, 17.196-38.137, 38.341-38.137
		c 21.052,0, 38.238,17.084, 38.238,38.137C 162.543,210.359, 145.357,227.434, 124.304,227.434zM 389.696,178.47c0-4.172-3.336-7.509-7.509-7.509l-19.374,0 
		c-4.172,0-7.509,3.337-7.509,7.509l0,18.030 c0,4.050, 3.337,7.388, 7.509,7.388l 19.374,0 c 4.173,0, 7.509-3.337, 7.509-7.388L 389.696,178.47 z
		 M 343.43,225.041c0-4.060-3.44-7.499-7.5-7.499l-19.485,0 c-4.061,0-7.5,3.44-7.5,7.499l0,18.021 c0,4.071, 3.44,7.408, 7.5,7.408
		l 19.485,0 c 4.061,0, 7.5-3.337, 7.5-7.408L 343.43,225.041 z M 343.43,133.658c0-4.162-3.44-7.489-7.5-7.489l-19.485,0 
		c-4.061,0-7.5,3.328-7.5,7.489l0,18.030 c0,4.071, 3.44,7.397, 7.5,7.397l 19.485,0 c 4.061,0, 7.5-3.327, 7.5-7.397L 343.43,133.658 z
		 M 297.061,178.47c0-4.172-3.44-7.509-7.499-7.509l-19.384,0 c-4.172,0-7.499,3.337-7.499,7.509l0,18.030 c0,4.050, 3.328,7.388, 7.499,7.388
		l 19.384,0 c 4.060,0, 7.499-3.337, 7.499-7.388L 297.061,178.47 z M 124.304,128.245c-33.965,0-61.479,27.412-61.479,61.163
		c0,33.761, 27.514,61.062, 61.479,61.062c 33.863,0, 61.378-27.301, 61.378-61.062C 185.682,155.656, 158.168,128.245, 124.304,128.245z
		 M 386.36,307.777c-9.484,20.412-36.784,13.432-56.056,8.333c-14.591-7.815-61.693-31.045-106.912-31.045
		c-46.358,0-94.61,24.38-107.939,31.564c-19.069,5.108-44.599,10.735-53.766-8.852C-14.69,144.708-1.665,53.12, 5.844,32.8
		c 8.649-23.648, 44.487-40.742, 68.764-31.992c 12.708,4.701, 48.343,25.327, 91.903,80.131c0,0, 20.524,23.342, 57.195,23.342
		c 36.58,0, 57.826-23.342, 57.826-23.342c 43.56-54.804, 79.194-75.429, 91.903-80.131c 24.279-8.75, 60.116,8.344, 68.765,31.992
		C 449.609,53.12, 462.735,144.708, 386.36,307.777z"  />
<glyph unicode="&#xe01e;" d="M 224,384C 100.291,384,0,283.715,0,160s 100.291-224, 224-224s 224,100.285, 224,224S 347.709,384, 224,384z M 223.878,17.679
		L 100.382,160.559l 92.647,0 L 193.028,296.986 l 61.7,0 l0-136.427 l 92.641,0 L 223.878,17.679z"  />
<glyph unicode="&#xe01f;" d="M 395.055,173.871L 284.088,173.871L 284.088,384L 158.005,384L 158.005,173.871L 52.945,173.871L 230.322-64 z"  />
<glyph unicode="&#xe020;" d="M 68.689,160c0,85.858, 69.417,155.678, 155.311,155.678
			c 85.858,0, 155.678-69.82, 155.678-155.678c0-85.858-69.821-155.678-155.678-155.678C 138.107,4.322, 68.689,74.142, 68.689,160zM 224-14.345c-95.94,0-173.977,78.202-173.977,174.345c0,96.142, 78.037,174.345, 173.977,174.345
			c 96.142,0, 174.345-78.203, 174.345-174.345C 398.345,63.858, 320.142-14.345, 224-14.345z M 224,297.011
			c-75.344,0-136.643-61.47-136.643-137.011c0-75.541, 61.3-137.011, 136.643-137.011c 75.546,0, 137.011,61.47, 137.011,137.011
			C 361.011,235.541, 299.546,297.011, 224,297.011zM 224-64C 100.477-64,0,36.477,0,160S 100.477,384, 224,384s 224-100.477, 224-224S 347.523-64, 224-64z M 224,309.334
			c-82.344,0-149.334-66.975-149.334-149.334c0-82.358, 66.99-149.334, 149.334-149.334S 373.334,77.642, 373.334,160
			C 373.334,242.358, 306.344,309.334, 224,309.334z"  />
<glyph unicode="&#xe021;" d="M 224-64C 100.477-64,0,36.477,0,160S 100.477,384, 224,384s 224-100.477, 224-224S 347.523-64, 224-64z M 224,309.334
		c-82.34,0-149.334-66.975-149.334-149.334c0-82.358, 66.993-149.334, 149.334-149.334S 373.334,77.642, 373.334,160
		C 373.334,242.358, 306.34,309.334, 224,309.334z"  />
<glyph unicode="&#xe022;" d="M 369.678,142.831L 443.629,142.831L 443.629,184.717L 369.582,184.742L 369.587,191.23L 356.885,191.23L 356.885,205.853L 344.181,205.853L 344.181,239.873L 331.471,239.873L 331.471,275.143L 318.782,275.143L 318.782,290.314L 306.076,290.314L 306.076,242.814L 293.366,242.814L 293.366,283.158L 280.675,283.158L 280.675,248.623L 267.969,248.623L 267.969,275.956L 255.266,275.956L 255.266,221.285L 242.564,221.285L 242.564,202.459L 229.855,202.459L 229.855,218.685L 217.159,218.685L 217.159,248.276L 204.452,248.276L 204.452,286.603L 191.753,286.603L 191.753,258.565L 179.050,258.565L 179.050,276.231L 166.345,276.231L 166.345,319.499L 153.648,319.499L 153.648,231.375L 140.939,231.375L 140.939,258.365L 128.237,258.365L 128.237,298.067L 115.532,298.067L 115.532,232.966L 102.833,232.966L 102.833,209.941L 90.123,209.941L 90.123,224.623L 77.429,224.623L 77.429,184.439L 2.376,184.439L 2.376,142.557L 77.429,142.557L 77.429,102.37L 90.123,102.37L 90.123,117.051L 102.833,117.051L 102.833,94.028L 115.532,94.028L 115.532,28.92L 128.237,28.92L 128.237,68.617L 140.939,68.617L 140.939,95.611L 153.648,95.611L 153.648,7.501L 166.345,7.501L 166.345,50.757L 179.050,50.757L 179.050,68.429L 191.753,68.429L 191.753,40.39L 204.452,40.39L 204.452,78.725L 217.159,78.725L 217.159,106.51L 229.855,106.51L 229.855,124.539L 242.564,124.539L 242.564,105.708L 255.266,105.708L 255.266,51.045L 267.969,51.045L 267.969,78.379L 280.675,78.379L 280.675,42.025L 293.366,42.025L 293.366,82.379L 306.076,82.379L 306.076,36.678L 318.782,36.678L 318.782,50.029L 331.471,50.029L 331.471,87.122L 344.181,87.122L 344.181,121.147L 356.885,121.147L 356.885,135.77L 369.676,135.813 
	z"  />
<glyph unicode="&#xe023;" d="M 225.752,172.25l-0.061,0 c-18.086,0-37.164-5.395-53.397-14.685
		c 0.371-8.458, 2.686-19.001, 4.63-25.484C 192.973,142.916, 208.777,146.875, 225.691,146.875l 0.061,0 l 0.060,0 c 16.916,0, 32.685-4.452, 48.738-15.284
		c 1.94,6.48, 4.288,17.303, 4.63,25.761C 262.975,166.641, 243.899,172.25, 225.811,172.25L 225.752,172.25 zM 225.752,91.75l-0.061,0 c-8.21,0-16.514-2.089-23.241-8.508
		c 6.727-8.488, 15.432-15.992, 23.271-19.492l 0.031,0 c 7.839,3.5, 16.48,11.004, 23.239,19.492c-6.759,6.419-14.969,8.508-23.179,8.508
		L 225.752,91.75 zM 225.752,132l-0.061,0 c-15.495,0-30.186-4.561-43.273-14.745
		c 2.933-6.975, 8.364-17.939, 10.956-21.858C 203.188,103.885, 214.454,106.625, 225.691,106.625l 0.061,0 l 0.060,0 c 11.237,0, 22.504-2.815, 32.317-11.302
		c 2.593,3.92, 7.993,14.511, 10.956,21.489C 255.968,126.996, 241.307,132, 225.811,132L 225.752,132 zM 393.685,171.677c 0.154,2.686, 0.4,5.342, 0.4,8.024
		c0,73.797-59.597,133.615-133.147,133.615c-53.025,0-98.675-31.175-120.094-76.206c-10.372,8.087-23.396,12.964-37.531,12.964
		c-33.922,0-61.422-27.595-61.422-61.639c0-6.387, 0.959-12.56, 2.781-18.361C 18.218,154.301, 0.024,125.411, 0.024,92.294
		C 0.024,42.788, 38.5,2.634, 88.375,1.894L 88.375,1.625 l 1.88,0 l 0.374-0.032l 0.367,0.032l 264.047,0 c 1.574,0, 3.177-0.144, 4.782-0.144
		c 48.708,0, 88.149,39.652, 88.149,88.478C 447.975,126.781, 425.568,158.374, 393.685,171.677z M 274.733,96.464
		c-20.586-37.936-43.393-47.226-48.982-48.581c-5.589,1.355-28.396,10.645-48.982,48.581c-19.289,35.675-19.474,63.857-18.701,70.366
		c 5.337,3.953, 31.726,19.942, 67.685,19.942c 35.957,0, 62.345-15.989, 67.685-19.942C 294.207,160.32, 294.024,132.139, 274.733,96.464z"  />
<glyph unicode="&#xe024;" d="M 207.433,135.312c0,65.473, 52.385,119.194, 117.853,119.194c 14.893,0, 29.088-2.257, 42.213-7.609L 367.499,306.125 l-55.539,0 l-13.304,0 l-17.985,0 
		c-12.498,24.5-28.326,65.625-48.532,65.625L 142.902,371.75 c-18.743,0-39.243-41.125-52.267-65.625L 72.583,306.125 L 59.287,306.125 L 6.125,306.125 l0-225.75 l 53.162,0 l 13.296,0 l 147.834,0 
		C 211.919,97.875, 207.433,116.522, 207.433,135.312z M 151.412,328.649c0,7.71, 5.989,16.851, 13.303,16.851l 44.677,0 
		c 7.322,0, 13.295-7.412, 13.295-15.121c0-7.724-5.973-17.254-13.295-17.254l-44.677,0 C 157.401,313.125, 151.412,320.781, 151.412,328.649zM 312.375,205.832L 312.375,158.25 l 55.125,0 l0,33.465 c-13.125,9.678-26.014,15.488-42.542,15.488C 320.25,207.204, 315,206.727, 312.375,205.832zM 254.755,134.311c0-21.068, 9.239-38.186, 23.843-53.936L 296.625,80.375 l0,59.5 l-41.711,0 C 254.819,137.25, 254.755,135.839, 254.755,134.311zM 257.921,158.25L 296.625,158.25 l0,42.436 C 276.5,192.383, 263.834,176.625, 257.921,158.25zM 324.557,247.161c-60.352,0-109.273-49.233-109.273-109.951c0-23.586, 7.395-45.409, 19.946-63.307l-86.528-87.081
		c-7.954-7.99-8.538-20.464-1.341-27.704c 7.216-7.263, 19.61-6.661, 27.539,1.322l 86.505,87.046
		c 17.834-12.729, 39.619-20.256, 63.152-20.256c 60.354,0, 109.269,49.246, 109.269,109.98
		C 433.826,197.93, 384.911,247.161, 324.557,247.161z M 323.914,60.56c-41.758,0-75.728,34.187-75.728,76.211
		c0,42.005, 33.969,76.18, 75.728,76.18c 41.753,0, 75.726-34.176, 75.726-76.18C 399.64,94.747, 365.667,60.56, 323.914,60.56zM 312.375,139.875L 367.5,139.875L 367.5,80.375L 312.375,80.375z"  />
<glyph unicode="&#xe025;" d="M 224-14.586c-94.31,0-171.022,78.277-171.022,174.586
		c0,96.215, 76.712,174.577, 171.022,174.577c 94.396,0, 171.115-78.361, 171.115-174.577C 395.115,63.692, 318.396-14.586, 224-14.586z
		 M 224,376.709C 106.715,376.709, 11.625,279.706, 11.625,160c0-119.714, 95.090-216.709, 212.375-216.709S 436.374,40.286, 436.374,160
		C 436.374,279.706, 341.285,376.709, 224,376.709zM 274.883,86.319l-0.263,0.169c-14.128-9.972-31.202-15.864-49.665-15.864
		c-18.378,0-35.452,5.807-49.589,15.695c-22.965,16.202-38.050,43.164-38.050,73.681c0,48.886, 38.745,88.672, 86.505,89.274
		l 0.094,0.178l0-0.178 l 1.039,0.093c 48.278,0, 87.547-40.133, 87.547-89.366c0-30.433-15-57.3-37.788-73.427L 274.883,86.319z
		 M 224.956,291.498c-71.166,0-128.899-58.866-128.899-131.498c0-72.649, 57.733-131.498, 128.899-131.498
		c 71.167,0, 128.891,58.849, 128.891,131.498C 353.846,232.63, 296.124,291.498, 224.956,291.498zM 303.834,184.531L 241.599,184.531L 223.916,249.274L 223.916,249.451L 223.822,249.274L 206.148,184.531L 143.903,184.531L 194.532,150.46L 175.367,86.405L 224,128.527L 274.621,86.489L 274.883,86.319L 274.716,86.573L 253.382,150.553 	z"  />
<glyph unicode="&#xe026;" d="M 8.587,24.875L 210.511-30.656L 210.511,220.033L 8.587,275.565 	zM 249.341,220.033L 249.341-30.656L 443.497,24.875L 443.497,275.565 	zM 225.732,357.656L 12.471,297.854L 225.572,239.448L 438.841,297.854 	z"  />
<glyph unicode="&#xe027;" d="M 371.78,384L 119.209,150.777L 205.729,150.777L 76.22-64L 353.063,195.558L 266.989,195.558 	z"  />
<glyph unicode="&#xe028;" d="M 396.953,227.555c-7.672-7.47-20.079-7.47-27.749,0
		c-7.672,7.459-7.672,19.58,0,27.050c 7.671,7.46, 20.078,7.46, 27.749,0C 404.522,247.135, 404.522,235.014, 396.953,227.555z
		 M 353.264,320.194c 7.568,7.459, 19.974,7.459, 27.646,0c 7.672-7.47, 7.672-19.59,0-27.050c-7.672-7.47-20.078-7.47-27.646,0
		C 345.593,300.605, 345.593,312.724, 353.264,320.194z M 329.752,243.193c-7.567-7.469-19.984-7.469-27.651,0
		c-7.666,7.469-7.666,19.57,0,27.040c 7.667,7.47, 20.084,7.47, 27.651,0C 337.418,262.763, 337.418,250.662, 329.752,243.193z
		 M 227.534,53.696L 108.159,170.232l 106.357,103.942l 119.266-116.556L 227.534,53.696z M 156.495-7.263
		c-7.671-7.47-20.083-7.47-27.75,0c-7.567,7.47-7.567,19.581,0,27.052c 7.667,7.458, 20.079,7.458, 27.75,0
		C 164.16,12.317, 164.16,0.207, 156.495-7.263z M 112.802,58.229c-7.672,7.569-7.672,19.68,0,27.149
		c 7.667,7.459, 20.078,7.459, 27.749,0c 7.568-7.469, 7.568-19.58,0-27.149C 132.878,50.759, 120.467,50.759, 112.802,58.229z
		 M 89.387,8.287c-7.667-7.469-20.083-7.469-27.75,0c-7.667,7.568-7.667,19.669,0,27.138c 7.667,7.47, 20.083,7.47, 27.75,0
		C 97.054,27.956, 97.054,15.856, 89.387,8.287z M 45.693,100.918c 7.672,7.469, 20.083,7.469, 27.652,0
		c 7.666-7.471, 7.666-19.581,0-27.041c-7.569-7.47-19.98-7.47-27.652,0C 38.027,81.338, 38.027,93.447, 45.693,100.918z
		 M 286.156,335.823c 7.568,7.47, 19.98,7.47, 27.652,0c 7.667-7.568, 7.667-19.669,0-27.139c-7.671-7.469-20.083-7.469-27.652,0
		C 278.491,316.153, 278.491,328.255, 286.156,335.823z M 329.851,375.989c-29.868,0-56.908-11.805-76.587-30.883l-0.103,0.108L 214.517,307.473
		L 74.049,170.232L 35.001,132.096l 0.099-0.198C 16.131,112.822, 4.424,86.885, 4.424,58.13c0-58.524, 48.537-105.953, 108.475-105.953
		c 31.282,0, 59.332,13.017, 79.11,33.604l 35.526,34.608l 69.724,68.211l 106.559,104.14c 21.187,19.274, 34.509,46.729, 34.509,77.297
		C 438.326,328.561, 389.789,375.989, 329.851,375.989z"  />
<glyph unicode="&#xe029;" d="M 392.721,174.125c 0.137,2.682, 0.394,5.341, 0.394,8.070c0,74.364-59.341,134.638-132.539,134.638
		c-52.791,0-98.249-31.419-119.547-76.791c-10.357,8.145-23.302,13.068-37.393,13.068c-33.773,0-61.136-27.832-61.136-62.117
		c0-6.438, 0.953-12.666, 2.749-18.498c-26.31-15.909-44.012-45.001-44.012-78.381c0-49.893, 39.445-90.853, 88.38-91.626l0-0.043 l 1.052,0 
		c 0.114,0, 0.232-1.028, 0.35-1.028c 0.114,0, 0.233,0.512, 0.347,0.512l 105.81,0 l0,86.174 c-5.808,0-11.617,0.134-16.027,0.134l-40.469,0 
		c-8.817,0-11.386,5.62-5.738,12.476l 77.51,96.363c 5.671,6.88, 14.906,6.88, 20.573,0l 77.514-96.363
		c 5.667-6.856, 3.080-12.476-5.734-12.476l-42.622,0 l-16.025,0 l0-86.309 L 352.363,1.929 c 1.587-0.091, 5.041-0.256, 6.675-0.256
		c 48.447,0, 87.727,40.915, 87.727,90.134C 446.764,128.916, 424.442,160.689, 392.721,174.125z"  />
<glyph unicode="&#xe02a;" d="M 310.416,378.75L 137.605,378.75 C 114.652,378.75, 95.375,360.783, 95.375,338.45l0-361.152 
	C 95.375-45.034, 125.866-63.125, 148.818-63.125l 150.385,0 C 322.155-63.125, 351.75-45.034, 351.75-22.702L 351.75,337.744 C 351.75,360.076, 333.368,378.75, 310.416,378.75z
	 M 195.326,342.875l 50.48,0 c 2.733,0, 5.033-1.109, 5.033-3.84c0-2.74-2.3-4.91-5.033-4.91L 195.326,334.125 c-2.827,0-5.12,1.816-5.12,4.547
	C 190.207,341.413, 192.5,342.875, 195.326,342.875z M 143.518-21.823c-5.302,0-9.619,4.241-9.619,9.447c0,5.206, 4.318,9.447, 9.714,9.447
	c 5.292,0, 9.705-4.24, 9.618-9.447C 153.231-17.582, 148.905-21.823, 143.518-21.823z M 194.887-21.823
	c-5.386,0-9.713,4.241-9.713,9.447c0,5.206, 4.326,9.447, 9.713,9.447s 9.706-4.24, 9.706-9.447
	C 204.592-17.582, 200.273-21.823, 194.887-21.823z M 246.161-21.823c-5.292,0-9.705,4.155-9.705,9.447
	c 0.086,5.206, 4.413,9.361, 9.79,9.361c 5.301,0, 9.619-4.155, 9.619-9.447C 255.866-17.668, 251.548-21.909, 246.161-21.823z
	 M 297.53-21.909c-5.386,0-9.705,4.242-9.705,9.447c0,5.206, 4.318,9.447, 9.705,9.447c 5.379,0, 9.706-4.241, 9.706-9.447
	C 307.235-17.668, 302.823-21.909, 297.53-21.909z M 334.25,28.305c0-6.618-5.476-11.805-12.276-11.805L 126.046,16.5 
	c-6.8,0-12.296,5.187-12.296,11.805L 113.75,304.379 C 113.75,310.999, 119.247,316.625, 126.046,316.625L 321.974,316.625 c 6.801,0, 12.276-5.626, 12.276-12.246L 334.25,28.305 z"  />
<glyph unicode="&#xe02c;" d="M 224,104.164l-7.081,2.808l-127.933,51.889l-5.841-20.939c 3.124-4.476, 6.247-11.050, 5.515-18.232
		C 150.032,100.52, 224,54.573, 224,54.573s 118.257,72.716, 176.598,72.716l-20.94,40.016l-148.577-60.334L 224,104.164zM 61.474,190.117L 65.951,188.244L 67.203,187.716L 61.474,190.117 	zM 224,205.011c 11.568,0, 20.94,4.477, 20.94,9.9s-9.371,9.899-20.94,9.899c-11.558,0-20.939-4.476-20.939-9.899
		S 212.442,205.011, 224,205.011zM 53.457,42.17c 3.439,10.205, 2.493-9.167, 5.717-27.928c 3.653,0.427, 7.194,1.363, 9.482,2.605
		c 3.653,2.096-3.011,23.971, 7.927,42.102c 6.868,11.456, 4.792,24.377, 1.659,33.127l-9.472,4.792l-2.606,1.15
		c-2.92,1.241-6.044,1.873-9.065,1.873c-2.605,0-5.209-0.52-7.814-1.466l-11.671-4.263c-13.338-22.506, 1.984-53.344, 3.022-71.058
		c 0.305-5.729, 5.31-8.231, 11.252-8.963C 51.259,24.873, 51.259,35.914, 53.457,42.17zM 61.474,190.117l 5.729-2.3c 20.002,20.836, 99.597,25.426, 125.023,26.373l0,0.722 c0,11.975, 13.338,20.623, 31.774,20.623
		c 18.447,0, 31.886-8.649, 31.886-20.623c0-11.976-13.439-20.735-31.886-20.735c-11.659,0-21.355,3.551-26.881,9.167
		c-18.954-1.455-96.778-8.119-116.375-21.041L 224,124.166l 224,90.847L 224,305.86L0,215.013l 58.971-23.86L 61.474,190.117
		L 61.474,190.117zM 57.099,112.282c 5.108,0, 9.789-1.139, 13.959-2.808c 1.14-0.519, 2.3-1.039, 3.337-1.567L 76.268,120.625
		c 0.732,4.578-3.336,10.724-6.247,13.857l 10.724,47.82l-13.542,5.414l-10.938-51.462c-3.744-2.086-8.333-6.675-9.065-11.355
		l-2.289-14.794C 49.183,111.661, 53.244,112.282, 57.099,112.282z"  />
<glyph unicode="&#xe02d;" d="M 258.048,155.625L 257.925,193.25L 191.697,193.25L 199.811,155.625 	zM 354.897,193.25L 289.912,193.25L 289.789,155.625L 345.269,155.625 	zM 202.558,69.083c-20.234,0-36.856-16.499-36.856-36.855
		c0-20.381, 16.621-36.855, 36.856-36.855c 20.38,0, 37.001,16.474, 37.001,36.855C 239.559,52.583, 222.938,69.083, 202.558,69.083zM 341.4,69.083c-20.367,0-36.867-16.499-36.867-36.855
		c0-20.381, 16.499-36.855, 36.867-36.855c 20.368,0, 36.868,16.474, 36.868,36.855C 378.268,52.583, 361.768,69.083, 341.4,69.083zM 434.869,282.649c-1.746,0.635-3.49,0.879-5.248,0.879
		c-7.737,0-15.108-2.46-17.488-10.441L 409.754,267.625L 139.831,267.625 l-9.617,37.544C 128.212,313.296, 120.841,317.5, 112.47,317.5l-94.237,0 
		C 8.115,317.5,0,309.243,0,299.114S 8.115,280.75, 18.232,280.75l 79.984,0 l 43.116-174.656c 1.988-8.128, 9.372-13.469, 17.743-13.469l 223.561,0 
		c 8.005,0, 15.133,3.848, 17.5,11.611l 47.107,156.388c 0.512,1.732, 0.756,3.27, 0.756,4.904C 448,273.388, 442.874,280.403, 434.869,282.649z
		 M 370.14,134.141L 369.016,130.25L 173.44,130.25 l-24.481,99.75l 249.798,0 L 370.14,134.141z"  />
<glyph unicode="&#xe02e;" d="M 440.772,92.601L 440.772,229.885 c0,37.189-16.568,67.762-50.945,71.319l0-128.109 c0-57.067-44.078-103.682-98.307-103.682L 142.74,69.414 
		c-10.435-9.949-20.621-20.643-30.559-27.26c 11.716-9.678, 26.232-23.684, 42.276-23.684l 163.779,0 
		c 65.473-70.298, 135.025-56.295, 120.995-45.073c-20.623,16.293-44.304,35.123-48.906,49.901
		C 419.379,31.457, 440.772,59.216, 440.772,92.601zM 364.354,166.48L 364.354,303.492 c0,39.505-32.861,71.593-70.297,71.593L 75.75,375.085 c-37.699,0-68.008-32.088-68.008-71.593l0-138.305 
		c0-33.358, 21.39-61.143, 50.434-69.277c-4.589-14.778-28.27-31.070-48.906-47.639c-5.348-4.329, 2.040-7.633, 16.816-7.633
		c 23.173,0, 64.69,11.466, 104.429,54.249l 165.832,0 C 334.056,94.886, 364.354,126.976, 364.354,166.48z"  />
<glyph unicode="&#xe02f;" d="M 391.001,197.894c 0.156,2.622, 0.395,5.221, 0.395,7.877c0,72.462-58.733,131.203-131.202,131.203
		c-52.251,0-97.234-30.619-118.335-74.824c-10.233,7.937-23.051,12.71-37.005,12.71c-33.423,0-60.524-27.101-60.524-60.525
		c0-6.281, 0.957-12.338, 2.734-18.034C 21.010,180.807, 3.491,152.456, 3.491,119.937c0-48.619, 39.046-88.055, 87.485-88.802l0-0.053 l 1.036,0 
		c 0.121,0, 0.234-0.019, 0.354-0.019c 0.121,0, 0.234,0.019, 0.353,0.019l 43.034,0 l-28.101,33.56
		c-12.027,14.379-14.879,32.22-7.631,47.729c 7.243,15.502, 22.758,24.762, 41.502,24.762l 19.439,0 l0,49.218 
		c0,29.011, 23.601,52.605, 52.615,52.605l 18.351,0 c 29.014,0, 52.616-23.595, 52.616-52.605l0-49.217 l 19.437,0 
		c 18.746,0, 34.261-9.26, 41.504-24.762c 7.25-15.508, 4.396-33.35-7.644-47.741l-28.088-33.547l 43.158,0 
		c 1.58-0.085, 3.139-0.241, 4.744-0.241c 47.969,0, 86.852,38.883, 86.852,86.852C 444.509,153.849, 422.414,184.819, 391.001,197.894zM 303.982,100.385l-40.331,0 c-4.36,0-10.108,0-15.856,0l0,85.965 c0,8.721-7.142,15.856-15.868,15.856l-18.35,0 
		c-8.726,0-15.867-7.135-15.867-15.856l0-85.965 c-5.748,0-11.496,0-15.858,0L 141.523,100.385 c-8.726,0-11.28-5.474-5.681-12.167
		l 76.726-91.642c 2.805-3.342, 6.496-5.018, 10.187-5.018s 7.38,1.676, 10.184,5.018l 76.727,91.642
		C 315.263,94.911, 312.708,100.385, 303.982,100.385z"  />
<glyph unicode="&#xe030;" d="M 55.463,130.806L 55.463,324.547L 296.291,324.547L 296.291,296.514L 336.241,296.514L 336.241,364.498L 15.512,364.498L 15.512,44.991L 84.378,44.991L 84.378,130.806 	zM 438.824,265.456L 116.156,265.456 l0-323.187 l 322.667,0 L 438.824,265.456L 438.824,265.456z M 398.625,29.475L 156.343,29.475 L 156.343,224.389 L 398.624,224.389 
		L 398.625,29.475L 398.625,29.475z"  />
<glyph unicode="&#xe031;" d="M 5.752,336.26l0-346.336 l 429.938,0 L 435.691,336.26 L 5.752,336.26 z M 399.865,25.744L 41.58,25.744 L 41.58,300.437 l 358.286,0 L 399.866,25.744 zM 302.075,86.413c0,0-0.133,13.465-27.669,25.712c-13.343,5.899-33.122,21.178-62.449,26.427
		c 7.506,8.029, 13.186,20.573, 19.010,35.438c 3.381,8.611, 2.781,15.953, 2.781,26.422c0,7.72, 1.487,20.101-0.443,26.905
		c-6.456,23.023-22.814,29.355-41.939,29.355c-19.157,0-35.501-6.38-41.963-29.403c-1.878-6.821-0.432-19.173-0.432-26.857
		c0-10.483-0.566-17.866, 2.822-26.487c 5.867-14.938, 11.477-27.465, 18.931-35.471c-29.067-5.313-48.703-20.485-61.967-26.38
		C 81.332,99.827, 81.181,86.412, 81.181,86.412l0-22.727 l 220.892,0.038L 302.075,86.413L 302.075,86.413zM 265.17,249.966L 354.575,249.966L 354.575,232.286L 265.17,232.286zM 265.17,208.097L 317.964,208.097L 317.964,190.418L 265.17,190.418zM 265.17,166.611L 339.786,166.611L 339.786,148.93L 265.17,148.93z"  />
<glyph unicode="&#xe032;" d="M 272.954,98.983l-9.53-9.531l-8.844-8.843c-5.249-5.249-11.469-9.158-18.231-11.666l 60.060-60.062l 28.416-38.076
		l 15.079-4.072l 41.911,42.149l-4.062,15.425l-37.804,28.138l-56.761,56.767l-5.655-5.655L 272.954,98.983z M 335.875,30.999
		c 9.798,0, 17.741-7.948, 17.741-17.745s-7.943-17.739-17.741-17.739c-9.796,0-17.742,7.942-17.742,17.739
		S 326.079,30.999, 335.875,30.999zM 168.182,184.588l 9.746,9.748l 4.24,4.245l 9.743,9.746l 0.97,0.97c 2.164,5.604, 3.436,11.14, 3.431,16.332
		c0,40.211-38.452,79.117-78.635,78.635c-0.156,0-4.7-4.602-7.174-7.079c 32.21-32.213, 29.55-26.983, 29.55-46.74
		c0-16.031-25.673-41.345-41.345-41.345c-20.285,0-13.827-3.363-46.731,29.554c-2.558-2.555-7.091-7.024-7.096-7.18
		c 0.488-40.197, 38.453-78.641, 78.65-78.641c 7.277,0, 15.059,2.325, 22.737,6.188c0,0, 7.781,11.442, 13.119,16.779L 168.182,184.588zM 374.118,271.892l-23.447,23.444c-6.233,6.234-14.4,9.348-22.568,9.348c-8.172,0-16.344-3.118-22.567-9.357
		L 205.214,195.018c 3.081-5.939, 0.808-14.941-3.984-19.742c-3.297-3.303-8.579-5.404-13.48-5.404c-2.247,0-4.406,0.438-6.27,1.407
		l-8.792-8.788c-12.469-12.467-12.469-32.678-0.009-45.137l 1.635-1.635l-78.275-78.263l-20.896-7.9l-30.476-43.5l 19.562-19.496
		l 43.431,30.355l 7.915,21.064l 78.231,78.237l 2.323-2.321c 6.23-6.233, 14.396-9.347, 22.559-9.347c 8.175,0, 16.343,3.123, 22.58,9.362
		l 8.844,8.841c-2.922,5.93-0.662,14.787, 4.098,19.547c 3.284,3.288, 8.548,5.383, 13.449,5.383c 2.163,0, 4.263-0.41, 6.082-1.305
		L 374.118,226.745C 386.578,239.213, 386.578,259.425, 374.118,271.892z"  />
<glyph unicode="&#xe033;" d="M 304.025,112.908L 440.849,203.179L 271.974,203.276L 223.992,375.687L 176.011,203.276L 7.151,203.179L 144.477,112.66L 92.486-57.73L 224.327,54.557L 362.177-57.724 z"  />
<glyph unicode="&#xe034;" d="M 340.062,162.46c0-0.018,0-0.032,0-0.046l-45.646,0 l 72.51-72.23l 72.376,72.23l-45.507,0 c 0.014,0.373, 0.024,0.827, 0.024,1.089
	c0,106.831-86.608,193.434-193.433,193.434c-106.829,0-193.436-86.604-193.436-193.434c0-106.831, 86.608-193.438, 193.436-193.438
	c 61.697,0, 116.603,28.921, 152.021,73.912l-15.815,15.753l-22.648,22.557c-25.368-35.377-66.805-58.486-113.558-58.486
	c-77.039,0-139.702,62.672-139.702,139.702c0,77.031, 62.664,139.702, 139.703,139.702c 77.037,0, 139.701-62.672, 139.701-139.702
	c0-0.251-0.013-0.682-0.018-1.041L 340.062,162.46 L 340.062,162.46z"  />
<glyph unicode="&#xe035;" d="M 198.465,21.019c-97.794,0-177.364,79.44-177.364,177.086c0,97.651, 79.57,177.091, 177.364,177.091
			c 97.796,0, 177.363-79.44, 177.363-177.091C 375.829,100.459, 296.261,21.019, 198.465,21.019z M 198.465,344.422
			c-80.802,0-146.544-65.638-146.544-146.317c0-80.678, 65.741-146.318, 146.544-146.318c 80.805,0, 146.544,65.64, 146.544,146.318
			C 345.010,278.783, 279.269,344.422, 198.465,344.422zM 313.106,47.085l 36.668-36.614l 56.929-56.833c 3.759-3.756, 8.691-5.633, 13.618-5.633c 4.931,0, 9.862,1.878, 13.618,5.633
			c 7.527,7.504, 7.527,19.678,0,27.196l-56.675,56.576l-36.487,36.433M 215.509,157.35c 9.378,7.206, 13.756,22.042, 21.745,42.346c 0.112,0.299, 0.212,0.613, 0.333,0.908
		c 1.797-0.31, 3.621-0.295, 4.959,0.541c 3.724,2.329, 5.982,15.025, 6.053,21.212c 0.092,9.271-4.539,8.361-4.539,8.361
		s-0.093,0.034-0.24,0.068c 0.022,0.736, 0.060,1.477, 0.060,2.214c0,8.381, 1.709,22.544-0.515,30.427
		c-3.352,11.911-2.671,16.392-8.781,22.847c-8.667,9.165-21.248,13.074-26.236,13.074c-3.46,0-20.588,6.218-30.982,2.675
		c-10.063-3.433-4.484-13.679-12.712-13.679c-8.871,0-12.895-13.105-16.225-24.989c-2.154-7.675-0.499-21.647-0.499-30.356
		c0-0.724, 0.043-1.448, 0.063-2.18c-0.225-0.056-0.383-0.102-0.383-0.102s-4.644,0.912-4.539-8.361
		c 0.069-6.187, 2.325-18.883, 6.058-21.212c 1.367-0.861, 3.252-0.861, 5.093-0.515c 0.128-0.327, 0.243-0.677, 0.371-1
		c 8.068-20.467, 12.192-35.223, 21.637-42.347c-30.696-3.952-84.915-36.879-88.383-42.024
		c 25.1-32.28, 64.237-53.138, 108.341-53.138c 44.095,0, 83.232,20.859, 108.34,53.138
		C 300.928,120.594, 246.513,153.492, 215.509,157.35z"  />
<glyph unicode="&#xe036;" d="M 300.135,287.258L 300.135,358.276 c0,6.355-8.797,17.412-19.661,17.412c-10.852,0-19.645-11.057-19.645-17.412l0-69.66 L 164.872,288.615 
		c-21.264,0-38.495-17.236-38.495-38.5l0-269.059 c0-21.258, 17.23-38.494, 38.495-38.494l 125.255,0 c 21.265,0, 38.496,17.236, 38.496,38.494
		L 328.623,250.115 C 328.623,267.915, 316.53,282.847, 300.135,287.258z M 170.327-28.18c-8.668,0.013-15.68,7.030-15.691,15.687
		c 0.011,8.667, 7.024,15.678, 15.691,15.703c 8.655-0.025, 15.662-7.036, 15.679-15.703C 185.991-21.15, 178.983-28.168, 170.327-28.18z
		 M 170.327,24.756c-8.679,0.029-15.68,7.042-15.698,15.697c 0.018,8.679, 7.018,15.68, 15.698,15.692
		c 8.655-0.012, 15.662-7.013, 15.679-15.692l 0.011,0 C 185.991,31.797, 178.983,24.785, 170.327,24.756z M 154.636,93.394
		c 0.011,8.668, 7.024,15.679, 15.679,15.691c 8.668-0.012, 15.679-7.023, 15.691-15.691c-0.012-8.655-7.024-15.662-15.691-15.685
		C 161.66,77.732, 154.648,84.738, 154.636,93.394z M 228.484-28.18c-8.669,0.013-15.675,7.030-15.711,15.687
		c 0.036,8.667, 7.041,15.678, 15.711,15.703c 8.655-0.025, 15.661-7.036, 15.685-15.703C 244.145-21.15, 237.141-28.168, 228.484-28.18
		z M 228.478,24.756c-8.662,0.029-15.68,7.042-15.693,15.697c 0.012,8.679, 7.030,15.68, 15.693,15.692
		c 8.661-0.012, 15.68-7.013, 15.691-15.692C 244.158,31.797, 237.141,24.785, 228.478,24.756z M 228.478,77.709
		c-8.669,0.022-15.68,7.030-15.698,15.685c 0.018,8.668, 7.030,15.679, 15.698,15.691c 8.667-0.012, 15.68-7.023, 15.691-15.691
		C 244.158,84.738, 237.145,77.732, 228.478,77.709z M 186.741,137.133c-15.862,0-28.722,11.858-28.722,26.467l0,66.554 
		c0,14.611, 12.86,26.467, 28.722,26.467l 81.606,0 c 15.86,0, 28.71-11.856, 28.71-26.467l0-66.554 c0-14.609-12.851-26.467-28.71-26.467
		L 186.741,137.133 z M 285.031,109.086c 8.667-0.012, 15.68-7.023, 15.691-15.691c-0.011-8.655-7.024-15.662-15.691-15.685
		c-8.668,0.022-15.68,7.030-15.698,15.685C 269.351,102.062, 276.363,109.073, 285.031,109.086z M 285.031-28.18
		c-8.668,0.013-15.68,7.030-15.693,15.687c 0.013,8.667, 7.025,15.678, 15.693,15.703c 8.667-0.025, 15.68-7.036, 15.691-15.703
		C 300.711-21.15, 293.698-28.168, 285.031-28.18z M 285.038,24.756c-8.663,0.029-15.687,7.042-15.699,15.697
		c 0.013,8.679, 7.034,15.68, 15.699,15.692c 8.66-0.012, 15.673-7.013, 15.691-15.692C 300.711,31.797, 293.698,24.785, 285.038,24.756z"  />
<glyph unicode="&#xe037;" d="M 359.303,173.671L 84.323,173.671 c-43.71,0-79.139-35.468-79.139-79.17l0-63.607 c0-43.701, 35.43-79.152, 79.139-79.152l 274.98,0 
		c 43.701,0, 79.139,35.451, 79.139,79.152l0,63.607 C 438.442,138.203, 403.004,173.671, 359.303,173.671z M 142.095,124.142l-25.56,0 l0-127.021 
		l-24.699,0 L 91.836,124.142 L 66.284,124.142 L 66.284,145.755 l 75.811,0 L 142.095,124.142 z M 214.316-2.88l-21.912,0 l0,12.016 c-4.072-4.442-8.264-7.832-12.655-10.127
		c-4.373-2.38-8.609-3.507-12.733-3.507c-5.081,0-8.859,1.618-11.448,4.904c-2.545,3.277-3.847,8.135-3.847,14.695L 151.722,106.781 l 21.912,0 
		l0-84.126 c0-2.593, 0.475-4.465, 1.354-5.611c 0.949-1.201, 2.459-1.746, 4.513-1.746c 1.579,0, 3.641,0.758, 6.107,2.292
		c 2.485,1.549, 4.737,3.507, 6.799,5.897l0,83.293 l 21.912,0 L 214.317-2.88 z M 293.843,19.761c0-7.747-1.717-13.695-5.159-17.857
		c-3.407-4.144-8.41-6.189-14.891-6.189c-4.312,0-8.134,0.773-11.472,2.381c-3.347,1.584-6.503,4.043-9.368,7.428l0-8.403 l-22.161,0 
		L 230.793,145.755 l 22.161,0 l0-47.869 c 2.968,3.318, 6.116,5.88, 9.386,7.604c 3.356,1.765, 6.721,2.615, 10.127,2.615c 6.936,0, 12.224-2.311, 15.881-6.986
		c 3.674-4.676, 5.494-11.522, 5.494-20.501L 293.842,19.761 z M 369.852,49.311l-41.924,0 l0-20.656 c0-5.771, 0.699-9.777, 2.139-12.016
		c 1.458-2.242, 3.934-3.334, 7.427-3.334c 3.65,0, 6.168,0.949, 7.626,2.837c 1.423,1.908, 2.182,6.056, 2.182,12.513l0,4.992 l 22.549,0 l0-5.625 
		c0-11.245-2.725-19.708-8.271-25.427c-5.452-5.651-13.665-8.471-24.587-8.471c-9.825,0-17.573,2.997-23.195,9.030
		c-5.617,5.983-8.473,14.295-8.473,24.867l0,49.258 c0,9.475, 3.115,17.273, 9.326,23.256c 6.202,5.982, 14.164,8.964, 23.989,8.964
		c 10.033,0, 17.745-2.771, 23.137-8.312c 5.383-5.557, 8.074-13.514, 8.074-23.909L 369.851,49.311 zM 337.701,90.317c-3.503,0-5.988-0.986-7.506-3.033c-1.544-1.922-2.268-5.223-2.268-9.829L 327.927,66.375 l 19.376,0 l0,11.080 
		c0,4.607-0.785,7.906-2.313,9.829C 343.506,89.331, 341.039,90.317, 337.701,90.317zM 262.125,90.687c-1.563,0-3.123-0.336-4.649-1.055c-1.528-0.703-3.028-1.855-4.521-3.351l0-68.318 
		c 1.768-1.769, 3.51-3.126, 5.193-3.902c 1.698-0.755, 3.433-1.179, 5.297-1.179c 2.692,0, 4.659,0.776, 5.918,2.348
		c 1.242,1.549, 1.891,4.041, 1.891,7.548l0,56.638 c0,3.722-0.752,6.513-2.295,8.433C 267.351,89.736, 265.073,90.687, 262.125,90.687zM 120.331,211.762L 148.107,211.762L 148.107,279.696L 180.44,375.52L 152.213,375.52L 135.020,310.061L 133.27,310.061L 115.224,375.52L 87.247,375.52L 120.331,276.638 	zM 218.077,208.712c 11.214,0, 20.016,2.942, 26.432,8.821c 6.366,5.914, 9.559,13.976, 9.559,24.314L 254.068,304.251 
		c0,9.192-3.263,16.767-9.748,22.606c-6.54,5.819-14.907,8.752-25.129,8.752c-11.207,0-20.152-2.774-26.786-8.312
		c-6.633-5.542-9.954-12.966-9.954-22.356l0-62.616 c0-10.27, 3.244-18.405, 9.705-24.495
		C 198.634,211.762, 207.286,208.712, 218.077,208.712z M 207.846,305.86c0,2.626, 0.941,4.744, 2.795,6.405
		c 1.915,1.627, 4.348,2.416, 7.359,2.416c 3.269,0, 5.899-0.789, 7.919-2.416c 2.002-1.66, 3.011-3.778, 3.011-6.405l0-65.817 
		c0-3.227-0.992-5.784-2.968-7.639c-1.967-1.85-4.624-2.765-7.962-2.765c-3.261,0-5.78,0.88-7.53,2.731
		c-1.743,1.82-2.623,4.36-2.623,7.674L 207.845,305.86 zM 291.316,210.003c 4.633,0, 9.394,1.32, 14.304,3.861c 4.952,2.579, 9.697,6.349, 14.207,11.274l0-13.375 l 24.681,0 L 344.508,332.555 l-24.681,0 
		L 319.827,240.859 c-2.294-2.627-4.84-4.779-7.592-6.492c-2.794-1.695-5.088-2.54-6.9-2.54c-2.313,0-4.012,0.633-5.013,1.941
		c-1.025,1.268-1.595,3.33-1.595,6.172L 298.727,332.555 l-24.637,0 l0-100.957 c0-7.203, 1.45-12.583, 4.323-16.15
		C 281.318,211.831, 285.588,210.003, 291.316,210.003z"  />
<glyph unicode="&#xe038;" d="M 347.084,71.334L 206.499,71.334 L 206.499,192.667 l 140.584,0 L 347.084,71.334 z M 374.5,220.667L 178.5,220.667 l0-177.333 l 196,0 
		L 374.5,220.667 zM 75.833,220.667L 141.167,220.667L 141.167,43.334L 75.833,43.334zM 410.958-3.333L 36.751-3.333 L 36.751,248.666 l 374.207,0 L 410.958-3.333 z M 36.751,323.333L 280,323.333 l0-37.331 
		L 36.751,286.002 L 36.751,323.333 z M 317.333,323.333l 93.334,0 l0-37.331 L 317.333,286.002 L 317.333,323.333 z M0,360.667l0-401.334 l 448,0 L 448,360.667 L0,360.667 z"  />
<glyph unicode="&#xe039;" d="M 315.227,210.609c-3.664,3.561-9.673,3.561-13.234-0.106L 197.526,107.055c-3.664-3.672-9.57-3.672-13.234,0
			l-38.182,37.571c-3.664,3.561-9.572,3.561-13.239,0l-23.417-23.215c-3.663-3.571-3.663-9.478-0.098-13.136l 59.665-63.834
			c 3.663-3.672, 10.793-6.623, 15.984-6.623L 196,37.818 c 5.090,0, 12.319,2.95, 15.984,6.623l 126.661,130.113
			c 3.564,3.561, 3.564,9.468-0.098,13.146L 315.227,210.609zM 381.818-23.27L 55.999-23.27 L 55.999,292.366 L 86.546,292.366 l0-14.866 
		c0-11.91, 7.839-15.982, 19.855-15.982c 12.117,0, 20.87,9.666, 20.87,21.581l0,9.267 l 71.274,0 l0-14.866 
		c0-11.91, 13.845-15.982, 25.863-15.982c 12.114,0, 25.046,9.666, 25.046,21.581l0,9.267 l 71.272,0 l0-14.866 
		c0-11.91, 9.267-15.982, 21.277-15.982c 12.117,0, 19.45,9.666, 19.45,21.581l0,9.267 l 20.365,0 L 381.819-23.27 z M 386.809,343.275L 361.454,343.275 
		L 361.454,362.414 c0,11.91-7.333,21.586-19.45,21.586c-12.011,0-21.277-9.677-21.277-21.586l0-19.139 l-71.272,0 L 249.455,359.458 
		C 249.455,371.474, 236.523,384, 224.409,384c-12.018,0-25.863-9.677-25.863-21.586l0-19.139 l-71.274,0 L 127.271,359.458 
		C 127.271,371.474, 118.519,384, 106.402,384C 94.385,384, 86.546,374.323, 86.546,362.414l0-19.139 L 61.596,343.275 c-25.046,0-46.323-20.067-46.323-44.805
		l0-317.664 c0-24.738, 20.264-44.805, 45.31-44.805L 387.415-64 c 25.049,0, 45.313,20.067, 45.313,44.805L 432.728,298.47 
		C 432.728,323.208, 411.856,343.275, 386.809,343.275z"  />
<glyph unicode="&#xe03a;" d="M 206.933,92.648c 4.553,1.924, 9.175,3.556, 14.080,5.057c-15.146,7.679-33.921,16.992-62.295,20.401
		c 11.378,8.611, 16.642,26.244, 26.312,50.424l 0.427,1.062c 2.205-0.353, 4.411-0.353, 6.046,0.64c 4.477,2.776, 7.181,17.854, 7.321,25.246
		c 0.070,11.022-5.545,9.961-5.545,9.961l-0.284,0.067l 0.143,2.627c0,9.96, 2.061,26.813-0.643,36.196
		c-4.121,14.152-3.271,19.487-10.667,27.163c-10.524,10.962-25.739,15.581-31.785,15.581c-4.198,0-24.889,7.391-37.474,3.2
		c-12.232-4.127-5.477-16.293-15.431-16.293c-10.739,0-15.576-15.566-19.628-29.721c-2.634-9.096-0.639-25.737-0.639-36.125l 0.143-2.556
		l-0.5-0.138c0,0-5.618,1.061-5.472-9.961c 0.069-7.391, 2.77-22.47, 7.323-25.246c 1.635-0.994, 3.909-0.994, 6.189-0.64
		l 0.425-1.141c 9.74-24.386, 14.787-41.948, 26.166-50.412c-37.117-4.697-57.812-19.487-75.378-27.17C 0.143,75.371,0,58.090,0,58.090
		l0-28.942 l 162.275,0 l0,17.277 C 162.275,50.913, 164.695,74.091, 206.933,92.648zM 412.091,79.216c-15.576,6.75-33.565,9.736-63.361,14.647c-1.636,2.63-6.115,14.647-9.243,27.376
		c 0.708-0.071, 5.26-3.77, 6.114-3.77c 1.778,0, 3.767,0.143, 5.973,0.36c 1.208,0.139, 14.718,2.769, 20.98,2.769
		c 1.703,0, 2.844-0.214, 3.054-0.713c 0.218-0.64, 1.778-0.848, 3.913-0.848c-0.283,0.923-0.568,1.917-0.784,2.915l-5.897,14.575
		c0,0, 4.404,5.403, 8.032,5.403c 0.499,0, 0.925-0.068, 1.351-0.282c 0.782-0.353, 1.635-0.502, 2.56-0.502c 3.554,0, 7.468,2.139, 7.468,2.139
		c 4.127,33.712, 9.032,102.25-26.882,128.425c-12.372,8.963-22.897,12.092-31.573,12.092c-9.174,0-16.354-3.557-21.477-7.473
		c-5.118,3.917-12.228,7.473-21.475,7.473c-8.674,0-19.198-3.129-31.503-12.092c-35.41-25.813-33.066-92.939-30.076-127.079
		c0,0, 0.422,0.285, 1.277,0.285c 1.208,0, 3.272-0.566, 6.115-3.407c 4.766-4.833, 13.371-5.332, 13.371-5.332l-4.835-17.002l-0.214-0.638
		c 2.063,0.213, 4.124,0.777, 6.115,1.774c 0.285,0.143, 0.998,0.217, 1.848,0.217c 5.264,0, 11.309-2.562, 12.585-2.701
		c 2.206-0.217, 4.198-0.36, 5.976-0.36c 2.345,0, 11.874,3.913, 13.653,4.269c-1.992-8.104-6.399-22.473-10.097-28.089
		c-28.944-5.050-46.649-7.82-61.941-14.508c-35.627-15.577-35.767-32.854-35.767-32.854l0-17.847 L 448,28.512l0,17.776 
		C 448,46.288, 447.858,63.642, 412.091,79.216z"  />
<glyph unicode="&#xe03b;" d="M 366.756,52.12l 80.679,0 l0,18.517 c0,0-0.099,7.9-22.492,17.866c-10.803,4.816-26.321,17.242-50.137,21.515
		c 6.090,6.531, 10.702,16.793, 15.472,28.872c 2.747,7.026, 2.258,13.012, 2.258,21.509c0,6.288, 1.178,16.401-0.395,21.954
		c-5.254,18.756-18.514,23.911-34.030,23.911c-15.569,0-28.878-5.201-34.079-23.963c-1.575-5.549-0.394-15.615-0.394-21.902
		c0-8.547-0.444-14.535, 2.307-21.561c 3.929-9.965, 7.663-18.559, 12.228-24.943c 26.372-15.96, 28.826-33.593, 28.875-39.182M 82.084,74.715c 0.049,5.541, 2.506,22.979, 28.334,38.837c 4.714,6.433, 8.593,15.225, 12.569,25.339
		c 2.753,7.026, 2.31,13.012, 2.31,21.509c0,6.288, 1.175,16.401-0.391,21.954c-5.256,18.756-18.516,23.911-34.082,23.911
		c-15.565,0-28.825-5.201-34.080-23.963c-1.523-5.549-0.341-15.615-0.341-21.902c0-8.547-0.493-14.535, 2.258-21.561
		c 4.813-12.177, 9.328-22.386, 15.416-28.869c-23.616-4.376-40.363-16.698-51.117-21.514c-22.295-9.965-22.393-20.872-22.393-20.872
		l0-15.465 l 80.683,0 M 317.256,103.235c-14.88,6.633-37.274,23.774-69.978,29.62c 8.347,8.987, 14.68,23.028, 21.213,39.679
		c 3.782,9.666, 3.146,17.869, 3.146,29.558c0,8.691, 1.621,22.539-0.545,30.152c-7.216,25.78-25.434,32.903-46.796,32.903
		c-21.41,0-39.679-7.123-46.848-32.95c-2.112-7.611-0.492-21.461-0.492-30.104c0-11.738-0.638-19.938, 3.143-29.611
		c 6.58-16.741, 12.817-30.741, 21.119-39.729c-32.461-5.94-55.788-22.929-70.566-29.563c-30.645-13.696-30.794-28.677-30.794-28.677
		l0-22.391 l 248.288,0 l0,25.435 C 348.144,77.556, 347.996,89.541, 317.256,103.235z"  />
<glyph unicode="&#xe03c;" d="M 379.955,107.030c 29.25,0, 52.919,24.749, 52.919,55.265c0,30.509-23.67,55.257-52.919,55.257
	c-24.028,0-44.37-16.92-50.761-39.966L 196.893,177.587 L 270.961,311.693l 58.234,0 c 6.389-23.045, 26.731-39.954, 50.761-39.954
	c 29.25,0, 52.919,24.749, 52.919,55.248C 432.875,357.502, 409.205,382.25, 379.955,382.25c-24.028,0-44.37-16.83-50.761-39.867l-75.152,0 
	L 162.963,177.588l-49.408,0 c-6.389,23.046-26.733,39.966-50.762,39.966c-29.25,0-52.918-24.748-52.918-55.257
	c0-30.516, 23.668-55.265, 52.918-55.265c 24.028,0, 44.372,16.831, 50.762,39.868l 49.408,0 l 90.993-165.78l 75.239,0 
	c 6.389-23.038, 26.731-39.868, 50.761-39.868c 29.25,0, 52.919,24.748, 52.919,55.265c0,30.497-23.67,55.251-52.919,55.251
	c-24.028,0-44.37-16.909-50.761-39.955L 270.961,11.812 l-74.156,135.088l 132.39,0 C 335.584,123.861, 355.926,107.030, 379.955,107.030z"  />
<glyph unicode="&#xe03d;" d="M 339.504,22.873L 108.494,22.873 L 108.494,297.126 l 231.010,0 L 339.504,22.873 z M 224-41.994
		c-12.080,0-21.913,9.55-21.913,21.229c0,11.699, 9.833,21.135, 21.913,21.135c 12.174,0, 22.006-9.436, 22.006-21.135
		C 246.006-32.444, 236.174-41.994, 224-41.994z M 331.034,384L 116.963,384 c-18.892,0-34.18-14.802-34.18-33.116l0-381.769 
		c0-18.318, 15.288-33.115, 34.18-33.115l 214.071,0 c 18.892,0, 34.182,14.797, 34.182,33.115L 365.216,350.884 C 365.217,369.198, 349.927,384, 331.034,384z"  />
<glyph unicode="&#xe03e;" d="M 80.063,114.062L 112,114.062 L 112,56.75 L 80.063,56.75 L 80.063,114.062 z M 24.063,114.062L 56,114.062 L 56,56.75 L 24.063,56.75 L 24.063,114.062 z M 80.063,212.5L 112,212.5 
		l0-57.438 L 80.063,155.062 L 80.063,212.5 z M 24.063,212.5L 56,212.5 l0-57.438 L 24.063,155.062 L 24.063,212.5 z M 184.062,105.875L 280,105.875 l0-41.031 L 184.062,64.844 L 184.062,105.875 z M 184.062,187.781L 280,187.781 L 280,146.875 L 184.062,146.875 
		L 184.062,187.781 z M 184.062,269.812L 280,269.812 l0-41 L 184.062,228.813 L 184.062,269.812 z M 184.062,351.844L 280,351.844 L 280,310.937 L 184.062,310.937 L 184.062,351.844 z M 352.062,130.562L 423.938,130.562 L 423.938,40.344 l-71.875,0 
		L 352.062,130.562 z M 352.062,253.5L 423.938,253.5 L 423.938,163.281 l-71.875,0 L 352.062,253.5 z M 328,286.219L 328-8.875 L 304.063-8.875 l 0.564,386.969l-143.938,0 L 160-8.875L 136.063-8.875 L 136.063,245.312 
		L0,245.312 l0-303.406 l 448,0 l0,344.313 L 328,286.219 z"  />
<glyph unicode="&#xe03f;" d="M 373.852,276.949l-52.867,0 L 320.984,329.82 l 52.867,0 L 373.852,276.949 z M 373.852,171.218l-52.867,0 l0,52.869 
		l 52.867,0 L 373.852,171.218 z M 373.852,56.67l-52.867,0 l0,52.871 l 52.867,0 L 373.852,56.67 z M 285.737,382.687L 285.737-57.875 l 132.17,0 L 417.907,382.687 L 285.737,382.687 zM 202.874,171.218l-52.865,0 l0,52.869 l 52.865,0 L 202.874,171.218 z M 202.874,56.67l-52.865,0 
		l0,52.871 l 52.865,0 L 202.874,56.67 z M 105.954,171.218L 53.084,171.218 l0,52.869 l 52.869,0 L 105.954,171.218 z M 105.954,56.67L 53.084,56.67 l0,52.871 l 52.869,0 L 105.954,56.67 z
		 M 202.874,312.197l-79.301,0 l0-35.248 L 70.708,276.949 L 70.708,329.82 l-17.623,0 l0-52.871 L 17.844,276.949 L 17.844-57.875 l 229.089,0 L 246.933,276.949 l-44.059,0 L 202.874,312.197 z"  />
<glyph unicode="&#xe040;" d="M 348.019,34.159l-7.837-5.199l 7.633-62.512l-65.88,0 l 4.888,40.53l-19.246-2.45
		c-8.139-1.020-16.487-1.53-24.942-1.53c-7.128,0-14.155,0.409-21.181,1.112l-18.936,2.051l 4.889-39.714l-65.88,0 l 7.231,60.374
		l-8.046,5.087c-31.963,20.369-55.69,49.801-66.482,83.499l-3.771,11.603l-40.219-3.867l0,68.518 l 40.015-3.857l 3.664,11.7
		c 9.675,30.55, 29.739,57.634, 56.926,77.586l 6.307,4.684l-1.016,69.641l 72.799-41.434l 5.093,0.71
		c 9.368,1.322, 18.936,2.138, 28.61,2.138c 48.872,0, 92.959-17.818, 124.524-46.015c 31.565-28.31, 50.603-66.701, 50.603-108.952
		C 417.762,107.663, 390.882,62.77, 348.019,34.159z M 448,157.862c0,51.725-23.518,98.358-60.783,131.658
		c-37.264,33.289-88.378,53.654-144.582,53.654c-9.363,0-18.63-0.618-27.696-1.731L 146.415,380.439
		C 142.241,382.776, 137.659,384, 132.975,384c-4.679,0-9.568-1.224-13.843-3.868c-8.148-4.877-13.241-13.653-13.338-23.216l0-0.2 
		l 0.096-0.913l 0.817-58.966c-25.56-20.36-45.516-46.627-57.425-76.457l-22.809,2.143l-2.337,0.2c-6.010,0-11.813-2.244-16.293-6.424
		C 2.847,211.827,0,205.204,0,198.382l0-81.953 c0-6.72, 2.847-13.344, 7.94-18.022c 4.48-3.97, 10.287-6.216, 16.293-6.216l 2.24,0.097
		l 23.217,2.25c 13.338-33.3, 36.856-61.814, 66.793-82.887l-5.802-48.367c-0.107-0.812-0.204-1.832-0.204-2.944
		c0-6.010, 2.139-11.711, 6.107-16.195c 4.582-5.191, 11.196-8.145, 18.125-8.145l 79.52,0 c 6.919,0, 13.439,2.954, 18.022,8.256
		c 3.97,4.47, 6.107,10.18, 6.107,16.083c0,1.016-0.102,1.929-0.204,2.746l-1.123,9.567l 5.603-0.096c 3.256,0, 6.414,0.096, 9.67,0.194
		l-1.214-9.563c-0.108-0.714-0.204-1.734-0.204-2.847c0-6.010, 2.235-11.711, 6.107-16.195c 4.685-5.191, 11.195-8.145, 18.119-8.145
		L 354.637-64.001 c 6.919,0, 13.435,2.954, 18.023,8.145c 4.066,4.582, 6.107,10.389, 6.107,16.195c0,1.016-0.102,1.832-0.102,2.546l-6.21,51.307
		C 418.17,47.9, 448,99.626, 448,157.862zM 241.415,269.161c-8.348,0.194-15.277-6.429-15.578-14.778c-0.204-8.342, 6.307-15.374, 14.66-15.675l 1.73-0.097
		c 9.369-0.515, 52.133-6.016, 80.438-34.11c 2.955-2.858, 6.721-4.277, 10.486-4.277c 3.97,0, 7.843,1.521, 10.899,4.679
		c 5.797,6.006, 5.593,15.574-0.409,21.477C 300.463,267.824, 242.936,268.84, 241.415,269.161zM 127.371,205.72c-13.332-14.359-17.302-32.483-8.751-40.628c 8.655-8.046, 26.376-2.954, 39.704,11.293
		c 13.444,14.358, 17.313,32.596, 8.761,40.627C 158.431,225.069, 140.711,220.078, 127.371,205.72z"  />
<glyph unicode="&#xe041;" d="M 331.332-48.398l-22.829,79.517c-1.809,6.2-4.48,6.891-12.666,7.236l-4.579-0.015
	c-0.401,0.068-0.777,0.035-1.109,0.035l-13.122,0 c 9.081,28.875, 14.491,67.523, 14.491,114.318C 291.518,259.71, 263.375,347.264, 227.5,352.715L 227.5,381.763 
	C 227.5,383.058, 225.982,384, 224,384s-3.5-0.942-3.5-2.237l0-29.047 c-35.875-5.45-64.033-92.928-64.033-199.946c0-46.763, 5.401-85.289, 14.47-114.18
	l-10.785,0.112c-12.492,0.082-14.304-0.859-16.46-6.986l-26.79-78.312c-2.154-6.105, 1.809-12.841, 8.784-15.076
	c 6.891-2.322, 14.301,0.939, 16.371,6.97L 163.17,6.875l 19.225,0 c 1.372-26.25, 17.681-46.375, 37.628-46.375l 7.925,0 c 19.949,0, 36.258,20.125, 37.63,46.375l 20.205,0 
	l 17.979-62.705c 1.725-6.191, 9.392-9.59, 16.974-7.528C 328.32-61.284, 333.057-54.607, 331.332-48.398z M 224.848,282.166
	c 18.004-0.608, 32.397-15.768, 31.617-33.253c-0.777-17.581-16.629-31.363-34.549-30.236c-17.399,1.204-30.668,15.076-30.411,32.040
	C 191.679,268.385, 207.017,282.771, 224.848,282.166z"  />
<glyph unicode="&#xe042;" d="M 397.039,268.078L 424.666,384L 310.894,355.997L 339.732,326.596L 232.212,213.666L 183.399,262.201L 23.334,98.959L 53.854,67.881L 183.399,199.941L 229.973,152.433L 370.251,295.425 	zM 59.081,42.586L 116.575,42.586L 116.575-64L 59.081-64zM 154.278,95.88L 211.866,95.88L 211.866-64L 154.278-64zM 253.122,149.83L 310.706,149.83L 310.706-64L 253.122-64zM 349.347,202.374L 406.837,202.374L 406.837-64L 349.347-64z"  />
<glyph unicode="&#xe043;" d="M 409.875,34.822L 38.127,34.822 L 38.127,294.808 l 371.748,0 L 409.875,34.822 z M0,333.809l0-338.867 l 448,0 L 448,333.809 
		L0,333.809 zM 71.107,102.995c 8.006-6.479, 19.731-5.232, 26.213,2.67l 19.064,23.355l 30.312-40.786c 4.003-5.435, 10.674-8.215, 17.443-7.347
		c 6.769,0.857, 12.485,5.332, 14.966,11.628l 28.786,72.924l 41.751-97.612c 2.952-6.964, 9.721-11.339, 17.159-11.339l 1.046,0 
		c 7.913,0.468, 14.584,5.809, 16.872,13.241l 39.749,132.884l 17.536-35.846c 4.483-9.152, 15.635-12.964, 24.883-8.478
		c 9.339,4.476, 13.15,15.535, 8.67,24.778l-38.51,78.547c-3.43,6.959-10.674,10.963-18.301,10.389
		c-7.722-0.668-14.2-5.809-16.392-13.156l-38.702-129.158l-39.272,92.080c-2.957,6.955-9.821,11.436-17.446,11.245
		c-7.624-0.091-14.388-4.672-17.154-11.722l-33.171-84.079l-24.501,33.079c-3.523,4.587-8.861,7.339-14.582,7.434
		c-5.814,0.19-11.343-2.285-14.969-6.761l-34.217-41.85C 61.863,121.109, 63.103,109.481, 71.107,102.995z"  />
<glyph unicode="&#xe044;" d="M 277.081,294.406c-7.304,0-13.249,5.85-13.249,13.059
		c0,7.103, 5.946,12.954, 13.249,12.954c 7.401,0, 13.344-5.85, 13.344-12.954C 290.425,300.256, 284.482,294.406, 277.081,294.406z
		 M 170.919,294.406c-7.399,0-13.344,5.85-13.344,13.059c0,7.103, 5.945,12.954, 13.344,12.954c 7.305,0, 13.249-5.85, 13.249-12.954
		C 184.168,300.256, 178.224,294.406, 170.919,294.406z M 284.966,344.176l 4.968,9.643l 4.971,7.209l 11.003,16.264
		c 1.361,1.943, 0.782,4.669-1.264,5.935c-2.046,1.371-4.775,0.875-6.139-1.168l-11.785-17.337L 281.75,357.322l-5.058-7.401
		c-15.974,6.135-33.898,9.55-52.692,9.55c-18.795,0-36.618-3.415-52.693-9.55l-4.965,7.401l-4.965,7.401l-11.883,17.337
		c-1.366,2.043-4.095,2.539-6.141,1.168c-2.046-1.266-2.624-3.993-1.264-5.935l 11.004-16.264l 4.971-7.209l 4.968-9.643
		c-37.596-17.139-63.015-49.571-63.015-86.778l 247.962,0 C 347.981,294.606, 322.563,327.038, 284.966,344.176zM 104.208,237.92l-1.95,0 l0-17.139 l0-17.635 L 102.258,51.124 c0-15.107, 12.564-27.471, 28.049-27.471l 18.020,0 
		c-0.68-2.243, 2.629-4.678, 2.629-7.209l0-0.969 l0-8.675 l0-44.796 c0-14.313, 11.199-26.005, 25.807-26.005
		c 14.711,0, 22.888,11.691, 22.888,26.005l0,44.796 l0,8.675 l0,0.969 c0,2.532, 0.39,4.966-0.295,7.209l 49.287,0 
		c-0.685-2.243-0.295-4.678-0.295-7.209l0-0.969 l0-8.675 l0-44.796 c0-14.313, 8.179-26.005, 22.888-26.005c 14.608,0, 25.807,11.691, 25.807,26.005
		l0,44.796 l0,8.675 l0,0.969 c0,2.532, 3.309,4.966, 2.629,7.209l 18.020,0 c 15.484,0, 28.049,12.364, 28.049,27.471L 345.742,203.146 l0,17.635 l0,17.139 
		l-1.95,0 L 104.208,237.92 zM 61.061,242.397c-14.608,0-26.978-11.687-26.978-26.001L 34.083,105.067 c0-14.302, 12.37-26.001, 26.978-26.001
		c 14.711,0, 21.718,11.699, 21.718,26.001L 82.779,216.396 C 82.778,230.711, 75.772,242.397, 61.061,242.397zM 386.939,242.397c-14.711,0-21.718-11.687-21.718-26.001L 365.221,105.067 c0-14.302, 7.008-26.001, 21.718-26.001
		c 14.608,0, 26.978,11.699, 26.978,26.001L 413.917,216.396 C 413.917,230.711, 401.547,242.397, 386.939,242.397z"  />
<glyph unicode="&#xe045;" d="M 222.115,132.543c-33.226,0-60.136-26.91-60.136-60.135c0-33.207, 26.91-60.134, 60.136-60.134
		c 33.2,0, 60.111,26.926, 60.111,60.134C 282.226,105.634, 255.315,132.543, 222.115,132.543zM 316.357,193.24L 316.357,281.725 c0,51.009-43.243,92.508-94.251,92.508c-55.675,0-94.258-41.5-94.258-92.508l0-88.484 
		l-8.765,0 l0,8.659 c0,2.096-1.694,3.79-3.789,3.79l-26.525,0 c-2.094,0-3.789-1.695-3.789-3.79l0-8.659 l-12.197,0 l0-244.038 l 298.643,0 L 371.426,193.24 
		L 316.357,193.24 z M 174.539,280.039c0,26.213, 21.339,45.802, 47.568,45.802c 26.229,0, 47.56-19.589, 47.56-45.802l0-86.976 l-6.866,0 l-82.141,0 
		l-6.122,0 L 174.538,280.039 z M 222.107-0.219c-40.114,0-72.637,32.515-72.637,72.629c0,40.122, 32.523,72.643, 72.637,72.643
		c 40.115,0, 72.637-32.521, 72.637-72.643C 294.744,32.296, 262.222-0.219, 222.107-0.219z M 362.92,161.994
		c0-2.095-1.696-3.79-3.789-3.79l-34.105,0 c-2.096,0-3.789,1.696-3.789,3.79l0,16.422 c0,2.087, 1.694,3.79, 3.789,3.79l 34.105,0 
		c 2.094,0, 3.789-1.703, 3.789-3.79L 362.92,161.994 z"  />
<glyph unicode="&#xe046;" d="M 395.492-11.271c-5.63-5.639-14.584-5.639-20.212,0
		c-5.519,5.514-5.519,14.58,0,20.105c 5.627,5.613, 14.583,5.613, 20.212,0C 401.016,3.309, 401.016-5.757, 395.492-11.271z
		 M 424.768,32.168l-85.226,63.233l-50.942-50.94l 62.821-85.65c 15.004,11.364, 45.737,1.571, 72.412-22.803L 448-39.819
		C 423.932-13.369, 414.141,16.951, 424.768,32.168zM 311.313,147.611l-2.188-2.72c 0.208-16.046-5.313-31.568-15.837-44.167l-38.129-45.11l0-0.733 l 9.167-9.176l 74.283,74.491
		L 311.313,147.611zM 165.872,158.533l 24.588,29.186c 10.524,12.381, 24.898,20.514, 40.735,23.019l 0.836,1.049L 72.734,371.601
		c-16.464,16.46-43.236,16.46-59.7,0c-16.461-16.568-16.461-43.345,0-59.806L 165.872,158.533zM 187.023,121.966c-5.313,2.605-10.735,4.802-16.042,6.468c-18.133-2.093-89.909-18.338-95.955-74.491
		c-8.441-79.604-61.255-66.153-73.342-67.196c-6.979-0.622, 6.459-48.142, 64.697-50.324c 57.718-2.087, 160.439,34.911, 164.606,129.079
		l 0.935,1.039C 224.632,95.918, 206.608,111.862, 187.023,121.966zM 283.286,152.919l 158.36,188.046c 9.269,11.037, 7.917,27.5-3.129,36.882c-11.046,9.266-27.399,7.917-36.776-3.132
		L 243.489,186.674c-12.604,0.406-25.211-4.701-33.964-15.006l-24.068-28.549c 3.231-1.355, 6.568-2.82, 9.796-4.375
		c 20.42-9.899, 40.316-27.5, 50.94-55.215l 28.029,33.33C 282.978,127.18, 285.89,140.627, 283.286,152.919z"  />
<glyph unicode="&#xe047;" d="M 445.264,62.876L 224,259.558L 2.736,62.876 z"  />
<glyph unicode="&#xe048;" d="M 43.599-53.447c-6.434,0-12.868,2.452-17.789,7.361c-9.831,9.812-9.831,25.754,0,35.566l 368.804,368.804
					c 9.831,9.831, 25.735,9.831, 35.566,0c 9.831-9.812, 9.831-25.754,0-35.566l-368.804-368.804C 56.467-50.996, 50.033-53.447, 43.599-53.447zM 412.409-53.447c-6.434,0-12.868,2.452-17.789,7.361l-368.804,368.804c-9.831,9.812-9.831,25.754,0,35.566
					c 9.831,9.831, 25.735,9.831, 35.566,0l 368.804-368.804c 9.831-9.812, 9.831-25.754,0-35.566C 425.289-50.996, 418.843-53.447, 412.409-53.447z"  />
<glyph unicode="&#xe049;" d="M 395.736,300.101L 224.438,128.802L 53.139,300.101L 0.438,247.399L 158.56,89.276L 184.911,62.926L 224.438,23.399L 448.438,247.399 z"  />
<glyph unicode="&#xe04a;" d="M 395.736,23.399L 224.438,194.698L 53.139,23.399L 0.438,76.101L 158.56,234.225L 184.911,260.574L 224.438,300.101L 448.438,76.101 z"  />
<glyph unicode="&#xe04b;" d="M 125.66,382.48L 322.341,161.216L 125.66-60.048 z"  />
<glyph unicode="&#x25c4;" d="M 322.342,382.48L 125.66,161.216L 322.342-60.048 z"  />
<glyph unicode="&#xe04c;" d="M 433.024,24.274l-93.661,58.010c-4.918,2.584-12.169,1.501-16.003-2.543l-27.525-29.025
		c-3.855-4.063-11.524-7.48-17.066-7.48c0,0-35.215-0.417-100.726,68.303c-65.51,68.7-65.281,105.81-65.281,105.81
		c0,5.771, 3.189,13.877, 7.043,17.919l 23.692,24.546c 3.835,4.063, 5.127,11.751, 2.752,16.878L 94.615,378.666
		C 92.28,384, 87.154,384.855, 83.32,380.79L 19.309,313.801c-3.834-4.064-7.689-11.94-8.334-17.712c0,0-12.585-98.163, 118.436-235.56
		c 131.001-137.397, 224.455-124.187, 224.455-124.187c 5.542,0.646, 13.023,4.708, 16.858,8.75l 64.239,67.219
		C 438.795,16.356, 437.92,21.691, 433.024,24.274zM 204.090,208.388c 13.877-3.627, 26.879-11.086, 37.548-22.379c 10.876-11.336, 17.919-24.984, 21.337-39.486l 26.026,0 
		c-2.564,22.4-12.149,43.32-27.735,59.531c-15.586,16.42-35.631,26.463-57.176,29.214L 204.090,208.388 zM 400.581,146.523l 30.755,0 C 428.962,269.648, 321.652,382.083, 204.090,384l0-31.589 C 309.483,346.244, 394.205,257.27, 400.581,146.523zM 329.319,146.523l 30.964,0 c-6.209,87.495-72.971,157.672-156.193,163.652l0-32.651 
		C 270.434,271.773, 323.361,216.077, 329.319,146.523z"  />
<glyph unicode="&#xe04d;" d="M 71.12,2.413l-8.872,0 c-5.322,0-8.872-3.55-8.872-8.872l0-8.872 
				c0-5.322, 3.55-8.872, 8.872-8.872l 8.872,0 c 5.322,0, 8.872,3.55, 8.872,8.872l0,8.872 C 79.987-1.132, 76.442,2.413, 71.12,2.413M 142.083,2.413l-8.872,0 c-5.322,0-8.872-3.55-8.872-8.872l0-8.872 
				c0-5.322, 3.55-8.872, 8.872-8.872l 8.872,0 c 5.322,0, 8.872,3.55, 8.872,8.872l0,8.872 C 150.955-1.132, 147.405,2.413, 142.083,2.413M 213.045,2.413l-8.872,0 c-5.322,0-8.872-3.55-8.872-8.872l0-8.872 
				c0-5.322, 3.55-8.872, 8.872-8.872l 8.872,0 c 5.322,0, 8.872,3.55, 8.872,8.872l0,8.872 C 221.917-1.132, 218.368,2.413, 213.045,2.413M 106.599-33.066l-8.872,0 c-5.322,0-8.872-3.55-8.872-8.872l0-8.872 
				c0-5.322, 3.55-8.872, 8.872-8.872l 8.872,0 c 5.322,0, 8.872,3.55, 8.872,8.872l0,8.872 C 115.471-36.616, 111.921-33.066, 106.599-33.066M 177.566-33.066l-8.872,0 c-5.322,0-8.872-3.55-8.872-8.872l0-8.872 
				c0-5.322, 3.55-8.872, 8.872-8.872l 8.872,0 c 5.322,0, 8.872,3.55, 8.872,8.872l0,8.872 C 186.434-36.616, 182.889-33.066, 177.566-33.066M 44.508,20.157c0-5.322-3.55-8.872-8.872-8.872l-8.872,0 c-5.322,0-8.872,3.55-8.872,8.872l0,8.872 c0,5.322, 3.55,8.872, 8.872,8.872l 8.872,0 
				c 5.322,0, 8.872-3.55, 8.872-8.872L 44.508,20.157 M 115.471,20.157c0-5.322-3.55-8.872-8.872-8.872l-8.872,0 c-5.322,0-8.872,3.55-8.872,8.872l0,8.872 c0,5.322, 3.55,8.872, 8.872,8.872l 8.872,0 
				c 5.322,0, 8.872-3.55, 8.872-8.872L 115.471,20.157 M 186.434,20.157c0-5.322-3.55-8.872-8.872-8.872l-8.872,0 c-5.322,0-8.872,3.55-8.872,8.872l0,8.872 c0,5.322, 3.55,8.872, 8.872,8.872l 8.872,0 
				c 5.322,0, 8.872-3.55, 8.872-8.872L 186.434,20.157 M 257.401,20.157c0-5.322-3.55-8.872-8.872-8.872l-8.872,0 c-5.322,0-8.872,3.55-8.872,8.872l0,8.872 c0,5.322, 3.55,8.872, 8.872,8.872l 8.872,0 
				c 5.322,0, 8.872-3.55, 8.872-8.872L 257.401,20.157 M 182.889,228.612L 92.409,228.612 l0,52.335 c0,23.95, 21.289,48.789, 44.351,48.789l 2.661,0 c 23.062,0, 43.467-24.839, 43.467-48.789L 182.889,228.612 
				L 182.889,228.612z M 221.917,228.612l0,52.335 c0,47.901-36.368,88.707-82.496,88.707l-1.773,0l-1.773,0c-46.128,0-83.384-40.806-83.384-88.707l0-52.335 l-44.351,0 l0-180.959 l 257.244,0 l0,180.959L 221.917,228.612 L 221.917,228.612z" horiz-adv-x="268.43"  />
<glyph unicode="&#xe04e;" d="M 121.956,20.622l 204.885,0 c0,13.938,0,15.332,0,16.725l-27.876,172.828C 296.178,229.689, 278.059,243.627, 258.546,243.627l-66.901,0 
				c-19.513,0-37.632-13.938-40.42-33.451l-27.876-172.828C 123.349,35.954, 123.349,34.56, 121.956,20.622L 121.956,20.622z M 176.313,204.601c 1.394,5.575, 8.363,11.15, 15.332,11.15l 68.295,0 c 6.969,0, 13.938-5.575, 15.332-11.15
				l 23.694-140.772l-129.621,98.958L 176.313,204.601L 176.313,204.601zM 209.764,369.067l 27.876,0 l0-97.564 l-27.876,0 L 209.764,369.067 zM 344.96,129.337l 82.233,18.119l-6.969,34.844l-82.233-18.119L 344.96,129.337M 377.017,286.834l-22.3,25.088l-59.932-66.901l 22.3-25.088L 377.017,286.834M 101.049,165.575l-82.233,18.119l-6.969-34.844l 82.233-18.119L 101.049,165.575M 145.65,245.020l-59.932,66.901l-22.3-25.088l 59.932-66.901L 145.65,245.020M 117.774-7.253L 84.324-7.253 l0-41.813 l 278.756,0 l0,41.813 L 117.774-7.253 " horiz-adv-x="445.013"  />
<glyph unicode="&#xf003;" d="M 416,8l0,192 q-8-9 -17.25-16.5q-67-51.5 -106.5-84.5q-12.75-10.75 -20.75-16.75t-21.625-12.125t-25.625-6.125l-0.25,0 l-0.25,0 q-12,0 -25.625,6.125t-21.625,12.125t-20.75,16.75q-39.5,33 -106.5,84.5q-9.25,7.5 -17.25,16.5l0-192 q0-3.25 2.375-5.625t 5.625-2.375l 368,0 q 3.25,0 5.625,2.375t 2.375,5.625zM 416,270.75l0,2.75 l0,3.375 t-0.125,3.25 t-0.75,3.125t-1.375,2.25t-2.25,1.875t-3.5,0.625l-368,0 q-3.25,0 -5.625-2.375t-2.375-5.625q0-42 36.75-71q 48.25-38 100.25-79.25q 1.5-1.25 8.75-7.375t 11.5-9.375t 11.125-7.875t 12.625-6.875t 10.75-2.25l 0.25,0 l 0.25,0 q 5,0 10.75,2.25t 12.625,6.875t 11.125,7.875t 11.5,9.375t 8.75,7.375q 52,41.25 100.25,79.25q 13.5,10.75 25.125,28.875t 11.625,32.875z M 448,280l0-272 q0-16.5 -11.75-28.25t-28.25-11.75l-368,0 q-16.5,0 -28.25,11.75t-11.75,28.25l0,272 q0,16.5 11.75,28.25t 28.25,11.75l 368,0 q 16.5,0 28.25-11.75t 11.75-28.25z"  />
<glyph unicode="&#x20;" horiz-adv-x="224" />
</font>
</defs>
</svg>
