<?xml version="1.0" encoding="utf-8"?>
<!-- Generator: Adobe Illustrator 19.2.1, SVG Export Plug-In . SVG Version: 6.00 Build 0)  -->
<svg version="1.1" xmlns="http://www.w3.org/2000/svg" xmlns:xlink="http://www.w3.org/1999/xlink" x="0px" y="0px"
	 viewBox="0 0 176 120" style="enable-background:new 0 0 176 120;" xml:space="preserve">
<style type="text/css">
	.st0{fill:#00C653;}
	.st1{fill:#313739;}
	.st2{fill:none;stroke:#313739;stroke-width:2;stroke-linecap:round;stroke-linejoin:round;stroke-miterlimit:10;}
	.st3{fill:none;stroke:#00C653;stroke-width:2;stroke-linecap:round;stroke-linejoin:round;stroke-miterlimit:10;}
	.st4{fill:#FFFFFF;}
	.st5{fill:#47C9C9;}
	.st6{fill:none;stroke:#47C9C9;stroke-width:3;stroke-linecap:round;stroke-linejoin:round;}
</style>
<g id="outlined-icons">
	<g>
		<g>
			<path class="st1" d="M73.119,56H41.881C38.087,56,35,52.913,35,49.119V17.881C35,14.087,38.087,11,41.881,11h31.237
				C76.913,11,80,14.087,80,17.881v31.237C80,52.913,76.913,56,73.119,56z M41.881,13C39.19,13,37,15.19,37,17.881v31.237
				C37,51.81,39.19,54,41.881,54h31.237C75.81,54,78,51.81,78,49.119V17.881C78,15.19,75.81,13,73.119,13H41.881z"/>
			<path class="st1" d="M73.119,109H41.881c-3.794,0-6.881-3.087-6.881-6.881V70.881C35,67.087,38.087,64,41.881,64h31.237
				C76.913,64,80,67.087,80,70.881v31.237C80,105.913,76.913,109,73.119,109z M41.881,66C39.19,66,37,68.19,37,70.881v31.237
				c0,2.691,2.19,4.881,4.881,4.881h31.237c2.691,0,4.881-2.19,4.881-4.881V70.881C78,68.19,75.81,66,73.119,66H41.881z"/>
			<path class="st1" d="M126.119,109H94.881c-3.794,0-6.881-3.087-6.881-6.881V70.881C88,67.087,91.087,64,94.881,64h31.237
				c3.794,0,6.881,3.087,6.881,6.881v31.237C133,105.913,129.913,109,126.119,109z M94.881,66C92.19,66,90,68.19,90,70.881v31.237
				c0,2.691,2.19,4.881,4.881,4.881h31.237c2.691,0,4.881-2.19,4.881-4.881V70.881c0-2.691-2.19-4.881-4.881-4.881H94.881z"/>
			<path class="st1" d="M64.152,94h-13.38c-0.981,0-1.84-0.471-2.295-1.261c-0.43-0.744-0.416-1.656,0.038-2.441l6.694-11.385
				c0.471-0.816,1.353-1.327,2.299-1.328c0.925,0,1.752,0.477,2.213,1.274l6.688,11.464c0.001,0.001,0.001,0.002,0.002,0.004
				c0.45,0.78,0.466,1.684,0.043,2.418C66,93.531,65.14,94,64.152,94z M57.508,79.585c-0.237,0-0.45,0.125-0.571,0.334
				l-6.694,11.385c-0.093,0.162-0.105,0.31-0.034,0.435C50.282,91.865,50.468,92,50.772,92h13.38c0.312,0,0.498-0.131,0.569-0.254
				c0.066-0.114,0.052-0.254-0.042-0.417l-6.688-11.466C57.851,79.621,57.628,79.585,57.508,79.585z"/>
			<path class="st1" d="M57.462,44.718c-0.698,0-1.355-0.272-1.849-0.766l-8.183-8.182c-0.494-0.494-0.766-1.151-0.766-1.85
				c0-0.698,0.272-1.355,0.766-1.849l8.183-8.182c0.988-0.988,2.711-0.988,3.699,0l8.182,8.182c0.494,0.494,0.766,1.151,0.766,1.849
				c0,0.699-0.272,1.355-0.766,1.85l-8.182,8.182C58.818,44.446,58.161,44.718,57.462,44.718z M57.462,25.122
				c-0.164,0-0.318,0.064-0.435,0.181l-8.183,8.182c-0.116,0.116-0.18,0.271-0.18,0.435c0,0.165,0.064,0.319,0.18,0.436l8.183,8.182
				c0.232,0.232,0.638,0.231,0.871,0l8.182-8.182c0.116-0.116,0.18-0.271,0.18-0.436c0-0.164-0.064-0.319-0.18-0.435l-8.182-8.182
				C57.781,25.186,57.627,25.122,57.462,25.122z"/>
			<path class="st1" d="M126.549,56h-31.25C91.711,56,88,53.585,88,49.545v-31.25C88,14.477,91.479,11,95.298,11H97
				c0.552,0,1,0.448,1,1s-0.448,1-1,1h-1.702C92.625,13,90,15.623,90,18.295v31.25C90,52.297,92.75,54,95.298,54h31.25
				c2.704,0,4.451-1.749,4.451-4.455V48c0-0.552,0.448-1,1-1s1,0.448,1,1v1.545C133,53.346,130.347,56,126.549,56z"/>
			<path class="st1" d="M110.924,96.167c-5.371,0-9.74-4.37-9.74-9.74s4.37-9.74,9.74-9.74s9.74,4.37,9.74,9.74
				S116.294,96.167,110.924,96.167z M110.924,78.687c-4.268,0-7.74,3.472-7.74,7.74s3.472,7.74,7.74,7.74
				c4.268,0,7.74-3.472,7.74-7.74S115.191,78.687,110.924,78.687z"/>
		</g>
		<path class="st0" d="M134.119,49h-31.237C99.087,49,96,45.913,96,42.119V10.881C96,7.087,99.087,4,102.881,4h31.237
			C137.913,4,141,7.087,141,10.881v31.237C141,45.913,137.913,49,134.119,49z M102.881,6C100.19,6,98,8.19,98,10.881v31.237
			C98,44.81,100.19,47,102.881,47h31.237c2.691,0,4.881-2.19,4.881-4.881V10.881C139,8.19,136.81,6,134.119,6H102.881z"/>
		<g>
			<path class="st0" d="M126.988,20.404c-0.665-0.471-3.96-2.375-8.45-2.375c-4.491,0-7.786,1.904-8.45,2.375
				c-0.096,0.776-0.075,4.137,2.336,8.388c2.568,4.525,5.418,5.629,6.114,5.792h0.001h0.001c0.695-0.163,3.546-1.268,6.114-5.792
				C127.063,24.541,127.083,21.18,126.988,20.404z M119,32.874c0-0.001,0,0.126,0,0.126s-0.465,0-0.466,0
				c-0.979-1-2.064-1.645-2.906-2.656c0.842-0.764,1.877-1.344,2.903-1.344c0.002,0,0.004,0,0.006,0c0.002,0,0.004,0,0.006,0
				c1.026,0,2.284,0.517,3.126,1.281C120.827,31.292,120,32.475,119,32.874z M122.578,28.638c-1.225-1.012-2.632-1.638-4.035-1.638
				c-0.002,0-0.004,0-0.006,0c-0.002,0-0.004,0-0.006,0c-1.403,0-2.81,0.626-4.035,1.638c-0.326-0.467-1.002-1.371-1.371-2.202
				c1.637-1.213,3.468-1.436,5.405-1.436c0.002,0,0.004,0,0.006,0c0.002,0,0.004,0,0.006,0c1.937,0,3.767,0.231,5.404,1.445
				C123.579,27.275,122.905,28.17,122.578,28.638z M124.632,24.715c-2.006-1.293-3.974-1.715-6.088-1.715c-0.002,0-0.004,0-0.006,0
				c-0.002,0-0.004,0-0.006,0c-2.114,0-4.085,0.415-6.091,1.708c-0.243-0.774-0.532-1.989-0.575-2.998
				c2.026-1.109,4.407-1.71,6.666-1.71c0.002,0,0.004,0,0.006,0c0.002,0,0.004,0,0.006,0c2.26,0,4.64,0.601,6.667,1.71
				C125.167,22.719,124.874,23.941,124.632,24.715z"/>
		</g>
	</g>
</g>
<g id="lined-icons">
</g>
<g id="specs">
</g>
</svg>
