<?xml version="1.0" encoding="utf-8"?>
<!-- Generator: Adobe Illustrator 19.2.1, SVG Export Plug-In . SVG Version: 6.00 Build 0)  -->
<svg version="1.1" xmlns="http://www.w3.org/2000/svg" xmlns:xlink="http://www.w3.org/1999/xlink" x="0px" y="0px"
	 viewBox="0 0 176 120" style="enable-background:new 0 0 176 120;" xml:space="preserve">
<style type="text/css">
	.st0{fill:#00C653;}
	.st1{fill:#313739;}
	.st2{fill:none;stroke:#313739;stroke-width:2;stroke-linecap:round;stroke-linejoin:round;stroke-miterlimit:10;}
	.st3{fill:none;stroke:#00C653;stroke-width:2;stroke-linecap:round;stroke-linejoin:round;stroke-miterlimit:10;}
	.st4{fill:#FFFFFF;}
	.st5{fill:#47C9C9;}
	.st6{fill:none;stroke:#47C9C9;stroke-width:3;stroke-linecap:round;stroke-linejoin:round;}
</style>
<g id="outlined-icons">
	<g>
		<path class="st0" d="M50.078,55.324c-1.001-0.001-1.866,0.812-1.866,1.812l-0.026,7.588c0,1.003,0.907,1.813,1.908,1.813
			c1.001,0,1.907-0.81,1.907-1.812v-7.589C52,56.136,51.079,55.323,50.078,55.324 M64.581,48.51l1.265-2.31
			c0.067-0.121,0.023-0.274-0.099-0.343c-0.123-0.065-0.276-0.021-0.341,0.101l-1.277,2.334c-1.075-0.478-2.278-0.747-3.551-0.745
			c-1.269-0.001-2.472,0.266-3.542,0.742l-1.279-2.328c-0.067-0.123-0.22-0.167-0.34-0.1c-0.123,0.066-0.168,0.22-0.1,0.341
			l1.265,2.308c-2.486,1.282-4.166,3.724-4.164,6.527l16.323-0.002C68.741,52.232,67.064,49.795,64.581,48.51 M56.865,52.079
			c-0.376-0.001-0.682-0.306-0.682-0.684c0-0.376,0.306-0.685,0.683-0.685c0.378,0,0.685,0.309,0.685,0.685
			C57.551,51.772,57.244,52.079,56.865,52.079 M64.298,52.078c-0.377,0-0.684-0.306-0.684-0.684
			c0.001-0.375,0.307-0.684,0.685-0.686c0.375,0.001,0.683,0.31,0.683,0.686C64.982,51.772,64.675,52.078,64.298,52.078
			 M52.484,55.666l0.003,11.58C52.486,68.316,53.351,69,54.42,69h1.317l0.002,4.195c0,0.999,0.812,1.902,1.811,1.902
			c1.001,0,1.812-0.948,1.813-1.948L59.361,69h2.446l0.001,4.194c0,0.999,0.813,1.903,1.811,1.901
			c1.001,0.001,1.813-0.768,1.813-1.768l-0.001-3.991l1.321,0.01c1.067,0,1.934-0.859,1.934-1.928l-0.002-11.757L52.484,55.666z
			 M73.007,57.133c0-1.001-0.811-1.812-1.812-1.812c-1.001-0.001-1.812,0.812-1.811,1.813l0.001,7.588
			c0,1.002,0.811,1.811,1.812,1.812c1.001,0,1.811-0.81,1.811-1.813L73.007,57.133z"/>
		<g>
			<path class="st0" d="M123.254,58.728c-0.029-3.208,2.626-4.768,2.748-4.841c-1.504-2.193-3.835-2.492-4.654-2.516
				c-1.958-0.206-3.857,1.171-4.854,1.171c-1.017,0-2.553-1.152-4.208-1.118c-2.13,0.033-4.122,1.266-5.215,3.181
				c-2.255,3.904-0.573,9.642,1.587,12.798c1.081,1.546,2.344,3.271,3.997,3.211c1.617-0.067,2.221-1.031,4.173-1.031
				c1.934,0,2.501,1.031,4.187,0.992c1.736-0.028,2.829-1.553,3.872-3.112c1.249-1.772,1.751-3.516,1.771-3.606
				C126.617,63.844,123.287,62.573,123.254,58.728z"/>
			<path class="st0" d="M120.069,49.295c0.87-1.088,1.465-2.568,1.3-4.07c-1.259,0.056-2.833,0.871-3.74,1.935
				c-0.802,0.938-1.519,2.474-1.334,3.919C117.709,51.185,119.162,50.366,120.069,49.295z"/>
		</g>
		<g>
			<path class="st1" d="M60.583,28.61c-1.998,0-3.623-1.625-3.623-3.623c0-1.997,1.625-3.622,3.623-3.622
				c1.997,0,3.622,1.625,3.622,3.622C64.205,26.985,62.58,28.61,60.583,28.61z M60.583,23.366c-0.895,0-1.623,0.728-1.623,1.622
				s0.728,1.623,1.623,1.623s1.622-0.728,1.622-1.623S61.478,23.366,60.583,23.366z"/>
			<path class="st1" d="M60.595,104.008c-6.695,0-13.366-0.582-19.291-1.681C39.42,101.978,38,100.363,38,98.571V22.315
				c0-1.794,1.435-3.409,3.337-3.757c11.711-2.146,26.57-2.164,38.441,0.039l0,0C81.615,18.938,83,20.554,83,22.354v76.253
				c0,1.801-1.408,3.417-3.275,3.758C73.858,103.44,67.244,104.008,60.595,104.008z M60.529,18.916
				c-6.571,0-13.083,0.557-18.832,1.609C40.761,20.697,40,21.5,40,22.315v76.256c0,0.816,0.749,1.619,1.669,1.789
				c11.573,2.148,26.156,2.151,37.695,0.039C80.282,100.231,81,99.444,81,98.608V22.354c0-0.839-0.697-1.625-1.587-1.791l0,0
				C73.606,19.486,67.077,18.916,60.529,18.916z"/>
			<path class="st1" d="M116.288,97.977c-2.625,0-4.761-2.136-4.761-4.761c0-2.625,2.136-4.761,4.761-4.761s4.761,2.136,4.761,4.761
				C121.048,95.841,118.913,97.977,116.288,97.977z M116.288,90.455c-1.522,0-2.761,1.239-2.761,2.761s1.238,2.761,2.761,2.761
				s2.761-1.238,2.761-2.761S117.81,90.455,116.288,90.455z"/>
			<g>
				<path class="st1" d="M130.794,104h-28.588C98.232,104,95,100.768,95,96.795v-71.59C95,21.232,98.232,18,102.206,18h28.588
					c3.974,0,7.206,3.232,7.206,7.205v71.59C138,100.768,134.768,104,130.794,104z M102.206,20C99.335,20,97,22.335,97,25.205v71.59
					c0,2.87,2.335,5.205,5.206,5.205h28.588c2.871,0,5.206-2.335,5.206-5.205v-71.59c0-2.87-2.335-5.205-5.206-5.205H102.206z"/>
				<path class="st1" d="M121,24h-9c-0.552,0-1-0.448-1-1s0.448-1,1-1h9c0.552,0,1,0.448,1,1S121.552,24,121,24z"/>
			</g>
		</g>
	</g>
</g>
<g id="lined-icons">
</g>
<g id="specs">
</g>
</svg>
