<?xml version="1.0" encoding="utf-8"?>
<!-- Generator: Adobe Illustrator 19.2.1, SVG Export Plug-In . SVG Version: 6.00 Build 0)  -->
<svg version="1.1" xmlns="http://www.w3.org/2000/svg" xmlns:xlink="http://www.w3.org/1999/xlink" x="0px" y="0px"
	 viewBox="0 0 176 120" style="enable-background:new 0 0 176 120;" xml:space="preserve">
<style type="text/css">
	.st0{fill:#00C653;}
	.st1{fill:#313739;}
	.st2{fill:none;stroke:#313739;stroke-width:2;stroke-linecap:round;stroke-linejoin:round;stroke-miterlimit:10;}
	.st3{fill:none;stroke:#00C653;stroke-width:2;stroke-linecap:round;stroke-linejoin:round;stroke-miterlimit:10;}
	.st4{fill:#FFFFFF;}
	.st5{fill:#47C9C9;}
	.st6{fill:none;stroke:#47C9C9;stroke-width:3;stroke-linecap:round;stroke-linejoin:round;}
</style>
<g id="outlined-icons">
	<g>
		<g>
			<g>
				<g>
					<path class="st0" d="M101.502,57.962c-0.256,0-0.512-0.098-0.707-0.293l-2.479-2.479c-0.391-0.391-0.391-1.024,0-1.414
						c0.391-0.391,1.023-0.391,1.414,0l2.479,2.479c0.391,0.391,0.391,1.024,0,1.414C102.014,57.864,101.758,57.962,101.502,57.962z
						"/>
					<path class="st0" d="M101.502,57.962c-0.256,0-0.512-0.098-0.707-0.293c-0.391-0.391-0.391-1.023,0-1.414l4.195-4.196
						c0.391-0.391,1.023-0.391,1.414,0s0.391,1.023,0,1.414l-4.195,4.196C102.014,57.864,101.758,57.962,101.502,57.962z"/>
				</g>
				<path class="st0" d="M107.781,64H96.219C94.444,64,93,62.556,93,60.781V49.219C93,47.444,94.444,46,96.219,46h11.562
					c1.775,0,3.219,1.444,3.219,3.219v11.562C111,62.556,109.556,64,107.781,64z M96.219,48C95.547,48,95,48.547,95,49.219v11.562
					C95,61.453,95.547,62,96.219,62h11.562c0.672,0,1.219-0.547,1.219-1.219V49.219c0-0.672-0.547-1.219-1.219-1.219H96.219z"/>
			</g>
			<g>
				<g>
					<path class="st0" d="M72.781,57.962c-0.256,0-0.512-0.098-0.707-0.293l-2.479-2.479c-0.391-0.391-0.391-1.024,0-1.414
						c0.391-0.391,1.023-0.391,1.414,0l2.479,2.479c0.391,0.391,0.391,1.024,0,1.414C73.293,57.864,73.037,57.962,72.781,57.962z"/>
					<path class="st0" d="M72.781,57.962c-0.256,0-0.512-0.098-0.707-0.293c-0.391-0.391-0.391-1.023,0-1.414l4.195-4.196
						c0.391-0.391,1.023-0.391,1.414,0s0.391,1.023,0,1.414l-4.195,4.196C73.293,57.864,73.037,57.962,72.781,57.962z"/>
				</g>
				<path class="st0" d="M79.781,64H68.219C66.444,64,65,62.556,65,60.781V49.219C65,47.444,66.444,46,68.219,46h11.562
					C81.556,46,83,47.444,83,49.219v11.562C83,62.556,81.556,64,79.781,64z M68.219,48C67.547,48,67,48.547,67,49.219v11.562
					C67,61.453,67.547,62,68.219,62h11.562C80.453,62,81,61.453,81,60.781V49.219C81,48.547,80.453,48,79.781,48H68.219z"/>
			</g>
			<g>
				<path class="st1" d="M42.308,58.24c-0.256,0-0.512-0.098-0.707-0.293c-0.391-0.391-0.391-1.023,0-1.414l5.289-5.289
					c0.391-0.391,1.023-0.391,1.414,0s0.391,1.023,0,1.414l-5.289,5.289C42.819,58.143,42.563,58.24,42.308,58.24z"/>
				<path class="st1" d="M47.596,58.24c-0.256,0-0.512-0.098-0.707-0.293l-5.289-5.289c-0.391-0.391-0.391-1.023,0-1.414
					s1.023-0.391,1.414,0l5.289,5.289c0.391,0.391,0.391,1.023,0,1.414C48.108,58.143,47.852,58.24,47.596,58.24z"/>
				<path class="st1" d="M50.781,64H39.219C37.444,64,36,62.556,36,60.781V49.219C36,47.444,37.444,46,39.219,46h11.562
					C52.556,46,54,47.444,54,49.219v11.562C54,62.556,52.556,64,50.781,64z M39.219,48C38.547,48,38,48.547,38,49.219v11.562
					C38,61.453,38.547,62,39.219,62h11.562C51.453,62,52,61.453,52,60.781V49.219C52,48.547,51.453,48,50.781,48H39.219z"/>
			</g>
			<g>
				<path class="st1" d="M128.471,58.24c-0.256,0-0.512-0.098-0.707-0.293c-0.391-0.391-0.391-1.023,0-1.414l5.289-5.289
					c0.391-0.391,1.023-0.391,1.414,0s0.391,1.023,0,1.414l-5.289,5.289C128.983,58.143,128.727,58.24,128.471,58.24z"/>
				<path class="st1" d="M133.76,58.24c-0.256,0-0.512-0.098-0.707-0.293l-5.289-5.289c-0.391-0.391-0.391-1.023,0-1.414
					s1.023-0.391,1.414,0l5.289,5.289c0.391,0.391,0.391,1.023,0,1.414C134.271,58.143,134.016,58.24,133.76,58.24z"/>
				<path class="st1" d="M136.781,64h-11.562c-1.775,0-3.219-1.444-3.219-3.219V49.219c0-1.775,1.444-3.219,3.219-3.219h11.562
					c1.775,0,3.219,1.444,3.219,3.219v11.562C140,62.556,138.556,64,136.781,64z M125.219,48c-0.672,0-1.219,0.547-1.219,1.219
					v11.562c0,0.672,0.547,1.219,1.219,1.219h11.562c0.672,0,1.219-0.547,1.219-1.219V49.219c0-0.672-0.547-1.219-1.219-1.219
					H125.219z"/>
			</g>
		</g>
		<g>
			<path class="st1" d="M145.528,106H29.472c-3.017,0-5.472-2.455-5.472-5.472V20.472C24,17.455,26.455,15,29.472,15h116.057
				c3.017,0,5.472,2.455,5.472,5.472v80.057C151,103.545,148.545,106,145.528,106z M29.472,17C27.558,17,26,18.558,26,20.472v80.057
				c0,1.914,1.558,3.472,3.472,3.472h116.057c1.914,0,3.472-1.558,3.472-3.472V20.472c0-1.914-1.558-3.472-3.472-3.472H29.472z"/>
			<g>
				<path class="st1" d="M45.084,105.67c-0.136,0-0.274-0.028-0.407-0.087c-0.504-0.225-0.731-0.816-0.506-1.321
					C51.875,86.976,69.079,75.805,88,75.805s36.125,11.17,43.829,28.457c0.225,0.505-0.002,1.096-0.506,1.321
					c-0.505,0.222-1.096-0.002-1.321-0.506C122.62,88.51,106.133,77.805,88,77.805S53.381,88.51,45.999,105.077
					C45.833,105.449,45.467,105.67,45.084,105.67z"/>
				<path class="st1" d="M88,96.781c-10.534,0-20.53-3.351-28.91-9.689c-0.44-0.333-0.527-0.96-0.194-1.401
					c0.332-0.44,0.959-0.528,1.401-0.194c8.028,6.074,17.608,9.284,27.703,9.284c10.095,0,19.675-3.21,27.703-9.284
					c0.441-0.334,1.068-0.247,1.401,0.194c0.333,0.44,0.247,1.068-0.194,1.401C108.532,93.431,98.535,96.781,88,96.781z"/>
				<path class="st1" d="M88,106c-0.552,0-1-0.448-1-1V77c0-0.552,0.448-1,1-1s1,0.448,1,1v28C89,105.552,88.552,106,88,106z"/>
				<path class="st1" d="M108.648,105.672c-0.414,0-0.8-0.259-0.944-0.671c-3.828-10.971-10.84-20.404-20.278-27.28
					c-0.446-0.325-0.544-0.951-0.219-1.397s0.95-0.544,1.397-0.219c9.768,7.117,17.026,16.881,20.989,28.237
					c0.182,0.521-0.093,1.092-0.615,1.274C108.869,105.654,108.757,105.672,108.648,105.672z"/>
				<path class="st1" d="M67.353,105.67c-0.109,0-0.22-0.018-0.33-0.056c-0.521-0.182-0.796-0.752-0.615-1.274
					C70.381,92.959,77.66,83.18,87.458,76.06c0.448-0.326,1.072-0.225,1.397,0.221c0.325,0.447,0.226,1.072-0.221,1.397
					c-9.468,6.879-16.5,16.327-20.337,27.322C68.153,105.412,67.766,105.67,67.353,105.67z"/>
			</g>
			<path class="st1" d="M150,35H25c-0.552,0-1-0.448-1-1s0.448-1,1-1h125c0.552,0,1,0.448,1,1S150.552,35,150,35z"/>
			<path class="st1" d="M74,25H46c-0.552,0-1-0.448-1-1s0.448-1,1-1h28c0.552,0,1,0.448,1,1S74.552,25,74,25z"/>
			<path class="st1" d="M35.347,28.269c-2.09,0-3.791-1.701-3.791-3.791s1.701-3.791,3.791-3.791s3.791,1.7,3.791,3.791
				S37.437,28.269,35.347,28.269z M35.347,22.687c-0.988,0-1.791,0.803-1.791,1.791c0,0.988,0.803,1.791,1.791,1.791
				c0.987,0,1.791-0.803,1.791-1.791C37.137,23.49,36.334,22.687,35.347,22.687z"/>
		</g>
	</g>
</g>
<g id="lined-icons">
</g>
<g id="specs">
</g>
</svg>
